<svg xmlns="http://www.w3.org/2000/svg" width="228" height="297" viewBox="0 0 228 297"><path d="M221.4 1.7H6.5a5 5 0 00-5 5v240a5 5 0 005 5H72l-.5.5 42.4 42.5 42.5-42.5-.5-.5c3.7-2.2 73.7 5.3 70.5-5V6.7a5 5 0 00-5-5z" fill="#fff" stroke="#ffc200" stroke-width="3" stroke-dasharray="16"/><path d="M151 211.2c-.9 18.1-31.7 9.8-36.7 6.3-.1.3-36.9 12.6-38.5-8.5" fill="none" stroke="#000"/><path d="M93.8 106.3c11.5-.1 30.3 1.5 38.3-6.9 10.1-7.7 10.1-30 1.3-38.5-13.6-13.9-47.6-6-46 17.3H58.8c-1.4-46.5 66.3-60 95-34.1 22.9 19.5 18.6 61.1-11.7 73 33.7 9.1 37.5 56.8 13 76.8-30.3 26.8-99.9 13.9-98-34.7h28.7c-1.6 25 33.5 32.7 49 18.4 10.3-8.7 10.2-32.8-.4-41.4-7.7-8.6-28.5-7.4-40.6-7.3z" fill="#ffc200"/><path d="M85.8 175c-5.7 9.7-1.3 15.5-12.2 18.2-8.2 1-13.7 8.3-7 12 .7 2.7 3.9 5.5 7 3 7.6 5.3 20.5-17.7 24.1-23l1 12c6.4 4.6 26.5 3.2 32.1-2v-12c2.7 9.4 11 24.7 21.4 28.2 3.9-2.8 9.2-4 9.7-9.2-.6-2.8-8.6-9.6-12.1-9-7.5-16.7-6.1-40.7-27.1-44.1 2.2-7 12.3-5.3 9.1-13-9.3-50.1-45.7-.5-27.1 15-13.3 5.5-10.6 7.1-18.9 23.9z" fill="#fff"/><path d="M97.1 184.4s-.7-17.4.3-17.9M113.8 145.5s-7.4-2.2-8.1-1.9M109.4 146.9l-1.7-.4M106.6 134.1s-1.4-2.8-3.1-.4M120.2 134.8s-1.3-2.9-3.5-.7" fill="none" stroke="#000"/><path stroke="#000" d="M118.7 128.5l-2.8-2.5-.5 1.6 3.3.9zM107.1 126.2l.2 1.3-2.7.8 2.5-2.1z"/><path d="M141.6 222.3c3.4-.4 10-8 10-11-14.1-7-10.7-15-21.2-15.5-11.8 8.1-26 2.2-40.1 1.2-4.8 5.2-8.9 11-14.8 12.3 4 15.8 20.6 15.9 38.8 8.4a49.8 49.8 0 0027.3 4.6z" fill="#333"/><path d="M90 200.4c-.4 1.2 1.1 4.5 1.7 5.3a89.1 89.1 0 0112.9-2.3c-4.9-3.6-10.7-5.7-14.6-3z"/><path d="M104.3 151.2c-17.1 3.5-17.7 31.2-26.8 41.5 0 0 12.5 7.8 4.7 13.3-14.5 10.4-7.5-9.7-4.7-.1M128.7 170.3c-.8 10.5 8.4 30 11.7 31.9.2-4.5 6-7.3 9.4-8.6-9.9-16.9-1.3-37.2-27.7-44.9" fill="none" stroke="#000"/><path d="M130.3 181.4a83.1 83.1 0 00.4 14.1 25.5 25.5 0 015.8 1.7M149.9 193.4c3.5-1 7.3 3.2 9.4 4.7 1.9 5.4-5.6 1.3-5.8 1.1s2.5 5.5 3.7 3.5c2.2-4.2 6.5-2.2 3.7 2.5-1.6-1.9-7 1.8-7.7-1.7l.7-.3M150.8 199.9a5 5 0 01-5.4-.3M160.9 205.2s.8 4-2.8 4.6-2.9-.2-2.9-.2M149.9 205.1c.6 1.6 7 1.1 4.9 4.9-3.7 5.8-14.2-7-14.4-7.8M84.9 202.3c6.5-3.9 12.2-17.9 12.2-17.9s1.1 12.5 1.4 13.2-6.8-1.2-8.3-.5M130.7 195.5a37 37 0 01-32.2 2.1M114.3 217.5l7.4-3.3c3.7-11.8-9.5-13.3-30.6-7.9" fill="none" stroke="#000"/><path d="M116.2 203.6s2.8-4.1 6.1-2.8l-.3 1.2c5.4-3 32 7.7.5 10.8 1.3-3.3-2.9-8.7-6.3-9.2z"/><path d="M81 199.2a6.9 6.9 0 01-5.9.3M77.5 192.7a6.9 6.9 0 00-6 1.7c-.2.7-6.7-.3-4.5 3.1-6.7-.1-1.1 14.6 6.8 10.7M73.8 204.4c-1.9 3.6-7.8-7.8-8.2.4M67 197.5c2.4 1.3 1.4 4.6 1.4 4.6M73.6 198.5s-4.3 2.1-6.8-1.6M72.9 202.7s-2.1 1.6-3.3.6M71.6 199s-2.8 1.2-3 2.4" fill="none" stroke="#000"/><path d="M128.2 141.8a2.8 2.8 0 002.1-2.3l-.8-.5c-.1.6-1.1 2.2-2.6 1.8.2.7.6 1.3 1.3 1z"/><path d="M101.8 117.8a12.3 12.3 0 002.6 5.5c-4.3 7.6-6.2-3.9-2.6-5.5z" fill="#b3b3b3"/><path d="M102.3 139.1c4.4 1.9 8.7-4.8 7.5-7.5h3.1c1.2 9.4 9.8 11.1 10.9 2.1 3.7.2 3.2 5.5 6.1 4.9-3.9-6.6-10.2-14.1-16.5-8.6h-4c-7.6-6.2-13.6 4.8-7.1 9.1zm12.8-8.5c6.4-4.3 10.6 5.9 3.8 8.2-2.4.1-5.5-6.2-3.8-8.2zm-7.2.1c2.4 3.1-1.4 8.3-5 7-5.3-2.7.2-11.7 5-7z"/><path d="M113.3 139.9l-3.9-1.1c1-1.7 2.9-3.1 2.7-5.3-2.9 3.7-6.3 7.8 1.2 6.4z"/><path d="M106.1 152.9c6.3 11.2 15.8-2.4 21-8.7a5.9 5.9 0 005.4-7.6c-.6-47.2-52.2-7.2-26.4 16.3zm1.2.5c2.4 1 10.4-.2 13.1-2.7-3.7 5.3-9 7.6-13.1 2.7zm-7.4-17.7c2.1-23.2 32.5-29.9 31.6.1-.1-.4-1.8-.6-2 0l.7.7c3-1.7 2 8.4-4 5.8l-.5.9.6.4c-8.9 13.5-27.4 13.1-26.4-7.9z"/><path d="M125.6 129.5l-.2-2.8-1.5 1.4c-.3-12.6-12.5 0-18.7-4.1-5.4 9-9.3-5.4-3.3-7.4 13.5-16.7 40.4 1.3 30.6 20.2-.6-2.1-4.3-6.4-6.9-7.3zm-22.9-12.3c2.4 16.3 19.3-4.6 21.8 8.9l1.7-1.6.3 3.5c1.9.6 5.5 4.9 5.7 6.8 6.8-17.2-17.1-32.2-29.5-17.6zm-.9.6c-3.6 1.6-1.7 13.1 2.6 5.5a12.3 12.3 0 01-2.6-5.5z"/><path d="M102.7 117.2c13.2-14.3 35.7-.5 29.5 17.6-.2-1.9-3.8-6.2-5.7-6.8l-.3-3.5-1.7 1.6c-2.5-13.5-19.4 7.4-21.8-8.9z" fill="#b3b3b3"/></svg>