<svg xmlns="http://www.w3.org/2000/svg" width="350" height="350"><g opacity=".2"><path fill="#cacaca" d="M200.5 145.5l8.1 6-1.9 31.3-5.2 12.9-1-50.2zM261.5 206.9c-9.5-3.4-11-6.7-13.8-15.2-2.7-3.3-1.6-4.2-2-7.1-1-1.1-3.4 0-4 1-3.8-.7-9-15.3-8.7-22.7l6.7 10.9c21.4 3.5.3-33.9-12.8-35.2 1.3 7.1-6.7 14.4-12.3 13.9l-1 28.1c3 5.7 9.6 12.9 14 16.1.3 4.5.1 8.6 5.1 10 1.3 10.4 8.6 10.8 17 9.1s11.4-2.3 11.8-8.9z"/><path d="M251 176.7c.8-1.4 1.5-7.1-1.6-8.3-2.2 5.9-4.3 6.2-10.7 6.2l3 6c-1.9 1.7-1 4.4 1 4.2l1.9-1.6 2.1 2.9a25.3 25.3 0 01-1.3 2.2l3.3.3 5.6-6.1z" fill="#fcfcfc"/><path d="M261.2 184.9c-5.2 1-7.1-3.4-9.5-6.3a112 112 0 001.7-5.4c4.4.5 7.5 3 10.5 6.1a10.9 10.9 0 00-2.7 5.6z" fill="#cecece"/><path d="M214.2 221c1.2 12.2-22.2-6.4-15.5-12.9 6.7-3.5 12.2 8.4 15.5 12.9zM225.6 222.7c-5.1-4.4.4-17.4 8.4-4.3-1.8 4.4-6.2 5.7-8.4 4.3z"/><path d="M232.4 115.2a28.2 28.2 0 01-5.8-1.9c-3.6 2.2-17.5-1.3-20-6 .2-7.6 12.5-15.5 21-10l11.1 13.5 2-3.9a39.2 39.2 0 012.5 3.2l1.9-2.6 1.6.8-2.4 4.4-3-2.4-1.6 5.3a27.5 27.5 0 01-7.3-.4z" fill="#cacaca"/><path d="M238.5 110.4c-2.9-4.2-9-12.6-12.4-13.6-11.5-5-19.3 6.2-19.7 10.9 2.8 3.5 15.8 7.5 20.6 6M220.4 109.9c5.7-1.2 5.8 7 13.3 5.6" fill="none" stroke="#000"/><path d="M206.7 106c-3.1-3.2-7.4.6-4.8 3.8a5 5 0 005.8 7s3.7 5.5 7.1 3c0 0 2.7 4.3 5.9 1 0 0 2.5 3 4.6 0 3 2.4 7.8-.7 7.9-5.4M204 115.9c-9.4 8.9-4.9 30.3 12 28.1" fill="none" stroke="#000"/><path d="M229.9 120.8s-.3 6.1-2.3 7.1c0 0 4 4.2-1.8 6.1 0 0-4.2 7-6.1 6.8M224.8 121.5a48.1 48.1 0 013.6 4M224.7 123.8l2.2 2.4M209.5 123.3s-1.9 5.2-2.6 5.2 1.2 2.4 1.8 2.3" fill="none" stroke="#000"/><path d="M202.9 133.9c-2.5 1.7 2.7 4.9 5.4 3.6s1.9-.9 4.4-.3c1.7-2.6 2.9-1.4 4.7-.9 1.5-1.2-1.2-4-2-3.8s-5 2.3-6.2 1.3c-.9 2-5.2 2.2-6.3.1z" fill="#fcfcfc" stroke="#000"/><path fill="none" stroke="#000" d="M209.4 139.6l2.6-.2"/><path d="M215.6 124.9c0 1.9-2 1.9-2 0s2-2 2 0z"/><path d="M209.5 143.7c3.6 5.3 15 2.3 13.4-5.4M239.6 173.9s-2.1 1.4 2.3 6.4c0 0 7 2.3 9-4M250.9 176.5c1.6-9.5-2-8.2-2-8.2" fill="none" stroke="#000"/><path d="M242.5 180.5c-2 1.6-2.5 4.1-.2 4.4 2.8-2.9 5.2.9 2.9 3.1 0 .4.7.8 3.7.8 2.7-1.9 6-7 5.4-7l-3.5-5.1" fill="none" stroke="#000"/><path d="M252.2 178.1c1.1-.9.5-4 1-4.9s2.8.2 2.8.8c4.3.2 1.8.4 6.7 3.7 2.8 1-.1 4.5-1 4.4.7 6.7-6.6.9-7.4.1M261.5 182.1s-5.8.2-6.5-.7M243.1 184.4s-5 4.5-5.5 6.9M245.5 186.8c-5.2 2-3.3 14.6-1.2 9.7" fill="none" stroke="#000"/><path d="M241.4 185.7s-12.5.9-13.7 11.9 10.4 9.6 10.4 9.6c16.2 2.1 14-12.4 7.1-19M234.7 204.2c3.5 5.7 12.2 3 13.2-3.6" fill="none" stroke="#000"/><path d="M233.2 163.3l.8 9.9h0l6.5 12.6M210 183.6s1.3 6.9-8 23.8M225.5 204.6c-4.3 7.9-4.8 12.5-12.5 19.9M206.2 209.6c2.5-4 4.9-12.6 4.8-17.1M223.5 209.1a57 57 0 002.6 4.1M200.1 168.6c8.7 8.4 5.4 1.6 13.5 5.6 6.4 2 15.5-2.2 19.6-7.1" fill="none" stroke="#000"/><path d="M200 174l6.5 5s0 2.2 1.9 2.3c0 0 5.7 8.7 10.2 11.1 13.3 13.6-.9 11.4 20.1 30.1 4.9-4.3 11-2.2 19.3-3.2s7.2-12.4 3.4-12.6-11.1-7.1-11.1-7.1M213 180.5c12.3 1.1 21-7.3 21-7.3M219.4 174.5c5.2-1 5.9 5 .6 5.6" fill="none" stroke="#000"/><path d="M207.8 179.7v-5.6l3.2.4v5.6zM206.5 179s-.1-5.5.5-5.7M212.9 173.8a13.6 13.6 0 01-.1 7.5M208.4 181.3s4.1.5 4.4-.2M204 140.6c-2.3 4.5.8 10.2 5.1 10.4l-1.7 22M226.7 138.6c1.1 4.6-4 15.1-12.7 14.1l-.4 21.5h0M202 194.2c2.3-3.2 4.6-9.9 5-13.6M213.7 180.6c2.9 7.8 11 9.8 14.1 16.4M232.2 206.2c1 4.2 4.3 12.2 12 10.1 15.8-2.2 15.5-.2 17.6-9.6M233.6 115.5c6.9-.2 5.2 3.7 7.7-5.3l3.1 2.7 2.8-4.1-1.9-1.6c-2.6 9.1-3.2-7.3-7.1 4.1M245.3 107.2s-3.7-2.6-3.8-5.2l1.3.5s-2.4-5.7 2.7-6.6a6.6 6.6 0 01.1 1.5M255.1 102.1l.8 1.1c1.4-1.1.2-4.7.2-4.7-3.5-8.3-10.6-2.6-10.6-2.6M255.9 103.2a3.1 3.1 0 01-.4 3.8c-2.7-7.3-.7 7-8.6 1.2" fill="none" stroke="#000"/><path d="M233.2 115.4v3.9l.9-.8.8 2.6 1.2-2.1 1.1 5.9 1.5-5.2 1.6 1.2.9-4 2 1.8.8-1.9 2.7 4.3-.5-7.3h2.2l.8-1.9 1.4.8 1.5-3.5M249.9 188.1s1-2.4-.3-3.7M252.2 185.1l-2-3M223.1 137.8s21.1 1.8 25.8 30.5c0 0-.3 7.8-9.3 5.6 0 0-3.1-9.2-13.2-17.2" fill="none" stroke="#000"/><path d="M210.4 121.8h-3.7a6.6 6.6 0 00-4.2-1.8v1c4.8-.2 4.2 6.9 0 7.6v1.3c3-.6 5.5-4.8 4.6-6.8l2.8.2c.9 8.4 8.6 10.2 9.8 2.1 3.3.3 2.7 5 5.3 4.6-3.3-6.1-8.8-13-14.6-8.2zm4.7 7.9c-2.2.1-4.8-5.6-3.2-7.4 5.9-3.6 9.4 5.6 3.2 7.4z"/></g><path d="M202.5 97.3c-21.8-4-60.7-26-79.3-19.1v165.7l72.3 25.1 7-8.1z" fill="#fff"/><path fill="#ffc200" d="M154.3 103.3l-23-7v64.6l23 7.4v-65z"/><path d="M131.8 96.7v63.7l22.2 7.1.8.3v-64.1L132.6 97l-.8-.3z" fill="none" stroke="#000"/><path fill="#ffc200" d="M183.5 111.9l-23.1-7.2v65.7l23.1 7.6v-66.1z"/><path fill="none" stroke="#000" d="M160.9 105.8l22.1 6.9v64.2l-22.1-7.3v-64.3"/><path fill="#ffc200" d="M154.3 175.4l-23-7.5v64.7l23 7.8v-65z"/><path fill="none" stroke="#000" d="M131.8 169l22 7.2v63.1l-22-7.5v-63.2"/><path fill="#ffc200" d="M183.5 184.8l-23.1-7.5v65.2l23.1 7.9v-65.6z"/><path d="M160.9 177.8V242l22.2 7.6.9.3v-64.6l-22.2-7.2-.9-.3z" fill="none" stroke="#000"/><path d="M191.5 105.2l-2 2.1v153.6l2-2zM127.2 88.2l1-1 63.3 17.8-2 2.3z" fill="#b3b3b3"/><path d="M159.9 104.8a28.7 28.7 0 013 1.4V168l-3 2.1z" fill="#b3b3b3" stroke="#000"/><path d="M183 174.1l-19.8-6.4-2.7 2.3 22.5 7.1zM131.8 95.8a16.8 16.8 0 013 1.4v61.7l-3 2.1zM154.8 165.1l-19.7-6.4-2.7 2.2 22.4 7.2zM153.8 236.3l-19.7-6.4-2.7 2.3 22.4 7.2zM160.9 178.1a28.7 28.7 0 013 1.4v61.8l-3 2.1z" fill="#b3b3b3" stroke="#000"/><path d="M184 247.4l-19.8-6.4-2.7 2.3 22.5 7.1z" fill="#b3b3b3" stroke="#000"/><path fill="none" stroke="#000" d="M134.3 225.9l19.5 7.1M134.3 221.3l19.5 7.1M123 78.7l9.1-3L203 97.2l.3 164.2-8 7.1"/><path fill="none" stroke="#000" d="M123.7 79.2l72.3 22.1-.1 167.3-72.2-24.7V79.2zM202.6 96.8l-7 5M164.2 183.7l19.5 6.8M164.2 189l19.5 6.8M164.2 215.8l19.5 7M164.2 199.7l19.5 6.9M164.2 194.4l19.5 6.9M164.2 221l19.5 7M164.2 235.3l19.5 7.1M164.2 230.7l19.5 7.1M164.2 226.1l19.5 7.1M164.2 210.4l19.5 7M164.2 205l19.5 6.9M163.4 111.7l20 6.8M163.4 116.9l20 6.9M163.4 143.8l20 7M163.4 127.7l20 6.9M163.4 122.4l20 6.9M163.4 148.9l20 7.1M163.4 163.2l20 7.2M163.4 158.7l20 7.1M163.4 154.1l20 7.1M163.4 138.4l20 7M163.4 132.9l20 7M135.4 102.5l19.5 6.8M135.4 107.7l19.5 6.9M135.4 134.5l19.5 7.1M135.4 118.4l19.5 7M135.4 113.2l19.5 6.9M135.4 139.7l19.5 7.1M135.4 154l19.5 7.1M135.4 149.5l19.5 7.1M135.4 144.9l19.5 7.1M135.4 129.2l19.5 7M135.4 123.7l19.5 7"/><path fill="none" stroke="#000" d="M126.7 88.3l62.3 18.6v153.3L126.7 239V88.2"/><path fill="#fff" stroke="#000" d="M187 229.8v11.5l5 1.7v-11.2l-5-2zM187 123.6V135l5 1.8v-11.2l-5-2z"/><path d="M121.2 244.9l-4-1.5v-3.5l4 1 21.8-6.3 3.3-10.8h2a28.8 28.8 0 01-4 13zM153.4 195.1l-2.4-1.9a39.4 39.4 0 006.6-13.7l3 2z" fill="#fff"/><path d="M144.3 233.8c-5.5 3.6-18.7 7-25.6 6.5l2.5-7.5c8.2-2.5 16.9-6.5 25.1-9l-2 10z" fill="#777"/><path d="M144.3 224.8c-2.4 17-22.3 10.5-35.1 16.1-11.2-6-16.4-9.4-19.1-20.1-2.3-25 47.4 1.9 54.2 4z" fill="#333"/><path d="M156.4 222.1l-27.8 4.8v-2.4l26.9-4.4z" fill="#fff" stroke="#000"/><path d="M89.8 231.2l3.1-3.1 4.6 5.2zM135.3 184.6l15.2 8.3c2.6-2.4 6.4-9.4 6.8-13.5l-17-3.8-5 9z" fill="#777"/><path d="M135.7 221.8l-7.5 2-1 1c-1.6-2-1.1-.5-3 0l-2-2h-2l-.5-4.3-6.5-1.7c-1.3 3.9-10.3 6.2-13.1 0-11.2-2.2-15.6-15.2-7-24.1s13.4-9.4 26.1-11.1c14.4 2.8 30.6 3.8 37.2 20.1s-5.2 22.8-20.7 20.1z" fill="#fff"/><path d="M114.8 245.8l-.1 15.6c-1.7 1.7-8.6 2-10.2.7a110.6 110.6 0 01-6.9-29z" fill="#333"/><path d="M134.8 185.1c12.1 2.4 21.1 10.5 22.5 20.1 0 11.7-.3 18.8-21.7 16.7 0 0 2.7-6.4-4.8-10.5l14.1-3.9" fill="none" stroke="#000"/><path d="M131.8 212.3c-4.8-.8-14.9 2.5-11.7 9.9a1.3 1.3 0 002.3.7c-.2-1.8.7-5.5 1.2-5.9s-2.3 8.9 1.7 7.2c1.4-2.4-.2-3.4 3-6.2-1.6 2.1-3.6 5.8-1 7.1 1.7-.9 2.3-5 5.9-5.3M119.3 181.4s-32 3.8-31 24.4c0 0 .9 6.9 12.1 11.2M120.9 231.7c-1-.4-10.4-6.1-13.1-11.2" fill="none" stroke="#000"/><path d="M92.3 212.3s-11.8 11.8 15.6 28.1h.1" fill="none" stroke="#000"/><path d="M97.5 232.9s2.4 21.1 7.1 29.1c0 0 4.2 2.8 10.2-.5 0 0 .5-10.7-.1-16.1" fill="none" stroke="#000"/><path d="M104.4 261.9s-10.3 5.6-9.7 7.1c3.2 1.6 15.2-2.6 16.6-2.9l.5.8 3.4-1.6-.5-3.7c-1.8 1.7-8.8 1.6-10.3.3z"/><path d="M120.4 237.7s23.4 1.7 23.4-13.4M118.6 240.4c2 1.7 24.7-5 25.1-6.4l2.1-9.7" fill="none" stroke="#000"/><path d="M117.1 242.8c8.8 5.2 9.6-2.6 27.4-5.9 0 0 2.4-1 4.3-13.6" fill="none" stroke="#000"/><path d="M126.5 243.5l5.5 30.8h-2.5l-5-30zM138.9 238.5a2085 2085 0 009.5 22h0l1.2-.7-8.5-22.1z" fill="#bbb" stroke="#000"/><path d="M115.2 206.7c-2.8 3.5-9.4 2.1-11.1-3v-9c1.7 5.6 9.8 6.9 13.1 2l-2 10z" fill="#777"/><path d="M92.9 228l-3 3.2 7.6 2.3M89.9 231c-2.8 4.9 5.1 4.1 7.9 5.5" fill="none" stroke="#000"/><path d="M91.6 235.3l-5.9 22.4 1.9.7 6.6-22.8z" fill="#bbb" stroke="#000"/><path d="M142.8 176.1c17.9 3.9 21.9 1 9.9 19.4M156.5 179.1s4.3.2-6 13.9M108.7 222.2s3.4-.6 5.7-1.3" fill="none" stroke="#000"/><path d="M113.6 215.9c-8.4 14.1-22-6.1-9.9-12.9.3 5.1 7.5 7.7 11 4.2 4.1.6-3.8 6.7-5.2 6.4" fill="none" stroke="#000"/><path d="M134.3 184.1a19.6 19.6 0 006.6-6.9c12.4-4.2-4.1-18.6-6.6-25.4-24.7 2.8-24.3 44.9 0 32.3z" fill="#fff"/><path d="M130 161.2l1.1-1.7 4.2 4zM122.8 162.5l-1.1-1.3-2.5 4.4zM122.2 169.4c-.1 2.4-1.9 2.1-1.7-.2s1.9-2.1 1.7.2zM131.2 168.8c.4 2.4 2.1 1.8 1.7-.4s-2.2-1.9-1.7.4zM142 175.4a2.4 2.4 0 001.8-2.2l-.8-.3c-.1.5-.8 2-2.2 1.7l.4.8z"/><path d="M117 155.3a10.8 10.8 0 002.6 4.8c-3.4 7.1-5.8-3.1-2.6-4.8z" fill="#b3b3b3"/><path d="M118.6 174.5c4.1 1.4 7.6-4.8 6.3-7.2h2.8c1.6 8.3 9.4 9.4 9.9 1.3 3.3-.1 3.1 4.8 5.8 4.1-3.9-5.8-10-12.2-15.4-6.9l-3.6.3c-7.1-5.4-11.9 4.8-5.8 8.4zm11-8.4c5.6-4.2 9.9 4.7 3.9 7.1-2.2.2-5.3-5.2-3.9-7.1zm-6.5.5c2.4 2.7-.8 7.5-4.1 6.6-4.9-2.2-.4-10.6 4.1-6.6z"/><path d="M128.7 174.4l-3.6-.5 1.9-3.6-.2-1.5-2.7 5.3c.3.9 4 1.2 4.6.3z"/><path d="M122.8 186.6c6.2 9.7 14-3 18.3-8.9 11.3-1.9.2-26.9-6.7-26.3-16.2-1.6-26.3 25.9-11.6 35.2zm1 .4c2.3.7 9.4-.7 11.7-3.1-3 4.9-7.7 7.3-11.7 3.1zm-7.6-15.5c.6-20.9 27.6-28.6 28.4-1.7-.1-.3-1.6-.4-1.7.1l.6.6c2.7-1.6 2.2 7.5-3.3 5.5l-.3.8.5.3c-7.2 12.6-23.9 13.3-24.2-5.6z"/><path d="M139 164.5l-.4-2.5-1.2 1.4c-1-11.3-11.3.6-17-2.7-4.4 8.4-8.7-4.4-3.4-6.4 11.2-15.8 36.4-1.1 28.6 16.4-.7-1.8-4.3-5.5-6.6-6.2zm-21.2-9.8c3 14.6 17-5.2 20.1 6.8l1.3-1.5.5 3.1c1.8.5 5.2 4.1 5.6 5.9 5.1-15.9-17.2-28-27.5-14.3zm-.8.6c-3.2 1.7-.8 11.9 2.6 4.8a10.8 10.8 0 01-2.6-4.8z"/><path d="M117.8 154.7c11-13.5 32-2.4 27.5 14.3-.4-1.8-3.8-5.4-5.6-5.9l-.5-3.1-1.3 1.5c-3.1-12-17.1 7.8-20.1-6.8z" fill="#b3b3b3"/><path d="M108.1 217.6c3.5 1.4 10.3-5.5 3.8-4.9M115.7 207.5c2.4 2.1 1.7 5.6-1 5.7M104 204.2l.6-8M116.7 196.2l-2 11M129.4 223.1s6.2-.5 6.6-3.6M113.5 216.4s3.1 2.6 6.1 2.3M103.6 202.9l-4.8-5.5M104.7 189.9l2 8.3M106.4 189.2l2.3 10" fill="none" stroke="#000"/><path d="M113.7 187.1c-4.1-8.8-17.9-5.2-17.2 4.5 0 0 2.8-1.8 4.1 0a2.4 2.4 0 013.5-1.1c.1-.9 3.7-2 4.5-1.1.5-1.3 4.2-2.7 5.1-2.3z" fill="#ffc200" stroke="#000"/><path d="M100.6 191.6s-.7-6.4 3-9.4M104.3 182.1c-1.7 1.5-.2 8.4-.2 8.4M108.6 189.4a9.2 9.2 0 00-3.8-7.4M123.3 181c-2.3-1.9-.9-.5.9-.9s3.1.1 5.6-1a5.8 5.8 0 01-3.1 2M125 183.1c.3.7 3 .9 3.4-.1M123.7 181.1a41.5 41.5 0 00-13 18.1M112.7 199.2c2.1-5.7 9-14.4 14-18.1M107.2 192.5a10.1 10.1 0 016.4.4M115.4 194c6.9 7.7-16 6.1-9.9-.7" fill="none" stroke="#000"/><path d="M106.1 248.9c7.7.8 19-13.7 15.3-17.7-6.5-2.8-17.1 10.7-15.3 17.7z"/><path fill="none" stroke="#000" d="M139.8 204.7v5"/><path fill="#fff" d="M119.9 185.1l.9.9 1.4-1.4-.9-.9-1.4 1.4z"/></svg>