<svg xmlns="http://www.w3.org/2000/svg" width="350" height="350"><path d="M206 173.5c-2.8 3-7.3 6.3-12.2 5.1s-7.3-9.2-7.4-13.2c.1-13.3 12-21 19.6-16.2v-1a7.9 7.9 0 00-3.4-1.5c-9.3-1.5-17.1 11-16.7 19.2.1 3.7 1.7 10.9 6.7 13.1 4.5 6.7 9.6 1.5 13.4-3.8z"/><path d="M200.1 156.8l.4-1.4 3.7 1.5zM193.6 158l-.5-1-2.7 1.6zM190.5 170.9c3.2 1.5 8.6 1.1 11.5-.9l.9 1.3a8.9 8.9 0 01-6.5 3.9c-2.3.1-6.6-1.2-5.9-4.3zm11.1-.1c-2.4 2-7.9 2.6-10.7 1.1 1.1 3.9 9.5 2.6 11-.5zM192.2 163.4c-.1 2.1-1.7 1.9-1.6-.2s1.7-1.9 1.6.2zM201.3 162.6c.4 2.2 2 1.7 1.6-.4s-2.1-1.6-1.6.4zM210.4 168.5a2.4 2.4 0 001.6-2.1l-.8-.3c0 .5-.7 1.9-1.9 1.6l.4.8z"/><path d="M187.2 150.6a9.6 9.6 0 002.5 4.3c-3 6.6-5.4-2.7-2.5-4.3z" fill="#b3b3b3"/><path d="M189 168c3.7 1.3 6.8-4.5 5.7-6.6h2.5c1.6 7.5 8.7 8.4 9.1.9 3-.1 2.9 4.3 5.3 3.7-3.7-5.2-9.3-10.9-14.1-6l-3.3.3c-2.3-1.6-5.1-1.6-6.6-.2s-1.1 7 1.4 7.9zm9.9-7.8c5-3.9 9.1 4.1 3.7 6.4-2 .3-5-4.6-3.7-6.4zm-5.9.6c2.2 2.4-.6 6.8-3.6 6.1s-.6-9.7 3.6-6.1z"/><path d="M198.2 167.8l-3.3-.4 1.7-3.3-.2-1.3-2.4 4.8c.3.8 3.7 1 4.2.2zM207.4 158.6l-.3-2.3-1.1 1.3c-1.2-10.3-10.3.8-15.6-2.2-3.8 7.8-8-3.8-3.2-5.8 9.9-14.6 33.1-1.7 26.3 14.5-.6-1.7-3.9-4.9-6.1-5.5zm-19.5-8.6c3 13.2 15.5-5 18.4 5.9l1.3-1.5.5 2.9c1.6.4 4.8 3.7 5.1 5.2a14.7 14.7 0 00-1.2-10.6 14.3 14.3 0 00-24.1-1.9zm-.7.6c-2.9 1.6-.5 10.9 2.5 4.3a9.6 9.6 0 01-2.5-4.3z"/><path d="M187.9 150a14.2 14.2 0 013.7-3.8c3.8-2.7 10.9-4.6 14.3-.8s2.2 6.6.4 10.5a4 4 0 00-1.4-2.9c-3.4-2.5-9.9 4-14.2 1.7-1-.6-2.2-1.7-2.8-4.7z" fill="#b3b3b3"/><path d="M230.2 252.5c-.4.5-1.2.6-2.6.9a11.2 11.2 0 01-3 .2v-10.5l2 2.1a26.7 26.7 0 012.8 3.2c1.1 1.6 1.4 3.2.8 4.1z" fill="#050505"/><path d="M206.3 175.5a42.3 42.3 0 0122 11.3c4 4.1 4.5 6.7 4.7 7.9 1 8.1-8.6 14.5-9.3 15-12 6.3-25.7 2.5-34.2.4-1-4.5.2-15.1-3.7-19.1-.7-.1-15.5-3.6-18.4-15a17.3 17.3 0 01-.1-7.3l10.8-5.5.6 9.6a10.6 10.6 0 003.4 2.7 10.9 10.9 0 004.4.8 4.5 4.5 0 012.8.1c2.7.8 3.3 3.5 4.9 4.4s4.8.7 12.1-5.3z" fill="#a6a6a6" stroke="#000"/><path d="M174.7 162.6c-1.4-1.6.4-6.4 3.5-8.1 1.3-.7 3.7-.4 8.5-.1 3 .2 4.7.4 4.8.9s-.9 1.4-6.2 3.3a1.8 1.8 0 01.6.8c0 2.1-9.3 5.6-11.2 3.2z" fill="#fff" stroke="#000"/><path d="M212.9 243.4c-5.8-15.4-7.7-16.6-8.1-16.6s-.4 1.2-.4 1.9-.6 5.1-2.9 7.8a18.1 18.1 0 01-7.9 5.5h-.1c-6.5 0-8.7-2.1-9.5-3.4s-.5-4.9 1-9.2c.7-2 1.5-4.2 2.3-7a72.1 72.1 0 002.3-12.3v-.6l.6.2a33.8 33.8 0 0011.5 2.1h2a46.2 46.2 0 009.4-1.8 30.7 30.7 0 017.5-1.4 11.3 11.3 0 014.8 1.1 10.3 10.3 0 014.4 3.4 14.1 14.1 0 012.1 7.9 64.3 64.3 0 01-6.7 22.3l-.2.3-12.1.2z" fill="#3a3a3a"/><path d="M220.7 209a10.6 10.6 0 014.6 1 9.2 9.2 0 014.1 3.3 13.3 13.3 0 012.1 7.6c-.2 8.8-5.6 20-6.7 22.1l-11.5.2c-5-13.4-7.4-16.9-8.5-16.9h-.2c-1.3.4.2 5.6-3.5 9.9a18 18 0 01-7.6 5.3h-.1c-6.7 0-8.5-2.5-9-3.2-1.9-3.1 1-7.1 3.4-15.8a75.7 75.7 0 002.3-12.3 36.2 36.2 0 0011.7 2.1h2.1c7-.5 12-3.2 16.8-3.2m0-1a31.5 31.5 0 00-7.6 1.4 46.5 46.5 0 01-9.3 1.8h-2a33.6 33.6 0 01-11.4-2.1l-1.2-.4v1.3a72.9 72.9 0 01-2.3 12.2l-2.3 6.9c-1.5 4.3-2.5 7.1-.9 9.6s3.2 3.7 9.8 3.7h.4a18.3 18.3 0 008.1-5.7 13.6 13.6 0 002.9-8.1l.2-1.2c.1-.4 2.9 4 7.4 16.1l.2.6h12.9l.2-.6c2-4 6.6-14.2 6.8-22.5a14.4 14.4 0 00-2.2-8.2 11.8 11.8 0 00-4.5-3.6h-.1a11.8 11.8 0 00-5-1.1z"/><path d="M131.6 103v168.4H212V103zm7.5 9.6h28.5v-1.1h1.1v51.9h-1.1v19.1H138V156h1.1zm29.6 99.5v50.8h-1.1v1.1H138v-44.5h1.1v-28.6h28.5v21.2zm35.9 50.8h-28.5v-72h28.5zm0-80.4h-28.5v-71h28.5z" fill="#fff"/><path d="M219.4 277.6l5.1-5.5-.1-179.6-4.8 4.8z" fill="#ccc"/><path d="M124.2 97.7v181.1h95.2V97.7zM212 272.5h-80.4V104.1H212z" fill="#fff"/><path fill="#ffc200" d="M176.1 111.5h28.6v71h-28.6zM176.1 190.9h28.6v72h-28.6z" opacity=".8"/><path fill="none" stroke="#000" d="M123.7 97.2h95.2v181.1h-95.2z"/><path fill="none" stroke="#000" d="M175.5 112h29.6v71h-29.6zM175.5 190.4h29.6v73.1h-29.6z"/><path fill="none" stroke="#000" d="M131.1 103.6h80.4v167.3h-80.4z"/><path fill="#fff" stroke="#000" d="M176.1 118.4l28.5-.2M176.1 126.9l28.5-.3M176.1 135.3l28.5-.2M176.1 143.8l28.5-.2M176.1 152.3l28.5-.2M176.1 159.7l28.5-.2M176.1 169.4l28.5-.2M176.1 176.6l28.5-.2M176.1 198.9l28.5-.2M176.1 206.3l28.5-.2M176.1 214.8l28.5-.3M176.1 223.2l28.5-.2M176.1 231.7l28.5-.2M176.1 241.2l28.5-.2M176.1 248.6l28.5-.2M176.1 257.1l28.5-.2"/><path fill="#ffc200" d="M139.1 111.5h28.6v71h-28.6zM139.1 190.9h28.6v72h-28.6z" opacity=".8"/><path fill="none" stroke="#000" d="M138.5 112h29.6v71h-29.6zM138.5 190.4h29.6v73.1h-29.6z"/><path fill="#fff" stroke="#000" d="M139.1 118.4l29.6-.2M139.1 126.9l29.6-.3M139.1 135.3l29.6-.2M139.1 143.8l29.6-.2M139.1 152.3l29.6-.2M139.1 159.7l29.6-.2M139.1 168.2l29.6-.3M139.1 176.6l29.6-.2M139.1 198.9l29.6-.2M139.1 206.3l29.6-.2M139.1 214.8l29.6-.3M139.1 223.2l29.6-.2M139.1 231.7l29.6-.2M139.1 241.2l29.6-.2M139.1 248.6l29.6-.2M139.1 257.1l29.6-.2"/><path fill="none" stroke="#050505" d="M124 96.7l6.7-4.8h93.9l-5.2 5.2M224.2 92.4v180.1l-5.5 5.4"/><path fill="#b3b3b3" stroke="#000" d="M141.7 180.8v-68.6l-3.2-.1V183l3.2-2.2z"/><path fill="#b3b3b3" stroke="#000" d="M168.1 180.8h-26.6l-2.5 2.1 29.1-.2v-1.9zM178.7 180.8v-68.5l-3.2-.1V183l3.2-2.2zM204.1 180.9l-24.1-.1-2.5 2.2 26.6-.2v-1.9zM141.7 261.2v-70.1h-3.2v72.4l3.2-2.3z"/><path fill="#b3b3b3" stroke="#111" d="M168.1 261.3h-26.2l-2.7 2.2h28.9v-2.2z"/><path fill="#b3b3b3" stroke="#000" d="M178.7 261.3v-70.1l-3.2-.1v72.5l3.2-2.3z"/><path fill="#b3b3b3" stroke="#111" d="M205.3 261.6h-26l-2.8 2.3 28.8-.2v-2.1z"/></svg>