<svg xmlns="http://www.w3.org/2000/svg" width="350" height="350"><path d="M172.2 235.7l-.5-.2L94.9 98.8a.4.4 0 010-.5.5.5 0 01.4-.3l79 3.9.4.2 76.9 136.7a.4.4 0 010 .5l-.4.2z" fill="#fff"/><path d="M95.3 98.5l79 3.9L251.2 239l-79-3.8L95.3 98.5m0-1a1 1 0 00-.8.5.9.9 0 000 1l76.8 136.7a1 1 0 00.8.5l79 3.8h.1a.9.9 0 00.8-.4 1.1 1.1 0 000-1.1l-76.8-136.6a1 1 0 00-.8-.5l-79-3.9z"/><path d="M101.6 104.2l.6-1.3 70.1 3.1-.9 1.4z" fill="#8c8c8c"/><path d="M103.2 105.2l67.7 3.1 70.4 125.3-66.1-2.6-72-125.8m-1.7-1.1l.9 1.6 71.9 125.8.3.5h.6l66.1 2.6h1.8l-.9-1.6-70.5-125.2-.2-.5h-.6l-67.6-3.1z"/><path d="M144 164.5l22.3 1-29.8-53.5-24.5-.6 32 53.1zM173.5 166.1l24.5.8-29.8-53.4-22.1-1.2zM153.4 180.7l2.9-9-8.8-1.5zM207.1 226l24.5.8-29.8-53.4-25.6-1.3z" fill="#ffc200"/><path d="M172.3 106l-.9 1.4 36 64.1 35.6 63.1.6-1.3-35.4-63.3z" fill="#8c8c8c"/><path fill="none" stroke="#000" d="M148.3 117l22.2 1.3M150.7 121.3l22.3 1.3M155.7 130.3l22.3 1.3M153.3 125.9l22.3 1.3M160.8 139.2l22.2 1.3M158.2 134.7l22.3 1.3M116.5 115.3l22.3 1.3M119 119.6l22.3 1.3M131.6 142l22.2 1.3M124 128.6l22.3 1.3M121.6 124.2l22.3 1.3M134 146.3l22.3 1.3M140.7 158.2l22.3 1.3M138.5 154.4l22.3 1.3M136.4 150.6l22.3 1.3M129.1 137.5l22.2 1.3M126.5 133l22.3 1.2"/><path fill="#b3b3b3" d="M111.2 111.5l3.3.1 28.7 50.9-1.8 2.8-30.2-53.8z"/><path d="M112.1 112h2.1l28.4 50.4-1.1 1.8-29.4-52.2m-1.7-1l.8 1.5 29.4 52.3.8 1.4.9-1.4 1.2-1.8.3-.5-.3-.5-28.4-50.4-.3-.5h-4.4z"/><path fill="none" stroke="#000" d="M196.8 203.2l22.2 1.3M189.2 189.8l22.3 1.3M186.8 185.5l22.3 1.3M199.2 207.5l22.3 1.3M205.3 219.5l22.9 1.2M202.9 215.6L226 217M201.6 211.8l22.3 1.3M194.2 198.8l22.3 1.3M191.7 194.2l22.3 1.3"/><path fill="#b3b3b3" d="M205.8 225.7l1.7-2.9 22.6 1 1.7 3-26-1.1z"/><path d="M207.8 223.3l22 1 1.1 1.9-24.2-1 1.1-1.9m-.5-1l-.3.5-1.2 1.9-.9 1.5h1.7l24.3 1h1.7l-.8-1.6-1.1-1.9-.3-.5h-.6l-21.9-1z"/><path fill="#fff" d="M181.7 132.3l-5.3-9.3 6 .2 5.3 9.4-6-.3z"/><path d="M177.3 123.5l4.8.2 4.7 8.4-4.8-.3-4.7-8.3m-1.7-1.1l.8 1.6 4.7 8.3.3.5h.5l4.9.3h1.8l-.9-1.5-4.7-8.4-.3-.5h-.5l-4.8-.2z"/><path fill="#fff" d="M230.3 218.7l-5.3-9.4 6 .3 5.3 9.4-6-.3z"/><path d="M225.9 209.9l4.8.2 4.7 8.3-4.8-.2-4.7-8.3m-1.8-1.1l.9 1.6 4.7 8.3.3.5h.5l4.8.2h1.9l-.9-1.6-4.7-8.3-.3-.5h-.5l-4.9-.2z"/><path d="M251.3 239.2l-.4-.2-76.8-136.5a.4.4 0 010-.5l3.6-7.5.4-.3h.1a.5.5 0 01.4.3L255.3 231a.6.6 0 01.1.4l-3.7 7.6-.4.2z" fill="#ccc"/><path d="M178.2 94.7l76.7 136.5-3.6 7.5-76.8-136.4 3.7-7.6m0-1h-.1c-.3.1-.7.3-.8.6l-3.7 7.5a.9.9 0 00.1.9l76.7 136.5a1.1 1.1 0 00.9.5 1.1 1.1 0 00.9-.5l3.6-7.5a1.2 1.2 0 000-1L179 94.2a.9.9 0 00-.8-.5z"/><path d="M95.1 98.7c-.2 0-.4-.1-.4-.3a.7.7 0 01-.1-.5l3.7-7.5a.4.4 0 01.4-.3l79.2 3.7a.5.5 0 01.4.3c0 .1.1.3 0 .4l-3.6 7.6-.5.2z" fill="#fff"/><path d="M98.7 90.6l79.1 3.7-3.6 7.5-79.1-3.6 3.6-7.6m0-1a1.1 1.1 0 00-.9.6l-3.6 7.5a1.2 1.2 0 000 1 1.4 1.4 0 00.8.5l79.2 3.6a1.1 1.1 0 00.9-.5l3.6-7.5a.9.9 0 000-1 1 1 0 00-.8-.5l-79.1-3.6zM112 111.4l24.2 1.2 29.5 52.5-24.2-1.2-29.5-52.5m-1.8-1.1l.9 1.6 29.5 52.4.3.5h.5l24.2 1.2h1.8l-.9-1.5-29.5-52.4-.2-.5h-.6l-24.2-1.2zM143.5 112.6l24.3 1.3 29.7 52.9-24.2-1.3-29.8-52.9m-1.8-1.1l.9 1.6 29.8 52.9.2.5h.6l24.2 1.3h1.9l-.9-1.5-29.8-53-.2-.4h-.6l-24.2-1.3zM145.5 171.1l9.7.2 19.8 52.3-29.5-52.5m-1.7-1l.9 1.5 29.5 52.4 1.8-.8-10-26.1-9.9-26.2-.2-.6h-.9l-9.4-.2zM177.2 172.6l24.2 1.2 29.5 52.5-24.2-1.2-29.5-52.5m-1.7-1l.9 1.5 29.5 52.5.2.5h.6l24.2 1.2h1.8l-.9-1.6-29.5-52.5-.3-.4h-.5l-24.2-1.2z"/><path d="M132.3 167.9l17-3.3-.4-5.3-17.5 3.4zM122.8 156.9a9 9 0 00.5 6.5l4.6-5.6-2.1-5.2a9.4 9.4 0 00-3 4.3zM193.9 154.1c-1.5 0-3.4-1.4-4.4-.6s-.6 2.2-.1 3.2 5 3 7.2 2.5c4.6-1 7.9-8.2 8.4-18l-3.2-5.5c-2.8 14.2-5.6 18.3-7.9 18.4z"/><path fill="#b3b3b3" d="M198.1 212.6l2.4-1.5 6.6 11.6-1.8 2.8-7.2-12.9z"/><path d="M200.3 211.8l6.2 10.9-1.2 1.8-6.6-11.7 1.6-1m.4-1.4l-.9.6-1.6 1-.8.5.5.8 6.6 11.7.8 1.5.9-1.4 1.1-1.9.4-.5-.3-.5-6.2-10.9-.5-.9z"/><path fill="#b3b3b3" d="M150.1 180l-5.7-10h3.5l5.6 10h-3.4z"/><path d="M145.3 170.5h2.3l5.1 9h-2.3l-5.1-9m-1.7-1l.8 1.5 5.1 9 .3.5h4.6l-.9-1.4-5-9-.3-.6h-4.6z"/><path fill="#b3b3b3" d="M159.5 142.2l-16.8-29.8h3.3l16.8 29.8h-3.3z"/><path d="M143.6 112.9h2.1l16.2 28.8h-2.1l-16.2-28.8m-1.7-1l.8 1.5 16.2 28.8.3.5h4.4l-.8-1.4-16.3-28.8-.2-.5h-4.4z"/><path d="M199.8 201.8a31.6 31.6 0 01-6.9 6.3 27.3 27.3 0 01-20.5 4.6 25.2 25.2 0 01-9.7-4.6l-8.1-11.9a15.9 15.9 0 01-4.8 3.7 14.4 14.4 0 01-8 1.4c-5.6-.9-11.2-10.1-10.9-22.8a7.8 7.8 0 003.7-.1c4.1-1.1 5.7-5.3 5.9-5.9s3.3 3.4 2.9 7.3a8.6 8.6 0 01-.8 2.7 20.4 20.4 0 013.5-4.2 24.1 24.1 0 017.8-4.5 26.3 26.3 0 004 3.4c3.5 2.6 5.6 4.2 7.8 4.1s6.2-4 7.8-8.9c3.4-.5 7.6-.4 11.2 1.9s4.7 5.3 5.2 5.1-.4-2.7-4.7-12.2a9.6 9.6 0 007.1.2 9.5 9.5 0 005.2-4.6 65.2 65.2 0 015.9 11.1c2.3 5.5 3.6 8.7 2.1 11.5s-4 3.6-5.6 4.3a17.2 17.2 0 01-5.7 1.4z" fill="#fff" stroke="#000"/><path d="M203.4 244.1l2.8 3.9a26.2 26.2 0 01-15.3 10.9c-.7.1-5.6 1.2-6.4-.4s4.5-6.2 5.4-6.9zM173 247.1a5.8 5.8 0 01.3 3.9c-.7 1.5-2.5 2.8-9.2 3.3-1.7.2-16 1.4-16.6-1.6-.2-1 1.3-2.9 9.1-6.3z"/><path d="M125.4 173.8c1.7 1.8 4.1.8 6 2.5a3.7 3.7 0 01.9 2.1 6.1 6.1 0 004.9-1.2 4.9 4.9 0 001.9-2.8l-.3-8.1c-4.4.5-9.6-.2-3.4-4 2.4-.2 3-.8 3.2-1.3s-2.2-4.3-5.3-4.4a5.6 5.6 0 00-4.1 1.6c-3.4-1.6-3.9 1.1-5.4 3.1a2.9 2.9 0 00-2.3.2c-1.6 1.1-1.5 4.6 0 6.7s1.1.7 2.1 1.9.8 2.6 1.8 3.7z" fill="#fff" stroke="#000"/><path d="M149.9 222.4c-2.5 6.4 1.3 13.5 4.1 18.6a47.8 47.8 0 004.7 7.1 25.9 25.9 0 007.1.4 30.8 30.8 0 007.5-1.5 67.5 67.5 0 00-3.6-10.3 51.6 51.6 0 00-4.1-7.5l9.4-1.8a28.2 28.2 0 001.2 8 29.2 29.2 0 0013.1 16.1 19.6 19.6 0 007.9-2.1 19 19 0 006.5-5.5 15.1 15.1 0 00-3.5-5.9c-3-3.1-6.1-3.5-6.3-5.6s1.4-2.5 3.2-4.9c3.1-4 3.5-8.4 4-12.5a32 32 0 00-1.3-12.8c-1 1.2-10.4 12.2-24.2 11a25.9 25.9 0 01-12.7-4.7c-4.2 3.7-7.5 6.9-9.9 9.3a13.6 13.6 0 00-3.1 4.6z" fill="#333" stroke="#000"/><path d="M194.4 191a14.2 14.2 0 01-6.1.8 15.8 15.8 0 01-5.4-1.3M129.3 158.2s-2 7.7.7 6.9l2.7-.8M123.9 161.4s-.1 4.7 1.1 5.7-.9 3.1-.9 3.1" fill="none" stroke="#000"/><path d="M133.7 173.6s-1.3.9-2.9-3.9c0 0-4.5 1.7-4.7-.2s-.6-3.5 3.9-4.4M196.8 163.3l-.7-4.4" fill="none" stroke="#000"/><path d="M175 227.3s.3-10.8 1.8-10.8" fill="none" stroke="#000" stroke-linejoin="round"/><path d="M172.7 172.7a21.8 21.8 0 005.4-9.2c12.4-8-9.4-19.2-14-25.9-26.1 9.7-14.4 55.3 8.6 35.1z" fill="#fff"/><path d="M163.3 150.1l.2-1.8 4.8.8zM156 151.6l-.8-1.2-3.1 2.2zM155.9 157.5c.5 2.6-1.6 2.8-2 .2s1.5-2.7 2-.2zM167.2 155.9c.3 2.6 2.3 2.2 2-.3s-2.2-2.3-2 .3zM178.9 161.2a2.8 2.8 0 001.3-2.9h-1c.1.6-.3 2.4-1.9 2.4l.7.9z"/><path d="M146.2 146.1a13.2 13.2 0 004.2 4.5c-1.9 8.6-7.2-1.8-4.2-4.5z" fill="#b3b3b3"/><path d="M152.8 163.6c4.6 1.3 8-5.9 6.5-8.5l3.1-.3c2.4 9.2 11.2 9.8 11.1.6 3.8-.2 3.9 5.2 6.8 4.2-4.8-6.1-12.1-12.8-17.7-6.4l-4 .5c-2.9-1.8-6.3-1.6-8 .2s-1 8.8 2.2 9.7zm11.6-10.2c5.9-5.1 11.4 4.5 4.9 7.7-2.4.4-6.4-5.4-4.9-7.7zm-7.2 1.1c2.8 2.8-.3 8.4-4.1 7.6-5.6-2-1.3-11.7 4.1-7.6z"/><path d="M163.8 164.1l-4.1-.2 1.7-4.1-.3-1.7-2.6 6.1c.5 1 4.7 1 5.3-.1z"/><path d="M160.7 178.4c6.8 1.2 15-4.5 17.8-14.5a5.9 5.9 0 002.9-8.9c-2.9-10.5-10.2-18-17.3-17.9-9.9.2-17.4 15.8-14.8 27.5.2.9 2.9 12.4 11.4 13.8zm-11-14.5c-3-11.3 7.7-25.9 17.1-25.2s17.5 16.2 13.8 22.3a6.5 6.5 0 01-3 2.5c-.9 3.6-6.5 14.3-15.4 14.2-7.1-.5-11.2-9.1-12.5-13.8z"/><path d="M172.6 150.1l-1-2.5-1 1.8c-4.1-12-12.1 3.7-19.3 1.6-2.4 10.3-10.5-2.4-5.3-6 7.9-20.2 39.2-11 35.4 10.1-1.1-1.8-6-4.8-8.8-5zm-25.7-4.9c7.2 15 17.2-10.2 23.7 2l1.1-2 1.3 3.3c2.1 0 6.8 3.1 7.6 4.8a18.1 18.1 0 00-4.3-12.4 17.7 17.7 0 00-29.4 4.3zm-.7.9c-3 2.7 2.3 13.1 4.2 4.5a13.2 13.2 0 01-4.2-4.5z"/><path d="M146.9 145.2c8.4-17.6 34.2-11.2 33.7 8.1-.8-1.7-5.5-4.8-7.6-4.8l-1.3-3.3-1.1 2c-6.5-12.2-16.5 13-23.7-2z" fill="#b3b3b3"/><path d="M154.9 196.4c.1.3-3.1-6.5-3.6-9.2" fill="none" stroke="#000"/><path d="M191.5 156.3a7.9 7.9 0 004.6 2.9l.8 3.8c-2.4 3.3-8 7.4-11.4 2.7a11.2 11.2 0 01-3.9-1.2 7.5 7.5 0 01-3.3-2.7 4.6 4.6 0 01-.9-3.1 4.8 4.8 0 012.2-3.5 6.8 6.8 0 010-5.4 5.2 5.2 0 012.5-2.5c1.3-.6 2.4-.4 7.2 1.1s6.3 2.1 6.4 2.9a2.9 2.9 0 01-2.1 3.1c-1.4.3-2.6-1.1-3-.7s.2 1.6.9 2.6z" fill="#fff" stroke="#000"/><path d="M179.8 155.1c2.2-1.4 4.6-1.4 5.9-.2s1.4 2.3.8 3.1-4.7.2-4.7.4 4 .2 5.2 2.4a2.4 2.4 0 01.3 1.3" fill="none" stroke="#000"/><path d="M190.5 153.9a10.2 10.2 0 00.7 2.8c.6 1.6 1.4 2.1 1.1 2.5s-3.5.5-5-1.1-1.1-5.8 1.6-9.6M182.8 154.3s-1.2-2.4 2.9-6.8" fill="none" stroke="#000"/><path d="M156.3 167.9c3.2 1.5 8.6 1.1 11.5-.9l.9 1.4c-.4.5-2.7 3.7-6.5 3.8-2.3.2-6.6-1.2-5.9-4.3zm11.1-.1a12 12 0 01-10.7 1.2c1.1 3.8 9.5 2.6 11-.6z"/></svg>