<svg id="funri" xmlns="http://www.w3.org/2000/svg" width="76" height="650.5" viewBox="0 0 76 650.5"><path d="M64 565l1 81-4 4-11-15v-15l-7-4c1-6-3-30 6-29V433l-7-3v-3l-15-6c1-7-10-12-9-4l-6-3-9-10-2-209 8-12 9-4 29 11V52l-9-5c0-7-3-22 5-28l3 1V4l5-3 9 13 1 70m2 295l2 176m-3-266l1 52M61 94l2 162" fill="#fff" stroke="#333"/><path fill="#fff" stroke="#333" d="M49 587v12l1 2v19m1-10l-8-4m8 6l-8-4m4-17c-3 9-5 5 4 10m-2-5l-2-1m14 11l-3 2v8l3 1 1-2v-7l-1-2z"/><path fill="#fff" stroke="#333" d="M62 608l-2 2v7m1-22c-2-2-6 7-4 8s6-7 4-8zm9-38l-7-3s-6 3-4 9l7 3"/><path d="M67 561c-1 4 0 8 2 8 5 2 9-12 4-13-3-1-5 2-6 5zm-10-7s3-7 4-5v-19s-4 1-4 4v20s-3 9 0 15l1 18c6-2 3-16 3-21 0 0-2 3-4 3m-4 71L49 2m11 456c-3-1-6 9-4 10s7-9 4-10zm1-56c-4-2-9 10-5 11s8-9 5-11zm-1-63l12 5v33l-3 3-13-5v-32l4-4z" fill="#fff" stroke="#333"/><path fill="#fff" stroke="#333" d="M72 344l-4 4-12-5m12 5v32m-8-125l11 5v27c1 1 0 2-4 0s-6 3-6 3h-8v-27l2-2 5 2v2l8-1v-3l-10-5z"/><path fill="#fff" stroke="#333" d="M58 257v3h-3m4 0l10 4m-10 28c-3-1-5 8-3 9s5-8 3-9zm-1-94c-2-2-5 7-3 7s6-7 3-7zm4 226c-3-2-7 5-4 7s7-5 4-7zm-17-42l-14-6m11 41l4 2v5m-8-20v8c-4 3-3-8-3-9a2 2 0 013 1zm-7-12s8-9-10-18c0 0-15-4-4 12v15s3 8 12 6v-13z"/><path d="M29 407s-7 7-13-4v-15s-9-9-3-12m12 1s-1 17 4 18m14-42l-32-13s-1-5 1-4l29 11s3 1 2 6zm0 5l-32-13s-1 4 2 6l26 11s5 3 4-4zm-31-34c-5-4-9 1-4 4s8-1 4-4zm0 28c-5-3-8 3-3 6s8-3 3-6zm12-33c-3-3-7 0-3 3s6 0 3-3zm22-29l2 1 1 21-3-1 1-2c0-1 1-19-1-19zm-12 16a6 6 0 01-3 4l2 2s4-1 4-4zm-1-12l-2 1 3 6v-5zm-14-18c-5-3-8 3-4 6s9-3 4-6zm7 17c-11-9-21 2-10 11s20-2 10-11z" fill="#fff" stroke="#333"/><path d="M25 294c-8-7-16 2-7 9s15-1 7-9z" fill="#fff" stroke="#333"/><path d="M23 293l-6 7s7-1 11 4m1-95l-1 53c8 8-21-4-13-6l-1-52s-3-4 1-2 18 6 14 7zm0 1l-14-5" fill="#fff" stroke="#333"/><path d="M28 244l-2-1s-8 14-11 13l13 5" fill="#fff" stroke="#333"/><path fill="#fff" stroke="#333" d="M26 209v25l-3 3 3 2v5"/><path fill="#fff" stroke="#333" d="M23 237l-3 4-1-1v5l1 1 6-7m22-43v7l-3-1 2-6m-2 6s-2 0-2 4l-3-1m0 5l4 1v4m1-25s-4 4-4 8m1-2l-28-11m-3 10c-5-2-9 4-4 7s8-4 4-7zm47-35c-3-1-6 9-3 9s5-9 3-9zm6-70c-2 3-1 7 2 8 5 2 9-12 4-14-3 0-6 3-6 6z"/><path d="M66 85l-7-2s-5 3-3 9l7 2" fill="#fff" stroke="#333"/><path d="M53 82s3-7 4-5V58s-3 2-4 5v19s-3 10 0 16c0 0 0 18 1 17 6-2 3-16 3-20 0 0-1 3-4 3m4-67l-1-1-3 2v7l2 1 2-2v-7z" fill="#fff" stroke="#333"/><path fill="#fff" stroke="#333" d="M58 31l-3 2v7m-9 2l-8-4m5-15c-3 9-5 5 4 10v11l-8-4m6-12l-2-2m3 18v7m0-31v13M8 197v1l-1 1h1v2l1-1h1v-1l1-1H9l-1-1zm0 127l1 2-1 1h1l1 1v-2h1l-1-1v-1l-1 1-1-1zm1 31l1 1v1l1-1h1l-1-1 1-1h-1l-1-1v1l-1 1zm48 70l1 1-1 1h1l1 1v-1l2-1-2-1v-1l-1 1h-1zM15 278h0v1h1v1-1h1v-2l-1 1h-1zm41 19h1l1 1v-1h1l-1-1v-1 1l-1-1v1l-1 1zm0-95h0v1l1-1 1 1v-2h-1 0l-1 1zM69 88c-2 0-4 4-3 5s5-4 3-5zM57 42c-3-2-6 8-3 9s6-8 3-9zM18 179l-8 12m47 272l1 1-1 1 1-1 1 1v-2h1l-1-1-1-1v2h-1zm5-57l-3 1 1 3h-3l-2 2m4 186v2h1v-1l1-1h-1v-1l-1 1h0zm-4-434v2h2v-2h0l-1-1v1h-1z"/><path d="M55 46v2-1l1 1a4 4 0 010-3h0v-1 2zm17 514c-2-1-4 4-2 5s4-4 2-5z" fill="#fff" stroke="#333"/></svg>