<svg xmlns="http://www.w3.org/2000/svg" width="692" height="265"><path d="M508 166l-15.6-2 .4-96.6 14.5 9.5zM483.9 161.8l-21.6-2.7.4-108.6 20.6 11.8.6 99.5zM293.8 115.9l-46.5 7.1V86.5l46.5-9.6zM360.8 165.6l-57.1 2.9.1-48.1 56.9-8.4zM444 93.4l-72.7 11-.4-44.4 73-15.7.1 49.1zM294.2 169l-46.5 2.5-.1-43.1 46.5-6.3.1 46.9zM360.8 105.8l-57.1 8.8V74.1l57-12.2.1 43.9zM444.3 161.4l-73 3.6v-54.1l73-11.5v62z" fill="url(#linear-gradient1)"/><path d="M453.9.9l35.4 24.2c11.8 8.1 23.6 16.1 35.3 24.3L559.7 74c11.7 8.2 23.5 16.2 35.3 24.3l.1.3v8.1a.3.3 0 01-.3.3h-.1l-35.4-23.5-35.2-23.6-35.2-23.8-35.1-23.9h.1l35.4 23.4 35.3 23.5 35.3 23.7 35.1 23.6-.5.3v-7.9l-35.2-24.5-35.2-24.2-35.2-24.4L453.8 1h.1zM517.9 71.5c5.1 2.7 10.1 5.6 14.9 8.7l7.3 4.6c2.4 1.6 4.9 3 7.4 4.4 5 2.8 10 5.8 14.9 8.7l14.5 9.4h-.1c-5-2.7-10-5.6-15-8.5l-14.6-9.2-7.3-4.6-7.5-4.2c-5-3-9.8-6-14.6-9.3h.1zM567.9 108.1a7.7 7.7 0 01.3 3l-.2 1.5a7.6 7.6 0 00.1 1.5 15.3 15.3 0 01.3 3 15.7 15.7 0 01-.5 3h-.1a10.5 10.5 0 01-.5-3 15.3 15.3 0 01.3-3l.1-1.5-.3-1.5a6.3 6.3 0 01.4-3h.1z" fill="#333"/><path fill="none" stroke="#333" d="M461.8 45.5v113.3l26 4V60.5l-26-15z"/><path fill="none" stroke="#333" d="M461.5 50.8L482.8 63v99.1M483.2 63l5.1-3.1M492.5 164.1c6.8.7 13.6 1.9 20.3 2.6V74.2L492.5 62z"/><path fill="none" stroke="#333" d="M492.6 66.7l15.2 9.9v89.5M507.8 76.6l4.8-2.4M444.6 37.8L241.8 82.6v89.6l203-10.6-.2-123.8zM246.8 128.1v44"/><path fill="none" stroke="#333" d="M241.1 82.6l5.7 3.5v37M247.2 86.1l47.4-9.8M294.8 71.1v98M302.8 120.1v49M298.8 169.1V69.9l5 3.8v41.4M360.8 56.1v110M303.2 73.7L361 61.3M370.8 111.1v54M366.8 165.1v-110l4 4.5v45.5M370.7 59.6l73.4-15.9"/><path d="M171.8 223.1a77.8 77.8 0 01-.5-9.7l.2-4.8.1-4.8-.3-4.9-.1-4.8c-.1-3.3 0-6.5.1-9.7l.2.3-3.7-2h.1l3.9 1.5a.2.2 0 01.2.2c.1 3.2.3 6.4.2 9.7l-.1 4.8-.2 4.9a76.9 76.9 0 00.3 9.6 78 78 0 01-.3 9.7h-.1zM692 237.5c-10.1-.4-20.2-.9-30.3-1.7l-15.1-1.2c-5.1-.4-10.1-.7-15.2-.9l-30.3-1.8-30.2-2.4s-.1-.1 0-.1q15.1.4 30.3 1.5c10.1.6 20.2 1.4 30.3 2.2 5 .5 10 .9 15.1 1.1l15.2.8c10 .6 20.1 1.4 30.2 2.4zM144.3 202.2a9.2 9.2 0 01-3.2 1.4 4 4 0 01-3.5-.9 15 15 0 01-2.4-2.7 13.1 13.1 0 00-2.3-2.4h.1a4.7 4.7 0 00-3.5-.1 6.3 6.3 0 00-3.1 1.9 7.3 7.3 0 00-1.9 3.3 4.6 4.6 0 00.5 3.6.4.4 0 01-.1.3h-.2a10.9 10.9 0 00-2.6.5 3 3 0 00-1.8 1.5 5.2 5.2 0 00-.2 2.5 25.6 25.6 0 00.5 2.7 23.3 23.3 0 01.5 2.8 4.8 4.8 0 01-.6 3 4 4 0 01-2.8 1.4 8.8 8.8 0 01-2.8 0v-.8a7.4 7.4 0 013.5 2.3 4.1 4.1 0 01.8 1.9 1.1 1.1 0 01.1.5.4.4 0 01-.1.3h-.2a.8.8 0 00-.8.3h-.1a.9.9 0 01.9-.5h.1v-.6a5.6 5.6 0 00-.9-1.7 7.2 7.2 0 00-3.3-1.8c-.2-.1-.4-.3-.3-.5s.2-.3.4-.3a12.2 12.2 0 002.7-.1 3.3 3.3 0 002-1.1 3.5 3.5 0 00.4-2.3 12.6 12.6 0 00-.4-2.7 23.3 23.3 0 01-.5-2.8 7.3 7.3 0 01.4-2.9 3.5 3.5 0 012.4-1.9 8.9 8.9 0 012.8-.3l-.2.4a5.3 5.3 0 01-.3-3.9 7.7 7.7 0 011.9-3.4 8.2 8.2 0 013.2-2.3 5 5 0 014-.1h.1a12.3 12.3 0 012.5 2.6 13.8 13.8 0 002.2 2.6 3.1 3.1 0 002.9 1 9.2 9.2 0 003.2-1h.1zM288 35a9.7 9.7 0 00.5-3.7v-1.5a.7.7 0 01-.1-.5l-.4-.9-.6-.8a10.5 10.5 0 00-2.9-2.3 10.8 10.8 0 00-3.6-1.1h-.1a5.6 5.6 0 014.2.2 7 7 0 012.9 3l.2.5.2.5a3.6 3.6 0 00.4.9l.3 1a1.7 1.7 0 01.3 1 4.3 4.3 0 01-1.2 3.9h-.1zM661.2 190.4a5.8 5.8 0 011.2-1l.8-.2a.9.9 0 01.7.6 2.7 2.7 0 01.3 1.5v1.6l.1 3a3.8 3.8 0 001 2.4l-.6.2a6 6 0 011.6-2.5 13.4 13.4 0 012.1-2c1.4-1.2 3-2.3 4.5-3.4h.3l4.1 3.1a33.3 33.3 0 013.9 3.6 7.6 7.6 0 011.9 5 7.2 7.2 0 01-2.6 4.7v-.5a4.5 4.5 0 002.1 2l1.4.5a1.7 1.7 0 001.2.1.6.6 0 01.7.2 18 18 0 012.5 5 46.1 46.1 0 011.5 5.3 50.2 50.2 0 01.8 5.4 20.3 20.3 0 01-.1 5.5h-.1a24.6 24.6 0 00-.4-5.4 42 42 0 00-2.7-10.5 20.8 20.8 0 00-2.4-4.7l.7.2a3.3 3.3 0 01-2-.1l-1.6-.7a6.1 6.1 0 01-1.4-1 3.6 3.6 0 01-1-1.4.4.4 0 01.1-.5 7 7 0 002.5-4.2 6.3 6.3 0 00-1.6-4.6 18.1 18.1 0 00-3.7-3.6 40.2 40.2 0 00-4.2-3h.3l-2.2 1.8-2.1 1.8-2 2a5.5 5.5 0 00-1.4 2.1.5.5 0 01-.6.2h-.1a3.6 3.6 0 01-1-1.5l-.3-1.6.1-3a7.5 7.5 0 00-.1-3 .3.3 0 00-.3-.3.9.9 0 00-.7.1l-1.2.8h-.1zM655.7 226.8a16.7 16.7 0 01-3.1-7.2 17 17 0 01.1-3.9c.2-1.3.6-2.6.9-3.8a12 12 0 00.4-3.7 7 7 0 00-1.2-3.4 21 21 0 00-5.5-5.2h.4a2.8 2.8 0 01-1.3.4 1.7 1.7 0 01-1.2-.8 7.9 7.9 0 01-.5-2.5v-2.3a17.6 17.6 0 000-2.3 8.6 8.6 0 00-2.6-3.6 8.9 8.9 0 00-4.1-1.8c-1.5-.3-3.1-.4-4.6-.6a9.9 9.9 0 01-4.4-1.4h-.1a5.3 5.3 0 00-2.5-1.7 6.1 6.1 0 00-3-.3c-1.1 0-2.1.2-3.2.3a9.8 9.8 0 01-3.4-.2l.5-.2a11.8 11.8 0 01-2.9 3 6.8 6.8 0 01-4.1 1.4l.5-.4a13.1 13.1 0 01-3.1 5.2c-1.3 1.5-2.8 2.7-4 4.2a10.5 10.5 0 00-2.7 4.8 13.2 13.2 0 000 5.6c.1.2 0 .3-.1.4a9.5 9.5 0 00-2.4 2 1.6 1.6 0 00-.4 1.3 2.1 2.1 0 00.7 1.3c.6.8 1.5 1.7 1.5 2.9a4.9 4.9 0 01-1.3 2.9h-.1a4.8 4.8 0 001.1-2.9c0-1.1-.9-1.8-1.6-2.6a3.8 3.8 0 01-.9-1.5 2.7 2.7 0 01.5-1.8 10.4 10.4 0 012.5-2.2l-.2.4a15.2 15.2 0 01-.2-6 11.8 11.8 0 012.8-5.3l4-4.2a13.2 13.2 0 002.9-4.8.5.5 0 01.5-.3 6.7 6.7 0 003.6-1.2 13.8 13.8 0 002.7-2.7.4.4 0 01.5-.2 7.5 7.5 0 003 .2l3.3-.2a7.5 7.5 0 013.3.4 6.2 6.2 0 012.7 2.1h-.1a10.1 10.1 0 004.2 1.5l4.5.7a8.8 8.8 0 017.1 5.6 19.3 19.3 0 01.1 2.4 17.7 17.7 0 00.1 2.3 6.5 6.5 0 00.5 2.1c.2.3.4.5.6.5a3.2 3.2 0 00.9-.3h.4l3.2 2.3a15.6 15.6 0 012.7 3 8.2 8.2 0 011.3 3.8 10.8 10.8 0 01-.6 4l-.9 3.7a15.9 15.9 0 00-.2 3.8 16.3 16.3 0 00.8 3.7 22.1 22.1 0 001.8 3.4h-.1z" fill="#333"/><path d="M662.6 189.4a9.1 9.1 0 01-3 1.3h-.8c-.3-.1-.6-.1-.8-.3a2.3 2.3 0 01-1.1-1.3 16.3 16.3 0 01-1.1-3.1 12.5 12.5 0 00-1.1-2.9h.5a8.2 8.2 0 01-1.2 2 2.3 2.3 0 01-1 .7 1.7 1.7 0 01-1.4.1 3.4 3.4 0 01-1.8-1.5 10.6 10.6 0 01-1.1-2.1 18.2 18.2 0 01-1-4.5 11.9 11.9 0 01.2-4.6l.5.5a13.1 13.1 0 01-3.9.5 3.2 3.2 0 01-2.1-.6 4.3 4.3 0 01-1.4-1.6 18.3 18.3 0 01-.9-3.9 25.6 25.6 0 01-.3-3.9l.2.3a2.2 2.2 0 00-1.9.4 11.3 11.3 0 00-2 1.3c-.2 0-.5.2-.8 0a.6.6 0 01-.5-.6 6.2 6.2 0 01-.1-1.3l.1-2.3.4.2a8.7 8.7 0 01-2.5 1.5h-.7a.8.8 0 01-.7-.4 2.5 2.5 0 01-.6-1.3c-.1-.5-.2-1-.5-1.2s-.7.2-1 .5a18 18 0 00-1.9 2h-.2a2.8 2.8 0 01-1.5-.8 3.1 3.1 0 01-1-1.5 32.3 32.3 0 01-.6-3.3 11.4 11.4 0 00-.7-3.2 2.7 2.7 0 00-.9-1.2 2.4 2.4 0 00-1.4-.5h.1a4 4 0 01-2.8.6 23 23 0 01-2.8-.6 34.5 34.5 0 00-5.2-1.6 3.2 3.2 0 00-2.4.5 3.2 3.2 0 00-1 2.2 24.6 24.6 0 00.2 5.4.4.4 0 01-.3.5h-.2l-2.7-.5h-1.2c-.4.1-.7.2-.8.4a2 2 0 000 1.1 6.1 6.1 0 01.2 1.5 4.7 4.7 0 01-.3.9c-.2.2-.5.5-.8.5a4.7 4.7 0 01-1.6.2l.6-.5.4 2.7a13.8 13.8 0 01.1 2.9 2.5 2.5 0 01-.1.8l-.3.4-.4.4a1.4 1.4 0 01-1.1 0l-.7-.3c-.8-.4-1.6-.7-2.1-.4a3 3 0 00-1 2 25.1 25.1 0 00-.4 2.7l-.2 1.4v.7a.8.8 0 01-.1.4.3.3 0 00-.1.2h-.7a.1.1 0 01-.1-.1h-.2v-.4a.1.1 0 00.2 0l-.2.3-.6 1.1v-.4l.9 2.7a24.5 24.5 0 01.8 2.9 4.2 4.2 0 01.1 1.6 2.8 2.8 0 01-1 1.4 8.2 8.2 0 01-3 .7l.4-.4a9.9 9.9 0 01-.3 2.9 1.4 1.4 0 01-.5.8.9.9 0 01-1 0 6 6 0 01-1.3-.9l-1.9-2.1a5.4 5.4 0 00-2.2-1.6h-2.1a1.4 1.4 0 01-.7-.6 3.8 3.8 0 010-1.5c0-.5 0-1.1-.3-1.2a3.4 3.4 0 00-1.2.4l-1.3.7-2.4 1.6 2.3-1.7 1.2-.8a2.6 2.6 0 011.5-.4.7.7 0 01.5.7 2.2 2.2 0 01.1.8 2 2 0 00.1 1.3c.1.4.5.4.9.4l.7-.2h.8a5.6 5.6 0 012.5 1.7l2 2a2.4 2.4 0 001 .8c.2.1.3.1.4 0l.2-.4a8 8 0 00.2-2.7.4.4 0 01.4-.4 6.6 6.6 0 002.5-.6c.7-.4.7-1.3.5-2.2a27.6 27.6 0 00-.8-2.7l-1-2.7a.8.8 0 01.1-.4 7.5 7.5 0 01.7-1.2l.3-.4.6-.3a.8.8 0 01.7.4l.2.4h-.7v-.9l.2-1.4a26.6 26.6 0 01.3-2.8l.5-1.4a2.3 2.3 0 011.1-1.3 2.5 2.5 0 011.7-.2l1.4.6c.3.1.8.3.9.2s.2-.3.2-.7a33.9 33.9 0 00-.5-5.4c-.1-.2.1-.5.4-.6h1.2c.3-.1.4-.2.5-.6s-.1-.8-.1-1.3a2.9 2.9 0 010-1.6 2.3 2.3 0 01.7-.7l.8-.2a3.8 3.8 0 011.5 0l2.8.5-.5.5a17.5 17.5 0 01-.2-5.6 4.6 4.6 0 011.3-2.7 3.6 3.6 0 013-.5 41 41 0 015.3 1.6 14.5 14.5 0 002.6.7 4 4 0 002.6-.5h.1a3.6 3.6 0 011.7.7 3.6 3.6 0 011 1.4 19.4 19.4 0 01.7 3.3 16.4 16.4 0 00.5 3.2 4.2 4.2 0 00.9 1.4 2.1 2.1 0 001.4.7h-.3a12.6 12.6 0 012-2l.6-.5a1.1 1.1 0 01.8-.1 1.5 1.5 0 01.5.7 6.4 6.4 0 01.2.7 4.2 4.2 0 00.4 1.2 1.1 1.1 0 001.1.2 7 7 0 002.3-1.5c.1-.1.3 0 .4.1l-.1 2.3a3.6 3.6 0 00.2 1.1c.1.4.1.3.4.2l1.9-1.3a3.1 3.1 0 012.5-.5l.3.3.4 3.9a14.6 14.6 0 00.9 3.6 3.5 3.5 0 001.1 1.3 2.7 2.7 0 001.6.4 23.3 23.3 0 003.7-.4.3.3 0 01.5.3c.1.1.1.2 0 .2a15.5 15.5 0 00-.2 4.3 15.7 15.7 0 00.9 4.3 12.4 12.4 0 001 2 4.3 4.3 0 001.4 1.3 1.8 1.8 0 001.7-.7 6.6 6.6 0 001.2-1.7.4.4 0 01.4-.2l.1.2a8.9 8.9 0 011.1 3.1c.3 1 .5 2.1.9 3.1a5.4 5.4 0 00.9 1.2l.7.2h.8a11.1 11.1 0 003-1.2v.3z" fill="#333"/><path fill="none" stroke="#333" d="M247.7 123.5l47-7.2M247.7 128l46.7-6.4M303.5 115.2l57.9-9M303.7 119.9l57.3-8.4M371.2 104.9l73.3-11.1M371 110.5l73.1-11.4"/><path d="M30.3 216.8c2.2.6 4.2-.4 6.2-1.2l6-2.6a19.7 19.7 0 013.2-1 8.6 8.6 0 011.7-.3 5.9 5.9 0 011.7.4 4.6 4.6 0 012.2 2.7 13 13 0 01.7 3.3l-.7-.4 1.4-.6a3.8 3.8 0 011.6-.3 1.2 1.2 0 01.9.3 1.3 1.3 0 01.6.9 4.2 4.2 0 01-.1 1.6l-.5 2.8a3.6 3.6 0 00.6 2.7h-.1a4.1 4.1 0 01-1.1-2.8 26.4 26.4 0 01.2-2.9 2.8 2.8 0 000-1.3.4.4 0 00-.1-.3h-.4a15.3 15.3 0 00-2.6.8.5.5 0 01-.7-.2v-.2a10.7 10.7 0 00-.6-3.1 4.1 4.1 0 00-1.6-2.4 3.9 3.9 0 00-3-.4 11.5 11.5 0 00-3.1 1.1 65.4 65.4 0 01-5.9 3 17 17 0 01-3.2 1 5.4 5.4 0 01-3.3-.5z" fill="#333"/><path d="M8.1 219.5l1.5.2 1.4.2 1.4.7a3.8 3.8 0 01.9 1.3l-.3-.2a4.7 4.7 0 001.7-.9l1.8-1.2a3 3 0 012.3-.2 4.5 4.5 0 011.9 1.4h-.8a5.2 5.2 0 012.4-2.7 4.7 4.7 0 013.5 0l1.7.4a1.6 1.6 0 001.5-.1 2.1 2.1 0 00.7-1.3 5 5 0 00.2-1.7l.2-.2a2 2 0 001.5-.6 8.1 8.1 0 001.2-1.4 4.3 4.3 0 011.3-1.4 2.7 2.7 0 012-.2h.1a4.2 4.2 0 001.3.7 1 1 0 001-.6v.6l-1.3-1.3a2.8 2.8 0 01-.6-1.8 3.2 3.2 0 01.7-1.9 4.9 4.9 0 011.3-1.2 25.1 25.1 0 016.1-3.1h.5l3 2.2 1.5 1.3a5.2 5.2 0 011.2 1.6l-.5-.2a1.4 1.4 0 00.8-1.2 5 5 0 00.2-1.8l.1-.9a1.3 1.3 0 01.6-.9 1.6 1.6 0 011 .2l.7.6-.8-.4a1.2 1.2 0 00-.8-.1.8.8 0 00-.3.7v.9a10.9 10.9 0 01-.1 1.8 2.3 2.3 0 01-1.1 1.8.4.4 0 01-.5-.2 3.3 3.3 0 00-1.1-1.3l-1.4-1.2c-1-.7-2.1-1.3-3.1-2.1h.5a29.7 29.7 0 00-5.9 3c-.8.6-1.7 1.4-1.7 2.3a3.5 3.5 0 001.5 2.4h.1a.6.6 0 010 .6l-.7.7a2 2 0 01-1.1.2 3.7 3.7 0 01-1.6-1h.1a1.6 1.6 0 00-1.5.1 3.7 3.7 0 00-1.3 1.2l-1.2 1.4a3 3 0 01-1.8.6v-.2a4.7 4.7 0 01-.2 1.7 2.5 2.5 0 01-.8 1.6 3 3 0 01-1.8.3l-1.7-.4a5.4 5.4 0 00-3.1.1 5.4 5.4 0 00-1.9 2.5c0 .2-.3.3-.5.2a4.2 4.2 0 00-1.5-1.2 1.8 1.8 0 00-1.6.2 8.7 8.7 0 00-1.8 1.1 7 7 0 01-2 .8c-.2.1-.3 0-.4-.2a1.9 1.9 0 00-.7-.8 4.1 4.1 0 00-1.1-.7l-2.8-.7c0-.1-.1-.1 0-.1z" fill="#333"/><path d="M40.1 205.5c.2.2.3-.1.4-.3a2.2 2.2 0 00-.1-.8 2.6 2.6 0 00-.8-1.3 5.5 5.5 0 00-2.6-1.4 15.5 15.5 0 00-3.1-.3h-1.2l-.4-.2-.3-.2-.7-1.6a6.9 6.9 0 00-.5-1.3.8.8 0 00-.2-.5h-.1a10.5 10.5 0 00-.8 1.1 2.7 2.7 0 01-1.1 1h-.2a6.2 6.2 0 01-1.6-2 2.9 2.9 0 010-1.3l.4-1.1-.4-.2H25l-2.4.3c-.2.1-.3 0-.3-.1h-.1a5.2 5.2 0 01-1.3-2.3 2.3 2.3 0 01.1-1.4 1.6 1.6 0 01.4-.7l.2-.2v.2s-.1 0 0 .1l.1.2h-2.1l-2.5.3a.6.6 0 01-.6-.5 7.1 7.1 0 00-.1-1.5h.2l-.8.4h-1l-.9-.4a7.4 7.4 0 01-1.2-1.3l.3.2-3.5-.5-1.8-.4a3.6 3.6 0 01-1.7-.7 13.5 13.5 0 003.5.6 21.7 21.7 0 013.6.2h.3l1 1a1.3 1.3 0 001.1.3l.6-.4h.2a.6.6 0 01.7 0c.4.3.3.5.4.7a10 10 0 01.2 1.6l-.6-.5 2.4-.2h3a1.3 1.3 0 01.1.5v.4l-.2.2-.3.4a1.7 1.7 0 000 1 4.4 4.4 0 001 1.9h4.4c.2.1.3.2.3.4l-.1.7-.3.6a2 2 0 000 1.1 4.6 4.6 0 001.6 1.8h-.2a2.7 2.7 0 00.8-1 6.3 6.3 0 00.7-1.2l.4-.3a.6.6 0 01.6.2 1.3 1.3 0 01.5.6l.6 1.3.7 1.4h1.1a9.5 9.5 0 013.3.5 5.9 5.9 0 012.9 1.8 3.9 3.9 0 01.6 1.5 1.4 1.4 0 010 .9l-.2.4h-.3l-.2-.2h.1zM108.6 225.9a2.3 2.3 0 01-.9-1.9c.2-.8.9-1.2 1.4-1.6s.4-.4.4-.6l-.3-.7-1.6-1.1c-.2-.1-.2-.2-.2-.4a5.4 5.4 0 00.3-3.3 7 7 0 00-1.9-2.7l-2.7-2.4a8.3 8.3 0 01-2-3.1l.2.2a7.6 7.6 0 01-4.9-2.9h.2a9.7 9.7 0 01-2.4-.1l-2.4-.3a5.9 5.9 0 00-2.3.1 3.4 3.4 0 00-2 .9h-.1a4.8 4.8 0 01-2.9.2l-2.6-.8a5 5 0 00-2.4-.2 2.8 2.8 0 00-1.8 1.4h.1l-.2 1.3a7.1 7.1 0 01-.1 1.4 3.3 3.3 0 01-.9 1.6 1.8 1.8 0 01-1 .2l-.9-.3h.5a18.8 18.8 0 00-4 2.1 3.6 3.6 0 00-1.3 1.7 3.4 3.4 0 000 2 11 11 0 01.4 4.8 7.4 7.4 0 01-2.7 3.8 9.3 9.3 0 002.2-4c.3-1.4-.3-2.9-.7-4.4a4.3 4.3 0 010-2.5 3.6 3.6 0 011.5-2.1 15.8 15.8 0 014.2-2.4h.4c.4.1.7.2.8.1l.4-.9a5.9 5.9 0 00.2-1.3 8.9 8.9 0 01.2-1.5h.1a4.2 4.2 0 012.4-1.9 5.7 5.7 0 012.9.4l2.5.8a3.6 3.6 0 002.5 0h-.1a5 5 0 012.3-.9 6.5 6.5 0 012.4.1l2.4.3a9.1 9.1 0 002.3.1h.2a7.2 7.2 0 002.1 1.8 5.9 5.9 0 002.6.7.2.2 0 01.2.2 6.2 6.2 0 002.1 2.7l2.7 2.4a6.9 6.9 0 012.1 3.1 6.2 6.2 0 01-.4 3.8v-.5l1.6 1.3a1.9 1.9 0 01.5 1.2c-.1.5-.5.7-.7.9s-1.2.7-1.4 1.3.3 1.2.7 1.7h-.1z" fill="#333"/><path d="M120 208.3l-1.9-2.1c-.7-.6-1.6-1.1-2.2-.6s-1.2 1.4-2 2a6.1 6.1 0 01-2.7 1.2l.3-.4a3.8 3.8 0 01-.4 1.9l-.9 1.7-.7.8-.5.3h-.5l-.4-.3a2.6 2.6 0 01-.2-1.1l.1-1 .4.5a7.3 7.3 0 01-2.5-.8 4.7 4.7 0 01-1.8-1.9 5.8 5.8 0 01.1-5v.4a1.6 1.6 0 00-.4-.7h-.9v-.2a.6.6 0 00-.1-.4v-.9a4.1 4.1 0 00-.2-1.6c-.1-.5-.3-1-.8-1.1a4 4 0 00-1.5.1h-1.4a.5.5 0 01-.3-.5 5.2 5.2 0 01.2-1.8 9.8 9.8 0 01.5-1.6v.2h-1a1 1 0 01-.7-.8l.2-1a.6.6 0 00-.1-.7 5.2 5.2 0 00-1.8-.2H94a6.4 6.4 0 00.2-3.6 1 1 0 00-.5-.6l-.8-.4a10.8 10.8 0 00-1.8 0l-3.7.7-1.9.2a3.5 3.5 0 01-2-.5h.2a2.1 2.1 0 00-1.6.6 4.8 4.8 0 00-.6 1.8 6 6 0 01-.8 2.1 2.5 2.5 0 01-2.1 1.1c-.1.1-.3 0-.4-.1l-1.3-1.2c-.2-.2-.5-.3-.5-.2l-.1.4c-.1.3-.4.8-.9 1a1.9 1.9 0 01-1.3 0l-1.8-1 .9-.5a9.7 9.7 0 01-.1 1.7 1.1 1.1 0 01-.1.5l-.5.5h-.8l-.4-.2-1.3-1a1.7 1.7 0 00-1.2-.2l.5-.4-.6 2.5a4.6 4.6 0 01-1.4 2.4 2.4 2.4 0 01-1.3.5h-1.4l-2.5-.5.5-.5a5.5 5.5 0 01.2 2.2 3.7 3.7 0 01-.6 2.2 1.1 1.1 0 01-1.2.6 3.9 3.9 0 01-1.1-.6 9.4 9.4 0 01-1.2-1.8h.4a7.7 7.7 0 00-1 1.8 5.2 5.2 0 01-1.2 1.8 2.3 2.3 0 01-2.1.3 6.6 6.6 0 01-1.9-.9 8 8 0 002 .7 1.7 1.7 0 001.8-.4 4.8 4.8 0 001-1.7 4.4 4.4 0 011-1.9.2.2 0 01.4-.1h.1a4.8 4.8 0 001.2 1.6l.7.4a.5.5 0 00.5-.3 3.7 3.7 0 00.4-1.7 13.6 13.6 0 00-.2-2c-.1-.2 0-.4.3-.5h.2l2.4.4a2.6 2.6 0 002-.4 3.9 3.9 0 001-1.9 20.5 20.5 0 00.5-2.4.7.7 0 01.5-.4 2.9 2.9 0 011.8.3 5.7 5.7 0 011.3.8h.3c-.2.1 0 0 0-.2a6.5 6.5 0 000-1.4.6.6 0 01.5-.6h.3l1.6.9h.5c.1 0 .2-.1.3-.4l.2-.5a.8.8 0 01.7-.5 1 1 0 01.8.1l.5.3 1.4 1.3h-.4a2.4 2.4 0 001.5-.7 9.5 9.5 0 00.6-1.8 4.8 4.8 0 01.9-2.1 2.6 2.6 0 012.2-.9h.2a4.9 4.9 0 003.4.3l3.8-.5a4.1 4.1 0 011.9.1 1.8 1.8 0 011 .4 2 2 0 01.6.9 4.1 4.1 0 01.1 1.9 10.6 10.6 0 01-.4 1.9l-.2-.2 1.9-.2a4.8 4.8 0 012 .4l.3.5a.9.9 0 01-.1.5l-.2.9c0 .3.3.4.5.4l.9.2h.2l-.5 1.6a4.3 4.3 0 00-.1 1.6c.1.4.7.2 1.2.1a3.5 3.5 0 011.8-.1 1.9 1.9 0 011.2 1.4 5.7 5.7 0 01.3 1.8v1.2h-.4l-.1.1h.1l.2-.3h.5l.6.4.5.8v.4a4.5 4.5 0 00-.1 4.2 3.1 3.1 0 001.5 1.5 4.8 4.8 0 002.1.7c.2.1.4.3.3.5v.9a1.6 1.6 0 000 .7c.1 0-.1-.1 0-.1h.2l.5-.6a5.1 5.1 0 00.9-1.6 5.3 5.3 0 00.5-1.5.3.3 0 01.3-.3 5.4 5.4 0 002.4-.9c.7-.6 1.2-1.3 2-1.9a1.6 1.6 0 011.5-.2l1.2.9.9 1.1.9 1.1a.1.1 0 01-.1.1z" fill="#333"/><path d="M169.4 136.2a11.8 11.8 0 01-1.9 1.1 4.1 4.1 0 01-2.2.4 5.2 5.2 0 01-2-.9l-1.9-1.2h.2l-.3.5a2.8 2.8 0 01-.1.9 4.2 4.2 0 01-.4 1.8 1.9 1.9 0 01-1.5 1.2 4 4 0 01-1.9-.1 4.7 4.7 0 00-1.6-.2c-.4.1-.6.4-.7 1a24.5 24.5 0 00.6 3.4v1a1.2 1.2 0 01-1 .9 3.8 3.8 0 01-1.9-.5l-3.1-1.9a5.1 5.1 0 00-1.5-.7h-.3c0-.1-.1.2 0 .4a17.7 17.7 0 00.6 1.7l.3.8v.6a.7.7 0 01-.2.7h-.2a1.5 1.5 0 01-1-.2l-.7-.4-1.3-.8a13.2 13.2 0 00-2.5-1.6 3.7 3.7 0 00-2.6-.7c-.9.2-1.3 1.2-1.5 2.1 0 .2-.2.3-.3.2h-.1l-3.4-1.9-.9-.2h-.2a.8.8 0 00.1.4 6.7 6.7 0 00.7 1.8 20.1 20.1 0 011.3 3.7 6.5 6.5 0 01-.3 3.9h-.3a6.3 6.3 0 00-2.7-2.4 7.2 7.2 0 00-3.5-.8 16.7 16.7 0 00-7.2 1.8v-.6a5 5 0 012.7 2.8 5.1 5.1 0 01-.5 3.8l-1.5 3.3a8 8 0 00-.7 3.4 12.8 12.8 0 00.6 3.3c.3 1.1.8 2.1 1.2 3.2l1.1 3.3a12.1 12.1 0 01.5 1.8v1a1.5 1.5 0 01-.5 1.1h-.1c-.3.2-.6 0-.8 0l-.5-.3-.6-.5-1.2-1a4.7 4.7 0 00-1.2-.9 1.1 1.1 0 00-1.1-.1l.3-.2a8.1 8.1 0 01-2.8 2.4 11.7 11.7 0 01-3.5.8 34.3 34.3 0 00-3.4.6 9.1 9.1 0 00-3.1 1.2l.2-.3a6.3 6.3 0 00.3 2.7 8.3 8.3 0 001.5 2.3 18.7 18.7 0 004.9 3.4c.1.1.2.3.1.4a.2.2 0 01-.2.2 19.5 19.5 0 00-3.8 1.4 23.7 23.7 0 00-3.5 1.9 12.5 12.5 0 00-3 2.6 3.8 3.8 0 00-.9 1.8 4.1 4.1 0 00.2 1.9c.1.1 0 .1 0 .1a2.9 2.9 0 01-.4-2 5 5 0 01.8-2 13.3 13.3 0 013-2.8 32.4 32.4 0 013.6-2 25 25 0 013.8-1.5v.6a17.5 17.5 0 01-5.1-3.4 8.1 8.1 0 01-1.8-2.6 5.8 5.8 0 01-.4-3.2c.1-.1.1-.3.3-.3a12.2 12.2 0 013.3-1.4c1.1-.3 2.3-.4 3.4-.6a7.9 7.9 0 003.2-.8 5.9 5.9 0 002.4-2l.3-.2a2.1 2.1 0 011.9.2 7.1 7.1 0 011.4 1l1.2 1 .5.5h.1c.2-.1.2-.7.1-1.2a9 9 0 00-.3-1.6l-1.2-3.2a33.8 33.8 0 01-1.1-3.4 13.5 13.5 0 01-.6-3.5 7.8 7.8 0 01.9-3.7l1.6-3.3a5.6 5.6 0 00.5-3.3 4.2 4.2 0 00-2.3-2.4h-.1l-.1-.3.2-.2a17 17 0 017.4-1.6 8.4 8.4 0 013.7.9 7 7 0 012.8 2.6h-.3a6.2 6.2 0 00.3-3.8 17.8 17.8 0 00-1.4-3.6l-.7-1.9c-.2-.7-.1-.3 0-.5l.2-.3h.3l1.1.2c1.2.5 2.3 1.2 3.5 1.8l-.4.2a4.4 4.4 0 01.5-1.5 1.8 1.8 0 011.3-1.1 4.6 4.6 0 013.1.6l2.7 1.6 1.2.8.6.4h.3a1.6 1.6 0 00-.1-.4 1.9 1.9 0 00-.2-.8 9.5 9.5 0 01-.6-1.8.7.7 0 01-.1-.5v-.3a.5.5 0 01.2-.4.9.9 0 01.8-.3h.5a6.8 6.8 0 011.7.9l3 1.8a3 3 0 001.4.5c.2 0 .2-.1.3-.3v-.7a19.5 19.5 0 01-.5-3.6 1.9 1.9 0 01.3-1 1.1 1.1 0 011-.6 5.8 5.8 0 011.9.2 3 3 0 001.6.2 1.4 1.4 0 001.1-.9 7.5 7.5 0 00.4-1.6l.1-.9a1.2 1.2 0 01.7-.9h.2c1.2.8 2.3 1.9 3.7 2.2a3.5 3.5 0 002-.3 6.9 6.9 0 001.9-1h.1zM143.8 226.3q-18 1.2-36 1.8l-17.9.6-18 .8-35.9 1.8c-12 .5-24 .8-36 1 12-.8 23.9-1.4 35.9-2l36-1.2 17.9-.7 18-1c12-.6 24-1 36-1.1zM318.4 28.7a3.8 3.8 0 01-2.4-.9 3.9 3.9 0 01-1.4-2.3 4.2 4.2 0 01.3-2.7 8 8 0 011.5-2.1h.1a9.8 9.8 0 013.4-1.2 12.1 12.1 0 003.4-.9h-.2a20.3 20.3 0 011.8-2.6 9.3 9.3 0 012.3-2.1 10.5 10.5 0 012.8-1.4l3.1-.5-2.8 1.1a13.5 13.5 0 00-2.6 1.5l-2 2-1.9 2.4h-.2a11.3 11.3 0 01-3.6.6 5.5 5.5 0 00-3.3 1.2h.1a4.4 4.4 0 00-1.1 2 4.5 4.5 0 00-.2 2.3 4 4 0 00.9 2 7.2 7.2 0 002.1 1.2h-.1z" fill="#333"/><path d="M359.5 24.9a3.7 3.7 0 01-1.7.5 3.5 3.5 0 01-1.7-.6 11.8 11.8 0 01-2.5-2.5c-1.4-1.9-2.6-3.9-4.1-5.6a8.5 8.5 0 00-5.7-3.2 11 11 0 00-6.3 1.9h-.1c-.2.1-.4.1-.5-.2l-.1-.2a2 2 0 00-1.7-2.1 20.5 20.5 0 00-3.4-.7 22.3 22.3 0 01-3.6-.5 4.9 4.9 0 01-1.7-.6 2.7 2.7 0 01-1.5-1.3h.1a8.7 8.7 0 01-2-3.1l-1-3.5a3.7 3.7 0 00-1.8-2.6 4.7 4.7 0 00-3.3.2 11.1 11.1 0 00-3 1.7 14.9 14.9 0 00-2.7 2.3 14.4 14.4 0 00-2.2 2.7 31.8 31.8 0 00-1.6 3.2 6.8 6.8 0 01-2.1 2.9 4.6 4.6 0 01-3.6.9 33.7 33.7 0 01-3.4-1 4.7 4.7 0 00-3.3.1 6.3 6.3 0 00-2.6 2l-1.7 3.1a14.4 14.4 0 01-1.9 3.1 7.6 7.6 0 01-3 2.3h-.1a17.5 17.5 0 01-4.6.5h-1.2l-1.2-.3a5.8 5.8 0 00-2-.4 5.2 5.2 0 00-1.9.8l-1.8 1.2-3.6 2.9c-.1.1-.2.2-.4.1l-2-.5a6.5 6.5 0 00-1.8-.4c-.6 0-.8.3-1 .8a12.5 12.5 0 00-.3 1.9.5.5 0 01-.5.5h-.1a7.8 7.8 0 00-4.5-.5 7.4 7.4 0 00-3.9 2.3 7.9 7.9 0 00-2.2 4 6.3 6.3 0 00.3 4.5.2.2 0 01-.1.3 4.1 4.1 0 00-1.5 2.1 7.5 7.5 0 00-.4 2.6 8.2 8.2 0 00.2 2.7 3.1 3.1 0 00.3 1.3 2.7 2.7 0 00.6 1.2c-.5-.3-.6-.8-.8-1.2l-.4-1.4a12.4 12.4 0 01-.3-2.7 9 9 0 01.4-2.8 4.2 4.2 0 011.6-2.3v.3a7.6 7.6 0 01-.6-4.9 11 11 0 012.3-4.4 8.6 8.6 0 019.3-2.2l-.6.5a8.6 8.6 0 01.2-2.2 1.7 1.7 0 00.2-.5l.5-.6a1.7 1.7 0 011.2-.4 7.2 7.2 0 012.2.4l1.9.5h-.4l3.5-2.9 1.9-1.4a5.8 5.8 0 012.4-1h.6l.7.2 1.1.3a3.8 3.8 0 001 .3h1.1a21.2 21.2 0 004.4-.4 6.3 6.3 0 002.6-2A20.8 20.8 0 00290 18a24.8 24.8 0 011.8-3.1 6.2 6.2 0 013-2.3 5.9 5.9 0 013.7 0c1.1.3 2.2.9 3.3 1.1a4.5 4.5 0 003.2-.7 5.8 5.8 0 002-2.8 23.8 23.8 0 011.7-3.1 10.4 10.4 0 012.3-2.5 18.8 18.8 0 015.8-4.2 5 5 0 013.6-.2 2.9 2.9 0 011.4 1.3 3.6 3.6 0 01.7 1.7l1.1 3.3a7 7 0 001.9 2.8h.1a3.7 3.7 0 002.7 1.5l3.5.5a15.1 15.1 0 013.6.6A2.9 2.9 0 01337 13a2.8 2.8 0 01.7 1.9l-.7-.3a14 14 0 013.3-1.5 8.5 8.5 0 013.6-.5 7 7 0 013.4 1.2 12.2 12.2 0 012.7 2.4c1.5 1.8 2.7 3.8 4 5.7a9.2 9.2 0 002.2 2.6 4.4 4.4 0 001.6.6 3.2 3.2 0 001.6-.4h.1zM251.5 51.9a3.8 3.8 0 00-2.1-1.4 4.3 4.3 0 00-2.5-.1l-.4-.2h-.1a3.7 3.7 0 00-1.1-1.8 2.5 2.5 0 00-1.8-.8 3.4 3.4 0 00-2 .4 5.9 5.9 0 00-1.8 1.3h-.1a.3.3 0 01-.4 0 12 12 0 00-4.5-3.9 6.9 6.9 0 00-5.8.2 10.8 10.8 0 00-4.4 3.8 21.1 21.1 0 00-2.5 5.5.4.4 0 01-.4.4 3.1 3.1 0 00-2.1.6 5 5 0 00-1.5 1.7 7.3 7.3 0 00-.7 4.6h-.1a7.3 7.3 0 01-.4-2.5 10.2 10.2 0 01.6-2.5 6.5 6.5 0 011.6-2.1 3.8 3.8 0 012.5-.9l-.4.3a17.1 17.1 0 012.5-5.7 10.3 10.3 0 015-4 7.9 7.9 0 016.2.2 15.4 15.4 0 014.9 3.9h-.5a9 9 0 011.9-1.5 4.1 4.1 0 012.4-.6 3.2 3.2 0 012.4 1.1 4.5 4.5 0 011.2 2.1l-.4-.2a5.2 5.2 0 012.8.3 3.9 3.9 0 012.1 1.9z" fill="#333"/><path d="M119.8 87.4l41.7-11 41.7-10.9c27.9-7.3 55.7-14.6 83.5-21.7l83.6-21.4c27.8-7.1 55.6-14.5 83.5-21.7.1-.1.2 0 .3.2v11.2c0 .2-.1.3-.2.3l-83.5 21-83.5 20.9-41.7 10.4-41.8 10.4-83.6 20.5c0 .1 0 0-.1 0v-8.5h.1v8.5h-.1l83.4-21.2L245 63.8l41.7-10.4 83.5-20.9 83.6-20.6-.3.2V.9l.3.3c-27.8 7.2-55.7 14.2-83.5 21.6l-83.4 21.8c-27.8 7.3-55.6 14.4-83.5 21.5l-41.8 10.8-41.8 10.6z" fill="#333"/><path d="M119.9 95.5c4.7.7 9.3 1.8 14 2.8l13.9 3.1 13.9 3 7.1 1.1 3.5.2a8.2 8.2 0 003.5-.3h.2l.2 15.7-.4-.4 14.8-2.4 14.8-2.3 14.9-2.2 14.9-2-14.8 2.6-14.8 2.5-14.9 2.3-14.8 2.2c-.2 0-.4-.1-.4-.3l.2-15.7.2.2a10.9 10.9 0 01-3.6.2l-3.6-.2c-2.4-.2-4.7-.6-7.1-.9a343.7 343.7 0 01-27.9-5.9l-6.9-1.7-6.9-1.7c0-.1-.1-.1 0-.1z" fill="#333"/><path d="M176.1 105.5a243 243 0 0114.7-3.7l7.5-1.4 7.4-1.8a246.1 246.1 0 0129.7-6.6h.1c-4.9 1.4-9.8 2.7-14.8 3.9L205.8 99l-7.4 1.6-7.4 1.9a187 187 0 01-14.9 3z" fill="#333"/><path d="M196.9 101.1a15.3 15.3 0 01.3 4.3l-.2 2.1a14.8 14.8 0 00.1 2.1 30 30 0 01.3 4.3 30.1 30.1 0 01-.5 4.2h-.1a20.1 20.1 0 01-.5-4.2 30 30 0 01.3-4.3l.1-2.1-.3-2.1a12.4 12.4 0 01.4-4.3h.1zM220.9 95.1a18.9 18.9 0 01.3 4.7l-.2 2.4a19.3 19.3 0 00.1 2.4 38.7 38.7 0 01.3 4.8 39.6 39.6 0 01-.5 4.7h-.1a25.9 25.9 0 01-.5-4.7 38.7 38.7 0 01.3-4.8l.1-2.4-.3-2.4a15.2 15.2 0 01.4-4.7h.1zM176.1 121.3l-6.2 1.4h.1l.1 20.7V164c0 .2-.1.4-.3.4l-25 2.1.4-.4-.2 37.9v37.8l-.3-.2 47.1 4 23.5 2.1 23.5 2.1-.6.5.2-35.6v-17.8l.2-17.8h.1l.2 17.8v17.8l.1 35.6a.5.5 0 01-.5.5l-23.5-2.1-23.5-2.2-47-4.4c-.1 0-.2-.1-.2-.3v-18.9l-.1-18.9-.2-37.9a.4.4 0 01.4-.4c8.3-.8 16.7-1.4 25-2.1l-.4.4v-20.7l.2-20.7h.1l6.3-1.3z" fill="#333"/><path d="M168.7 182.1l10.2-.2 10.3-.2h20.6a.4.4 0 01.4.4l-.2 20.8v20.8a.3.3 0 01-.3.3l-20.6-.2-20.7-.4a.5.5 0 01-.5-.5v-20.4l.2-10.2.1-5.1v-3.8a5.9 5.9 0 01.5-1.3zm0 .1c-.1 3.3 0 6.7.1 10.1v10.2l.2 10.2v10.2l-.5-.6 20.7.5 20.6.6-.3.3.2-10.4v-10.4l-.3-20.8.4.4H179z" fill="#333"/><path d="M171.8 184.1a60.9 60.9 0 019.5-.4l4.8.3 4.7-.2 9.5-.2c3.2 0 6.4.2 9.5.5-3.1.3-6.3.4-9.5.5l-9.5-.3h-4.7l-4.8.2a76 76 0 01-9.5-.3zM169.8 164a182 182 0 0116.4-1.6l8.3-.4 8.2-.8 16.5-1.5c5.5-.3 11-.6 16.5-.7-5.5.7-11 1.2-16.4 1.7s-11 .8-16.5 1l-8.3.5-8.2.9q-8.2.8-16.5.9z" fill="#333"/><path d="M193.9 203.9a3.1 3.1 0 01-1.5-1.2l-.4-.8a2.3 2.3 0 00-.7-.7 8.1 8.1 0 01-1.4-1.2 3.8 3.8 0 01-.8-1.7h.1a5.8 5.8 0 011.5 1.1 5.4 5.4 0 011 1.6l.5.7.8.6a2.4 2.4 0 01.9 1.6c.1.1 0 .1 0 .1zM184.3 198.3a6.8 6.8 0 012.4 2l.9 1.4 1.2 1.1a15.5 15.5 0 012.3 2.1 12.7 12.7 0 011.8 2.7 17.9 17.9 0 01-2.6-2 17.4 17.4 0 01-1.9-2.6l-1-1.2-1.3-1a8.1 8.1 0 01-1.8-2.6zM183.6 203.8a3.2 3.2 0 011.5.9 5.6 5.6 0 00.5.8 1.3 1.3 0 00.7.5 7.1 7.1 0 011.4 1 4.2 4.2 0 01.9 1.6 2.7 2.7 0 01-1.6-.8 5.3 5.3 0 01-1.1-1.4c-.2-.2-.3-.5-.6-.6l-.8-.5a3 3 0 01-1-1.4z" fill="#333" opacity=".7"/><path d="M185.8 128.7c3-.5 6.1-1.1 9.2-1.5l9.2-1.5 9.3-1.4 9.3-1.2c.2 0 .3.1.4.3l-.2 14.5.1 14.6-.2.2-18.6 2.5-9.2 1.2-9.3 1.2a.7.7 0 01-.6-.4l.1-7.1v-20.5a2.8 2.8 0 01.5-.9zm.1.1l.2 14.2v14.2l-.5-.5 9.2-1.2 9.3-1.1 18.6-2.2-.3.3.2-14.6-.2-14.5.4.4-9.2 1.4-9.2 1.3-9.3 1.2z" fill="#333"/><path d="M187.8 157.1a38.2 38.2 0 01-.4-6.8l.2-3.4v-3.4l-.2-3.4-.2-3.4a50 50 0 01.2-6.7l.2.3-2.6-1.5h.1l2.7.9c.2.1.2.2.2.3a50 50 0 01.2 6.7v3.4l-.2 3.4a19.3 19.3 0 000 3.4l.2 3.4a38.7 38.7 0 01-.3 6.8h-.1z" fill="#333"/><path d="M187.8 129.9a62.3 62.3 0 018.6-1.7l4.4-.4 4.3-.8 8.6-1.6a85.2 85.2 0 018.7-.8h.1l-.1.1a119 119 0 01-8.6 1.8l-8.7 1.1-4.3.5-4.3.9a51.6 51.6 0 01-8.7 1z" fill="#333"/><path d="M208.6 141.5a1.8 1.8 0 01-1.1-.8l-.2-.6-.5-.5a3.9 3.9 0 01-1-.8 1.7 1.7 0 01-.5-1.3h.1a2.3 2.3 0 011.2.6 2.7 2.7 0 01.6 1.2 1 1 0 00.4.5c.1.2.4.2.6.4a1.4 1.4 0 01.5 1.2h-.1zM202 137.5a4.2 4.2 0 011.8 1.4l.5 1 .9.7a8 8 0 011.7 1.5 8.6 8.6 0 011.1 1.9h-.1a5.9 5.9 0 01-1.8-1.3 7.5 7.5 0 01-1.3-1.8 3.1 3.1 0 00-.7-.9l-.9-.6a5 5 0 01-1.3-1.9zM201.5 141.4a1.1 1.1 0 011.1.6l.3.6.5.3a3.9 3.9 0 011.1.6 3.3 3.3 0 01.5 1.2h-.1a4.3 4.3 0 01-1.2-.5 3.6 3.6 0 01-.7-1l-.3-.5-.6-.2a1.6 1.6 0 01-.7-1.1z" fill="#333" opacity=".7"/><path d="M178.9 108.2l.3 5.1.1 4.9-.5-.5c2.3-.4 4.6-.6 7-.9l3.5-.5 3.5-.6-.2.2-.2-5.4v-5.4l.6.5-3.4.7-3.5.7zm-.1-.1l6.8-1.8c1.2-.3 2.3-.7 3.5-.9l3.6-.9c.3 0 .6.2.6.4v5.6l-.2 5.4c0 .2-.1.3-.2.3l-3.5.4-3.5.6-7 1.4c-.3 0-.5-.1-.5-.4l.1-5.2zM200.9 103.7l.2 5.6v5.4l-.5-.5c2.8-.5 5.7-.8 8.6-1.2s5.7-1 8.6-1.6l-.2.3-.1-6.2v-6.1l.6.5-8.4 2zm0 0l8.3-2.5 8.7-2.3a.5.5 0 01.6.3v6.3l-.3 6.2-.2.2c-2.9.4-5.8.9-8.6 1.5s-5.7 1.3-8.6 1.7a.5.5 0 01-.5-.3c.1-1.9.1-3.8.3-5.6s.1-3.8.3-5.5zM235.7 96.4l-5.4 1.4-2.7.5-2.7.4.2-.3a39 39 0 00-.1 5.9c.2 2 .2 4 .2 5.9l-.6-.5 2.7-.4 2.6-.3a49 49 0 015.4-.4l-5.2 1.1-2.7.5-2.6.4h-.1c-.2.1-.5-.1-.5-.4l.3-5.9a57.6 57.6 0 00.1-5.9l.1-.2h.1l2.7-.7 2.7-.6a49.5 49.5 0 015.4-.6h.1zM454.9 30.1c.3 19.6.4 39.2.3 58.7l-.2 29.4.1 29.4a3841.7 3841.7 0 01.1 88.2l-.3 29.3h-.1c-.2-9.8-.3-19.5-.3-29.3l-.2-29.4q0-29.4.3-58.8l.1-29.4-.3-29.4c-.1-19.5 0-39.1.4-58.7a.1.1 0 01.1 0zM331.9 175.1c.3 6.7.5 13.4.4 20l-.2 10 .2 10a672 672 0 01-.1 40h-.1c-.3-6.6-.5-13.3-.6-20s.1-13.3.2-20l.1-10-.3-10c-.1-6.6 0-13.3.3-20h.1zM238.7 250.3c6.9-1 13.9-1.7 20.9-2.3l10.6-.7 10.5-1a703.2 703.2 0 0142-3.6.1.1 0 01.1.1h-.1a499.7 499.7 0 01-42 4l-10.5.9-10.5 1.1c-7 .7-14 1.3-21 1.6zM338.5 242.5c9 .1 17.9.5 26.8 1.1l13.4 1 13.4.6a1174.4 1174.4 0 0153.6 3.2c-9-.2-17.9-.6-26.9-1l-26.7-1.7c-4.5-.4-8.9-.7-13.4-.9l-13.4-.5a613 613 0 01-26.8-1.8zM463.7 248.9h7.3l7.3.3c4.9.2 9.7.4 14.5.8l-.3.4c.1-6.5.2-12.9.1-19.4l-.3-19.3.1-19.3c.1-6.4.1-12.9.4-19.4h.1l.4 19.4v19.3c.1 6.5-.2 12.9-.3 19.3s0 12.9.2 19.4c0 .2-.2.3-.4.3-4.8-.1-9.7-.4-14.5-.7l-7.3-.5-7.3-.6z" fill="#333"/><path d="M493.2 250.5l9.7-1.7 9.7-1.6 19.4-3 19.4-2.8 19.4-2.8v.2l-.2-26.8-.2-26.9a.5.5 0 01.5-.5h.1l5 .7-.6.5v-15.7l.1-15.6.2-15.7.2-15.7h.1l.2 15.7v15.7l.1 15.6v15.7a.5.5 0 01-.5.5l-5-.7.5-.5-.2 26.9-.1 26.8h-.1l-19.4 3.2-19.4 3.1-19.4 2.8-9.7 1.4-9.7 1.3z" fill="#333"/><path d="M517.7 176.8a120.9 120.9 0 0113.3 1.7l6.6 1.3 6.6.9a283.8 283.8 0 0126.5 4.4c-4.5-.4-8.9-1-13.4-1.6s-8.8-1.5-13.2-2.4l-6.6-1.1-6.7-.8c-4.4-.6-8.8-1.4-13.1-2.4zM504.9 196.8l.2 8 .1 8.1c.1 5.4-.1 10.8-.2 16.2l-.2-.2h7l7-.2-.3.3-.2-15.9v-8l.1-8 .4.5-7-.4h-6.9zm-.1 0l.1-.1h13.9a.5.5 0 01.5.4v16c0 5.3 0 10.6-.2 15.9a.3.3 0 01-.3.3h-14a.2.2 0 01-.2-.2c-.1-5.3-.3-10.7-.2-16.1l.1-8z" fill="#333"/><path d="M515.9 197.1a50.9 50.9 0 01.3 7.8l-.2 3.9.1 3.8.3 7.8c0 2.6-.2 5.1-.5 7.7h-.1a66.4 66.4 0 01-.5-7.7q0-3.9.3-7.8l.1-3.8-.3-3.9a40.8 40.8 0 01.4-7.8h.1zM542.9 198.4l.2 7.1.1 7.2v7.2l-.2 7.2-.2-.2h6.5l6.5-.3-.3.3-.2-14.1v-7.1l.1-7.1.4.5-6.5-.3-3.2-.2h-3.2c0-.2-.1-.1 0-.2zm-.1.1h13a.5.5 0 01.5.4v14.2c0 4.7 0 9.4-.2 14.1a.3.3 0 01-.3.3h-13l-.2-.2-.2-7.1v-7.1l.1-7.2z" fill="#333"/><path d="M553.9 199.1a41.5 41.5 0 01.3 7l-.2 3.5.1 3.5.3 7a55 55 0 01-.5 7h-.1a53.6 53.6 0 01-.5-7l.3-7c.2-2.4.1-2.3.1-3.5l-.3-3.5a33.3 33.3 0 01.4-7h.1zM359.8 243.1l-.3-14.2-.1-14.3.1-28.5a.3.3 0 01.3-.3h17.5l17.5-.4 17.5-.5 17.5-.4a.5.5 0 01.5.5v15.6l-.1 15.5v15.6l-.2 15.5h-.1l-.2-15.5-.2-15.6-.1-15.5v-15.7l.5.5-17.5.2-17.5.2-17.5.2-17.5.4.3-.3c.2 9.5.2 19 .1 28.5l-.1 14.3-.2 14.2h-.1z" fill="#333"/><path d="M393.9 191.1c.3 4.4.4 8.9.3 13.3l-.2 6.6.1 6.6c.2 4.4.2 8.9.2 13.3s-.2 8.8-.5 13.2h-.1c-.3-4.4-.4-8.8-.4-13.2s0-8.9.2-13.3c.1-2.2.2-4.4.1-6.6l-.2-6.6a118.2 118.2 0 01.4-13.3h.1z" fill="#333"/><path d="M365.8 243.1c-.2-8.7-.4-17.5-.4-26.3v-13.2l.2-13.2a.2.2 0 01.2-.2l14.5-.3 14.5-.4 14.5-.5 14.5-.5a.5.5 0 01.5.5l.1 14.3-.1 14.3v14.3l-.2 14.2h-.1l-.2-14.2-.2-14.3-.2-14.3V189l.5.5-14.5.3-14.5.2-14.5.2-14.5.5.3-.3.2 13.2a1146.5 1146.5 0 01-.4 39.5h-.1z" fill="#333"/><path d="M511.5 215.7a1.3 1.3 0 01.1-1.2l.4-.5a1.3 1.3 0 00.1-.6 1.7 1.7 0 01.2-1.2 1.9 1.9 0 01.8-1 .1.1 0 01.1.1 3 3 0 01.1 1.3 6.1 6.1 0 01-.7 1c-.1.2-.3.3-.3.5l.1.7a1.5 1.5 0 01-.8 1h-.1zM511.6 208.6a3.4 3.4 0 01-.3 2l-.5 1a3 3 0 00-.2 1 6.5 6.5 0 01-.4 2 4.6 4.6 0 01-1 1.8h-.1a7.2 7.2 0 01.1-2.1 6.6 6.6 0 01.9-1.9 3.6 3.6 0 00.4-.9l.1-1.1a3.7 3.7 0 01.9-1.9h.1zM508.3 210a1.4 1.4 0 01.1 1.1l-.4.5a.6.6 0 000 .6 4 4 0 010 1.1 2.5 2.5 0 01-.8 1h-.1a2.5 2.5 0 01-.2-1.2 1.9 1.9 0 01.5-1 .9.9 0 00.3-.5 1.9 1.9 0 00-.2-.7 1.5 1.5 0 01.7-1zM549.8 216.4a1.1 1.1 0 010-1.1l.4-.4a.5.5 0 000-.5 3.7 3.7 0 01.1-1.1 2 2 0 01.8-.8h.1a1.4 1.4 0 01.1 1.1 2 2 0 01-.5.9c-.2.1-.3.2-.3.4v.6a.9.9 0 01-.6.8zM549.9 210.3a2.8 2.8 0 01-.2 1.8l-.5.7a2.8 2.8 0 00-.1.9 8.6 8.6 0 01-.3 1.7 3.1 3.1 0 01-1 1.5h-.1a3.6 3.6 0 01.1-1.8 4.6 4.6 0 01.7-1.6 2 2 0 00.4-.8 2.7 2.7 0 000-.9 2.9 2.9 0 01.9-1.6.1.1 0 01.1.1zM547 211.4a1.2 1.2 0 01.2 1.1l-.4.4c-.1.2 0 .3 0 .4a1.7 1.7 0 010 1 1.6 1.6 0 01-.6.8h-.1a1.4 1.4 0 01-.3-1 2 2 0 01.5-.9l.2-.4a4.3 4.3 0 00-.1-.5.9.9 0 01.5-.9z" fill="#333" opacity=".7"/><path d="M517.7 93.4c5 2.3 9.8 4.7 14.6 7.3l7.1 4.1 7.3 3.7a333.8 333.8 0 0128.8 15.4h-.1a395 395 0 01-29-15 98 98 0 00-7.1-3.9l-7.4-3.6a225 225 0 01-14.3-8h.1z" fill="#333"/><path d="M527.9 86.1a8.9 8.9 0 01.3 3.2L528 91a8.6 8.6 0 00.1 1.6 18.2 18.2 0 01.3 3.2 18.8 18.8 0 01-.5 3.3h-.1a12.6 12.6 0 01-.5-3.3 18.2 18.2 0 01.3-3.2l.1-1.6-.3-1.7a7.2 7.2 0 01.4-3.2h.1zM541.9 94.1a8.9 8.9 0 01.3 3.2L542 99a8.6 8.6 0 00.1 1.6 18.4 18.4 0 01.3 3.3 19.2 19.2 0 01-.5 3.2h-.1a12.5 12.5 0 01-.5-3.2 18.4 18.4 0 01.3-3.3l.1-1.6-.3-1.7a7.2 7.2 0 01.4-3.2h.1zM556.9 101.1a9.3 9.3 0 01.3 3.3l-.2 1.6a8.6 8.6 0 00.1 1.6 18.4 18.4 0 01.3 3.3 19.2 19.2 0 01-.5 3.2h-.1a12.5 12.5 0 01-.5-3.2 18.4 18.4 0 01.3-3.3l.1-1.6-.3-1.6a7.5 7.5 0 01.4-3.3h.1zM518.1 84.2a15.1 15.1 0 013.5 1.4 21.7 21.7 0 013.3 1.9l.1.2a15.1 15.1 0 00.1 3l.1 3.1c0 1-.2.5-.4.5h-.3l-3.2-1.7a21.1 21.1 0 01-3.1-2.1h.1a23.7 23.7 0 013.4 1.3l3.3 1.6-.8.5.3-3.1a15.1 15.1 0 00.1-3h.1a26.3 26.3 0 01-3.5-1.5 21.4 21.4 0 01-3.2-2h.1zM529.9 90.4l.2 3.7.1 3.4-.2-.4 4.3 2.6a49.2 49.2 0 004.5 2.4l-.4.3-.1-3.7V95l.3.5a44.9 44.9 0 01-4.2-2.4zm-.1-.1l4.5 2a52.4 52.4 0 014.8 2.3.5.5 0 01.3.5l-.2 3.6c-.1 1.3-.1 2.5-.3 3.7 0 .2-.1.3-.2.3h-.2a31.4 31.4 0 00-4.4-2.5c-1.5-.8-3.1-1.4-4.5-2.3a.3.3 0 01-.3-.3l.2-3.8zM543.9 97.3c0 2.6.2 5.1.4 7.4l-.3-.4a49.4 49.4 0 004.9 3 48.1 48.1 0 005.1 2.5l-.5.3-.3-6.9.3.5-4.7-3zm-.1-.1l5 2.6c1.7.9 3.5 1.9 5.2 3 .2.1.3.2.3.4l-.2 6.9a.3.3 0 01-.3.3.1.1 0 01-.1-.1 48.2 48.2 0 00-5-2.7 60.5 60.5 0 00-5.3-2.8l.4-7.6zM559 105.5l.4 3.7.2 3.3-.3-.4 3.3 2.1a26.9 26.9 0 003.4 1.7l-.4.2-.2-3.7-.1-3.7.3.5-3.2-1.7-1.6-1zm0-.1l1.6.7 1.8.6 3.7 1.6c.1.1.3.2.3.4l-.1 3.7-.2 3.7c0 .1-.1.2-.3.2h-.1a27.9 27.9 0 00-3.3-1.9l-3.5-1.6a.5.5 0 01-.2-.4v-3.7z" fill="#333"/><path d="M517.9 80.1l.2 96.7a.3.3 0 01-.3.3l-54-7.1.4-.3v92.5a.4.4 0 01-.3.4l-4.4 1.6a18.2 18.2 0 01-4.6 1.1 14.4 14.4 0 01-4.7-.6l-4.6-1.1c-.2 0-.3-.2-.3-.4v-92.4l.3.3-114.4 4.2-.2-.2.2-.2 6.4-.3a.2.2 0 01.2.2v78.3l-.1.2-6.1 2h-9c-.1 0-.2-.1-.2-.3v-79.4l.4.3-87.1 3.5a.5.5 0 01-.4-.5V79.3c0-.3.1-.5.3-.5l109.7-24.9 109.5-24.8h.3L518 68.9l.1.2V80l49.6 27.6h-.1l27.4-1-27.4 1.1-49.9-27.2-.1-.2v-11l-63-39.5h.3l-109.5 25-109.5 24.9.4-.4v99.6l-.5-.4 87-3.2c.2 0 .4.1.4.3v79.5l-.3-.2h8.8l6.2-2-.2.2V175l-6.4.3v-.4l114.4-4.4c.2-.1.3.1.4.3v92.4l-.4-.4 4.5 1.1a24.2 24.2 0 004.5.6 24 24 0 004.4-1.2l4.4-1.5-.3.4v-92.5c0-.2.1-.4.3-.4h.1l54 7.3-.3.2.2-96.7h.1z" fill="#333"/>
<defs>
        <linearGradient id="linear-gradient1" x1="500%" y1="500%" x2="-150%" y2="-150%" >
            <stop offset="2" stop-color="#ffc200">
                <animate attributeName="offset" values="0.1;0.6;0.6;1" dur="4s" repeatCount="indefinite"  /> 
            </stop>
            <stop offset="1" stop-color="#FFD447">
               <animate attributeName="offset" values="0.1;0.6;0.8;1" dur="4s" repeatCount="indefinite"  /> 
            </stop>
             <stop offset="2" stop-color="#ffc200">
                <animate attributeName="offset" values="0.1;0.6;0.8;1" dur="4s" repeatCount="indefinite"  /> 
            </stop>
        </linearGradient>
    </defs></svg>