<svg id="optionspaket" xmlns="http://www.w3.org/2000/svg" width="232" height="350"><g id="warp" opacity="0"><path d="M162.2 281.1c-38.1-34.2-78.2-52.3-116.4-56.8-.2-29.6-2.1-72.7-2.3-132C83 96.1 123 114.2 160 149.2c-1.2 60 .8 103.2 2.2 131.9z" fill="#ffc200"/><path d="M43.8 111.7c38.2 4.5 78.3 22.5 116.4 56.8M43.8 130.5C82 135 122.1 153 160.2 187.3M43.8 149.3c38.2 4.5 78.3 22.5 116.4 56.8M43.8 168.1c38.2 4.5 78.3 22.5 116.4 56.8M44.8 186.9c38.2 4.5 77.9 22.1 116 56.4M45.3 206.7c38.2 4.5 77.8 22.5 115.9 56.8" fill="none" stroke="#000" stroke-linejoin="round"/><path d="M45.8 224.3c38.2 4.5 78.3 22.5 116.4 56.8-1.4-28.8-3.4-71.9-2.2-131.9-36.9-35-77-53.1-116.4-56.9.1 59.3 2 102.5 2.2 132z" fill="none" stroke="#000" stroke-linejoin="round"/><path d="M162.3 280.9a2106.6 2106.6 0 01-2.3-131.8l27.1-17.8 1.3 130.5-26.1 19.1z" fill="#333" stroke="#000" stroke-linecap="round" stroke-linejoin="round"/><path d="M160.1 149.1a207.7 207.7 0 00-29.6-24.1 207.2 207.2 0 00-34.6-18.9A195.3 195.3 0 0044 92.3l23.6-23.5a235.5 235.5 0 0156.5 18.6 231.1 231.1 0 0163.2 44.1z" fill="#333" stroke="#000" stroke-linecap="round" stroke-linejoin="round"/></g><g id="pka"><g id="niz"><path id="nizColor" d="M231.2 193.7l.3-14.2-115.4-66.8L.8 179.3l-.3 14.4 115.7 67z" fill="#ffc200"/><path d="M116 260.7l115.5-66.8-.2-14.3L115.9 246l.1 14.7z" fill="#fff" opacity=".7" style="isolation:isolate"/><path fill="none" stroke="#f15a24" d="M231.4 194.1l-12.9-7.5M116.1 245.9l12.8 7.3M128.7 238.3l13 7.6M141.7 231l12.9 7.5M154.5 223.6l12.9 7.5M167.4 216.3l12.8 7.4M180 208.8l13 7.5M192.8 201.4l13 7.5M218.6 201.5l-13.1-7.6"/><path fill="none" stroke="#000" d="M231.4 179.3v14.8l-115.3 66.5v-14.7M116.1 260.6L.8 194.1v-14.8"/><path fill="none" stroke="#000" d="M116.1 112.7L.8 179.3l115.3 66.6 115.3-66.6-115.3-66.6z"/><path fill="none" stroke="#000" d="M13.6 171.9l115.3 66.6v14.7M26.4 164.5l115.3 66.6v14.8M39.2 157.1l115.4 66.6v14.8M52 149.7l115.4 66.6v14.8M64.8 142.3l115.4 66.6v14.8M77.7 134.9L193 201.5v14.8M90.5 127.5l115.3 66.6v14.8M103.3 120.1l115.3 66.6v14.8"/></g><g id="mid"><path d="M116 103.8L1.4 170.7a11 11 0 00-.6 2.6 7.8 7.8 0 00-.2 3.4 6.3 6.3 0 00.8 2.3L116 245.8 230.6 179a15.8 15.8 0 00.9-3.1 9.6 9.6 0 00-.8-5L116 103.8v8.3l106.2 62-106.2 62L9.6 174.2 116 112.1z" fill="#fff"/><path fill="none" stroke="#000" d="M116 103.8L1.4 170.7 116 237.6l114.6-66.9L116 103.8z"/><path d="M114.2 236.4l-.9 2.7v2.7l.9 2.9M118 236.4l.8 2.7v2.7l-.8 2.9M230.6 170.7l.8 2.7v2.7l-.8 2.9M2.5 174.5l110.8 64.6M113.3 241.8L2.6 177.2M118.8 239.1l110.9-64.7M118.8 241.8l110.9-64.7M3.4 171.8l-.9 2.7v2.7l.8 2.9" fill="none" stroke="#000"/><path d="M1.4 170.7l-.7 3v3a20.9 20.9 0 00.8 2.3L116 245.8 230.6 179h-.1" fill="none" stroke="#000"/><path fill="none" stroke="#000" d="M222.2 174.1l-106.2-62L9.6 174.2"/><path fill="none" stroke="#000" d="M116 105.3L3.8 170.7 116 236.1l112.1-65.4L116 105.3zM228.9 171.6l.9 2.7v2.7l-.9 2.9"/><path fill="none" stroke="#000" stroke-dasharray="7" d="M5.7 171.8L116 107.2l110.2 64.6"/><path fill="none" stroke="#000" stroke-dasharray="7" d="M223.8 173.2l-107.3-62.8-.6-.2L8.3 173.3"/></g><g id="ver"><path id="verColor" d="M.8 170.3l-.3-14.2 115.4-66.8 115.3 66.6.3 14.5-115.7 66.9z" fill="#ffc200"/><path d="M116 237.3L.5 170.6l.2-14.4q57.6 33.3 115.4 66.4l-.1 14.7z" fill="#fff" opacity=".7" style="isolation:isolate"/><path fill="none" stroke="#f15a24" d="M.6 170.7l12.9-7.5M115.9 222.5l-12.8 7.4M103.3 215l-13 7.5M90.3 207.7l-12.9 7.4M77.5 200.3l-12.9 7.4M64.6 192.9l-12.8 7.4M52 185.4l-13 7.5M39.2 178l-13 7.5M13.4 178.1l13.1-7.6"/><path fill="none" stroke="#000" d="M.6 155.9v14.8l115.3 66.6v-14.8M115.9 237.3l115.3-66.6v-14.8M115.9 89.3l115.3 66.6-115.3 66.6L.6 155.9l115.3-66.6z"/><path fill="none" stroke="#000" d="M218.4 148.5l-115.3 66.6v14.8M205.6 141.1L90.3 207.7v14.8M192.8 133.7L77.4 200.3v14.8M180 126.3L64.6 192.9v14.8M167.2 118.9L51.8 185.5v14.8M154.3 111.5L39 178.1v14.8M141.5 104.1L26.2 170.7v14.8M128.7 96.7L13.4 163.3v14.8"/></g></g></svg>