<svg xmlns="http://www.w3.org/2000/svg" width="310" height="149" viewBox="0 0 310 149"><path fill="#fff" d="M204 74l45-16 13 37-44 16z"/><path d="M244 62c-5-1-10 1-14 2l52-18a13 13 0 0115 15 14 14 0 01-5 8l-1 21-2 2-76 33c-14 2-9-19-10-29 6 10 27-4 36-6v13l9-4V86c9-6 6-21-4-24z" fill="#fff" stroke="#333"/><path fill="#f2f2f2" stroke="#333" d="M248 86l44-17"/><path d="M203 96s-8-8-3-17 14-4 14-4 16 10 2 24v19s1 6-5 7" fill="#fff" stroke="#333"/><path d="M204 74l24-9c13-3 22 17 11 25" fill="none" stroke="#333"/><ellipse cx="243.5" cy="106.3" rx="4.4" ry="3" transform="rotate(-73 244 106)" fill="#f2f2f2" stroke="#333"/><ellipse cx="209.8" cy="86.4" rx="9.2" ry="11.4" transform="rotate(-31 211 87)" fill="none" stroke="#333"/><path fill="none" stroke="#333" d="M219 85h-5v2l-3-2h-5v3l1-1 1 1h2v-1l2 2h8l-1-4z"/><path d="M207 105v12a3 3 0 106 0v-12m83 1c0-1-19 1-18 12l-11 6v1l-25 13 1 2 4 4 26-14 1 1 12-6c8 6 31-6 21-13 0 0-9-1-11-6z" fill="#fff" stroke="#333"/><path d="M295 108a19 19 0 004 3 17 17 0 006 2c-6 1-10 0-11-2l1-3zM278 118a9 9 0 008 5v3" fill="#f2f2f2" stroke="#333"/><path d="M274 131v-2l12-6s19 3 23-8" fill="none" stroke="#333"/><path fill="#f2f2f2" stroke="#333" d="M242 138l5 4v2m0-2l26-14 1 1"/><path d="M274 122l-6 3c-1 1-2 4-4 3a40 40 0 01-12 6c-1 3-5 3-8 4 0 6 11-5 14-4a16 16 0 017-3l10-7h-2z" fill="#f2f2f2" stroke="#333"/><path d="M16 108l-13 3s-4 4 1 5l12-2m0-68L2 49s-3 4 1 5l13-2M72 82l-1-4c-5-4-20-4-31-2-6 1-6-1-6-1V11c0-5 8-8 13-10s20 3 22 4 2 9 2 9 42 10 54 10 11 6 11 6l2 51c-8 15-54 1-66 1 1 1 1 7-1 10v54c-12 1-43 4-55 2V16a20 20 0 014-2 19 19 0 0114 0" fill="#fff" stroke="#333"/><path d="M33 56s-7 6 0 13m0-47s-7 5 0 13m37 57c-17-6-35-1-38 0h-7V79a10 10 0 007 0 9 9 0 003-3M34 92v53l-18 3m17-2l37 1" fill="none" stroke="#333"/><path d="M19 14s5-1 6 2v131m8-72s24-7 38-1V15m1 63l36 5c5 1 13 2 23 0a45 45 0 007-2" fill="none" stroke="#333"/><path d="M39 76a30 30 0 0112-3l20 3" fill="none" stroke="#333"/></svg>