<svg id="_1" data-name="1" xmlns="http://www.w3.org/2000/svg" width="475" height="500"><g id="downblock"><path d="M116.5 268.9l.6-14.9 240.8.4.2 15.2q-60 34.8-120.4 69.5z" fill="#333"/><path d="M237.9 323.3l120.6-69.7L237.9 184l-120.7 69.6z" fill="#ffc200" stroke="#000" stroke-linejoin="round"/><path fill="none" stroke="#000" stroke-linejoin="round" d="M130.7 245.9l120.7 69.7V331M143.7 238.2l120.7 69.6V323M157.7 230.4l120.7 69.7V316M170.7 222.7l120.7 69.6V308M183.8 214.9l120.6 69.7V300M197.8 207.2l120.6 69.7V292M210.8 199.5l120.6 69.6V285M224.8 191.7l120.6 69.7V277"/><path fill="none" stroke="#000" stroke-linejoin="round" d="M358.4 254v15l-121 69.9V323"/><path fill="none" stroke="#000" stroke-linejoin="round" d="M238.1 338.8l-120.7-69.7V254"/></g><g id="midblock"><path d="M237.6 177.2l-118.9 68.6a13.1 13.1 0 00-.6 2.7 7.7 7.7 0 00-.2 3.4 7.5 7.5 0 00.8 2.4l118.9 68.6 118.8-68.6a9 9 0 00.9-3.2 8.9 8.9 0 00-.8-5.1l-118.9-68.8v8.4l110.1 63.7-110.1 63.6-110.3-63.6 110.3-63.7z" fill="#fff"/><path fill="none" stroke="#000" stroke-linejoin="round" d="M237.3 177.2l-118.8 68.6 118.8 68.6 118.9-68.6-118.9-68.6zM234.9 313.3l-.8 2.7v2.8l.8 3"/><path d="M239.2 313.3l.9 2.7v2.8l-.9 3M356.2 245.8l.9 2.7v2.8l-.9 3M119.7 249.7L234.6 316M234.6 318.8l-114.9-66.4M240.3 316l115-66.4M240.3 318.8l115-66.5M121 246.9l-.9 2.8v2.7l.9 3" fill="none" stroke="#000" stroke-linejoin="round"/><path d="M118.5 245.8l-.7 3.1-.2 3 .9 2.4 118.8 68.6 118.9-68.6h-.6" fill="none" stroke="#000" stroke-linejoin="round"/><path fill="none" stroke="#000" stroke-linejoin="round" d="M347.5 249.3l-110.2-63.7L127 249.3"/><path fill="none" stroke="#000" stroke-linejoin="round" d="M237.3 178.6L121 245.8l116.3 67.1 116.3-67.1-116.3-67.2zM354.2 246.8l.9 2.7v2.8l-.8 2.9M237.1 178.8v7M235.5 178.2l1 .9M238.1 179.1l1.1-.9"/><path fill="none" stroke="#000" stroke-linejoin="round" stroke-dasharray="7" d="M123 246.9l114.3-66.3 114.4 66.3M125.7 248.5l111.6-64.8M237.9 183.9l111.3 64.5"/></g><g id="upblock"><path d="M358.3 245.6l-.6-14.9-240.7.4-.2 15.2 120.3 69.5z" fill="#333"/><path d="M237.6 300.4l-120.7-69.7 120.7-69.6 120.7 69.6z" fill="#ffc200" stroke="#000" stroke-linejoin="round"/><path fill="none" stroke="#000" stroke-linejoin="round" d="M345.1 223l-120.6 69.7v15M331.1 215.3l-120.6 69.6v15.8M318.1 207.5l-120.6 69.7v15.5M305.1 199.8l-120.6 69.6v15.3M291.1 192l-120.6 69.7v15M278.1 184.3L157.5 254v15.7M264.1 176.6l-120.6 69.6v15.5M251.2 168.8l-120.7 69.7v15.2"/><path fill="none" stroke="#000" stroke-linejoin="round" d="M116.5 230.7v15.4l121 69.9v-15.3M237.9 315.9l120.6-69.7v-15.5"/></g><g id="blocktitle"><path fill="none" stroke="#333" stroke-miterlimit="10" d="M0 88.3h101.8l23.8 27.6"/><path d="M129.3 125.4a4.9 4.9 0 114.9-4.9h0a4.9 4.9 0 01-4.9 4.9z" fill="#ffc200" stroke="#333" stroke-miterlimit="10" stroke-width="3"/><path d="M7.4 58.8a3.3 3.3 0 01-1.5-.3 2.3 2.3 0 01-1.1-.9 5.2 5.2 0 01-.7-1.8 19.1 19.1 0 01-.2-2.8 18.7 18.7 0 01.2-2.7 5.2 5.2 0 01.7-1.8 1.7 1.7 0 011-.9 3.7 3.7 0 011.5-.3h1.3l1.1.2v.7H7.6l-.9.2a1.9 1.9 0 00-.7.8 3.8 3.8 0 00-.5 1.4 14 14 0 00-.2 2.4 14.4 14.4 0 00.2 2.4 3.8 3.8 0 00.5 1.4 2.9 2.9 0 00.7.8l1 .2h2.1v.7l-1 .2zM16.5 54.6a5.9 5.9 0 01-.2 2 3.9 3.9 0 01-.5 1.3 2.3 2.3 0 01-1 .7l-1.2.2-1.3-.2a1.6 1.6 0 01-.9-.7 2.6 2.6 0 01-.6-1.3 10.3 10.3 0 01-.2-2 10.1 10.1 0 01.2-1.9 2.3 2.3 0 01.6-1.3 1.6 1.6 0 01.9-.7l1.3-.2 1.2.2a2.3 2.3 0 011 .7 3.2 3.2 0 01.5 1.3 5.5 5.5 0 01.2 1.9zm-1.4 0a6.6 6.6 0 00-.1-1.5 2.8 2.8 0 00-.4-1.1 1.2 1.2 0 00-.5-.5H13l-.5.5a8.1 8.1 0 00-.3 1.1 6.6 6.6 0 00-.1 1.5 7.1 7.1 0 00.1 1.6 4.1 4.1 0 00.3 1l.5.6h1.1a1 1 0 00.5-.6 1.9 1.9 0 00.4-1 7.1 7.1 0 00.1-1.6zM22.9 50.6v1.1h-2.1v6.9h-1.5v-6.9h-2v-1.1zM29.5 54.6a10.3 10.3 0 01-.2 2 2.6 2.6 0 01-.6 1.3 1.6 1.6 0 01-.9.7l-1.3.2-1.2-.2a2.3 2.3 0 01-1-.7 3.9 3.9 0 01-.5-1.3 5.9 5.9 0 01-.2-2 5.5 5.5 0 01.2-1.9 3.2 3.2 0 01.5-1.3 2.3 2.3 0 011-.7l1.2-.2 1.3.2a1.6 1.6 0 01.9.7 2.3 2.3 0 01.6 1.3 10.1 10.1 0 01.2 1.9zm-1.4 0a6.1 6.1 0 00-.2-1.5 8.1 8.1 0 00-.3-1.1 1.2 1.2 0 00-.5-.5H26a1.2 1.2 0 00-.5.5 2.8 2.8 0 00-.4 1.1l-.1 1.5.1 1.6a1.9 1.9 0 00.4 1 1 1 0 00.5.6h1.1a1 1 0 00.5-.6 4.1 4.1 0 00.3-1 6.3 6.3 0 00.2-1.6zM31.3 50.8l1.2-.2h2.4l.9.3a1.8 1.8 0 01.5.7 3.6 3.6 0 01.2 1.1l-.1.7-.3.5-.4.3-.4.2.6.3.4.3.4.6.1.8a3.7 3.7 0 01-.2 1.2 1.3 1.3 0 01-.6.7 1.9 1.9 0 01-.9.4h-2.6l-1.2-.2zm1.4.6V54h1a1.2 1.2 0 00.9-.3 1.5 1.5 0 000-2 1.2 1.2 0 00-.9-.3zm1.1 6.4a1.6 1.6 0 001.1-.3c.3-.1.4-.5.4-1.1s-.1-.9-.4-1.1a1.6 1.6 0 00-1.1-.3h-1.1v2.8zM41.5 53.6h1l.7.4a2.2 2.2 0 01.5.8 5.1 5.1 0 01.2 1.3 3.9 3.9 0 01-.2 1.3 1.6 1.6 0 01-.5.8l-.9.4h-2.6l-1.2-.2v-7.8h1.4v3.2h1.6zm-.5 4.2a1.3 1.3 0 001.5-1.6 1.7 1.7 0 00-.4-1.2 1.8 1.8 0 00-1.1-.4h-1.1v3.2zm5.5-7.2v8H45v-8zM52.7 53h-.1l-2.5 5.6h-1.6v-8H50v5.5h.1l2.4-5.5h1.6v8h-1.4zm-1.4-4.4l.8-.2.7-.5.6.7a3 3 0 01-.8.8 2.8 2.8 0 01-1.3.3 2.9 2.9 0 01-1.4-.3 3 3 0 01-.8-.8l.6-.7.7.5zM5.6 77.8H4.1v-8h5.6v8H8.2v-6.9H5.6zM17.3 73.8a5.9 5.9 0 01-.2 2 3.9 3.9 0 01-.5 1.3 2.3 2.3 0 01-1 .7l-1.2.2-1.3-.2a1.6 1.6 0 01-.9-.7 2.6 2.6 0 01-.6-1.3 10.3 10.3 0 01-.2-2 10.1 10.1 0 01.2-1.9 2.3 2.3 0 01.6-1.3 1.6 1.6 0 01.9-.7l1.3-.2 1.2.2a2.3 2.3 0 011 .7 3.2 3.2 0 01.5 1.3 5.5 5.5 0 01.2 1.9zm-1.4 0a6.6 6.6 0 00-.1-1.5 2.8 2.8 0 00-.4-1.1 1.2 1.2 0 00-.5-.5h-1.1l-.5.5a8.1 8.1 0 00-.3 1.1 6.6 6.6 0 00-.1 1.5 7.1 7.1 0 00.1 1.6 4.1 4.1 0 00.3 1l.5.6h1.1a1 1 0 00.5-.6 1.9 1.9 0 00.4-1 7.1 7.1 0 00.1-1.6zM24.4 69.8v8H23v-6.9h-2.1l-.3 4.4a3.3 3.3 0 01-.6 2.1 1.4 1.4 0 01-1.2.6h-.9v-.6a.9.9 0 00.8-.4 2.6 2.6 0 00.5-1.5l.3-5.5zM30.6 72.2L28 77.8h-1.5v-8h1.4v5.5h.1l2.4-5.5h1.7v8h-1.5zM37.4 73.6l.8.4a2.3 2.3 0 01.5 1.1l.4 1.5.3.4c.2.1.3.2.7.2v.6h-.9a1.8 1.8 0 01-1.1-.3 2.8 2.8 0 01-.5-1.1l-.4-1.5c-.2-.6-.5-.9-1.1-.9h-.5v3.6h-1.5v-8h1.5v3.3h.5c.2 0 .4 0 .5-.2l.4-.7.4-1.2a4.4 4.4 0 01.6-1 1.5 1.5 0 011-.3h.9v.7h-.7l-.3.4-.4 1.2a2.3 2.3 0 01-.5 1 .9.9 0 01-.6.4zM43.3 78h-.9a2 2 0 01-.8-.4 1.6 1.6 0 01-.5-.8 4.5 4.5 0 01-.1-1.3 4.1 4.1 0 01.1-1.2 1.3 1.3 0 01.5-.7 1.2 1.2 0 01.8-.4H45v-.7a2 2 0 00-.2-.9l-.3-.5-.6-.3h-2.3V70l.9-.2h2.3l.9.4a2.2 2.2 0 01.5.8 5.2 5.2 0 01.2 1.4v5.4h-1.2v-.4H45l-.7.4zm1.7-4.1h-1.2a1.7 1.7 0 00-1 .3c-.3.2-.4.6-.4 1.2a1.7 1.7 0 00.1.8l.3.5.5.3h1.2l.5-.2zM49.8 70.3a2 2 0 01.8-.4 1.5 1.5 0 01.9-.2l1.1.2a1.5 1.5 0 01.9.7 3.3 3.3 0 01.5 1.2 12.1 12.1 0 01.1 2 11.5 11.5 0 01-.1 2 3.2 3.2 0 01-.5 1.3c-.3.3-.5.6-.9.7l-1.1.2h-.8l-.8-.3V81h-1.4V69.8h1.2v.5zm.1 6.4l.5.2h1.3a1.3 1.3 0 00.6-.5 6.2 6.2 0 00.3-1 7.1 7.1 0 00.1-1.6 6.6 6.6 0 00-.1-1.5 6.2 6.2 0 00-.3-1l-.6-.5-.7-.2h-.6l-.5.3zM57.2 70.6c.2-.2.5-.2.7-.3h1a2.5 2.5 0 011.2.2 2.4 2.4 0 01.9.6 3.3 3.3 0 01.5 1.2 9.2 9.2 0 01.2 1.9 9 9 0 01-.2 1.8 2.3 2.3 0 01-.6 1.2 1.3 1.3 0 01-.9.7l-1.3.2-1.3-.2a1.3 1.3 0 01-.9-.7 3.4 3.4 0 01-.6-1.2 9 9 0 01-.2-1.8v-2.8a8 8 0 01.3-2.3 2.5 2.5 0 011.9-2.2 4.8 4.8 0 011.8-.3h1.8v.6l-.9.4-1.2.2-1 .2-.8.5a7.9 7.9 0 00-.4.9 4.9 4.9 0 000 1.2zm0 3.5a6.6 6.6 0 00.1 1.5 4.6 4.6 0 00.3.9l.5.5h1.2a1.2 1.2 0 00.5-.5 4.6 4.6 0 00.3-.9 11.3 11.3 0 000-3l-.3-.9-.6-.4-.8-.2h-.7l-.5.2zM69.1 73.8a10.3 10.3 0 01-.2 2 2.6 2.6 0 01-.6 1.3 1.6 1.6 0 01-.9.7l-1.3.2-1.2-.2a2.3 2.3 0 01-1-.7 3.9 3.9 0 01-.5-1.3 10.3 10.3 0 01-.2-2 10.1 10.1 0 01.2-1.9 3.2 3.2 0 01.5-1.3 2.3 2.3 0 011-.7l1.2-.2 1.3.2a1.6 1.6 0 01.9.7 2.3 2.3 0 01.6 1.3 10.1 10.1 0 01.2 1.9zm-1.4 0a6.1 6.1 0 00-.2-1.5 2.9 2.9 0 00-.3-1.1 1.2 1.2 0 00-.5-.5h-1.1l-.5.5a2.9 2.9 0 00-.3 1.1 6.1 6.1 0 00-.2 1.5 6.3 6.3 0 00.2 1.6 2 2 0 00.3 1 1 1 0 00.5.6h1.1a1 1 0 00.5-.6 2 2 0 00.3-1 6.3 6.3 0 00.2-1.6zM72.3 77.8h-1.4v-8h1.4v3.5h2.6v-3.5h1.5v8h-1.5v-3.5h-2.6zM80.5 78h-.9l-.8-.4a1.6 1.6 0 01-.5-.8 3.9 3.9 0 01-.2-1.3 3.7 3.7 0 01.2-1.2 1.3 1.3 0 01.5-.7 1.2 1.2 0 01.8-.4h2.5v-.7a2.2 2.2 0 00-.1-.9l-.3-.5-.6-.3h-2.3V70l.9-.2H82l.9.4a2.2 2.2 0 01.5.8 5.2 5.2 0 01.2 1.4v5.4h-1.2v-.4h-.1l-.7.4zm1.6-4.1H81a1.7 1.7 0 00-1 .3c-.3.2-.4.6-.4 1.2a1.7 1.7 0 00.1.8l.3.5.5.3h1.2a.5.5 0 00.4-.2zM90.2 69.8v1.1h-2.1v6.9h-1.4v-6.9h-2.1v-1.1z" fill="#333"/><path fill="none" stroke="#333" stroke-miterlimit="10" d="M349 237.2l23.8-27.6h101.8"/><path d="M340.4 241.8h0a4.9 4.9 0 114.9 4.9 4.9 4.9 0 01-4.9-4.9z" fill="#ffc200" stroke="#333" stroke-miterlimit="10" stroke-width="3"/><path d="M380 179.5h-1.5v-11l1.3-.2h1.3l1.6.2a1.6 1.6 0 011.1.7 2.3 2.3 0 01.6 1.2 9.1 9.1 0 010 3.8 3.2 3.2 0 01-.5 1.3l-1 .7-1.3.2H380zm1.1-4.4h.9a1.2 1.2 0 00.7-.5 1.9 1.9 0 00.3-.9 5.2 5.2 0 00.2-1.4 6.1 6.1 0 00-.2-1.5 3.2 3.2 0 00-.3-.9l-.7-.4-.9-.2H380v5.9zM388.2 179.7h-1l-.7-.4a1.6 1.6 0 01-.5-.8 3.9 3.9 0 01-.2-1.3 3.7 3.7 0 01.2-1.2 1.3 1.3 0 01.5-.7 1 1 0 01.7-.4h2.6v-.7a2.5 2.5 0 00-.1-.9 1 1 0 00-.4-.5l-.5-.3h-2.4v-.6l1-.2h2.2a1.9 1.9 0 01.9.4 2.4 2.4 0 01.6.8 6.1 6.1 0 01.1 1.4v5.4H390v-.4h-.1a2 2 0 01-.8.4 1.5 1.5 0 01-.9 0zm1.6-4.1h-1.1a1.4 1.4 0 00-1.5 1.5 1.5 1.5 0 00.2.8.5.5 0 00.3.5l.4.3h1.2l.5-.3zM397.4 176.6l1.8-5.1h1.7l.6 8h-1.4l-.4-5.6h-.1l-1.6 4.4h-1.3l-1.7-4.4h-.1l-.4 5.6h-1.3l.5-8h1.7l1.9 5.1zM406.7 175.3l.7.4a3.6 3.6 0 01.6 1.1l.4 1.5a.5.5 0 00.2.4.8.8 0 00.7.2v.6h-.9a1.5 1.5 0 01-1-.3 2.9 2.9 0 01-.6-1.1l-.4-1.5a1 1 0 00-1-.9h-.6v3.6h-1.4v-8h1.4v3.3h.6a.6.6 0 00.5-.2 2.1 2.1 0 00.4-.7l.4-1.2a4.4 4.4 0 01.6-1 1.3 1.3 0 011-.3h.9v.7h-.7l-.3.4-.4 1.2a4.6 4.6 0 01-.5 1l-.6.4zM412.6 179.7h-1l-.7-.4a1.6 1.6 0 01-.5-.8 3.9 3.9 0 01-.2-1.3 3.7 3.7 0 01.2-1.2 1.3 1.3 0 01.5-.7 1 1 0 01.7-.4h2.6v-.7a2.5 2.5 0 00-.1-.9 1 1 0 00-.4-.5l-.5-.3h-2.4v-.6l.9-.2h2.3a1.9 1.9 0 01.9.4 2.4 2.4 0 01.6.8 6.1 6.1 0 01.1 1.4v5.4h-1.2v-.4h-.1a2 2 0 01-.8.4 1.5 1.5 0 01-.9 0zm1.6-4.1h-1.1a1.4 1.4 0 00-1.5 1.5 1.5 1.5 0 00.2.8.5.5 0 00.3.5l.4.3h1.2l.5-.3zM384.9 197.7v3.4h-.9a4.3 4.3 0 01-.2-1.1 5.1 5.1 0 01-.2-1.3h-4.7a5.1 5.1 0 01-.2 1.3 2.3 2.3 0 01-.3 1.1h-.8v-3.4h.7l.4-.8a3.3 3.3 0 00.3-1.5l.2-4.7h4.8v7zm-4.3-5.9l-.2 3.6a6.1 6.1 0 01-.2 1.5l-.5.8h2.8v-5.9zM390.5 193.2h-.1l-2.5 5.5h-1.5v-8h1.4v5.5h.1l2.4-5.5h1.7v8h-1.5zM397 191.5l-.8.2-.6.5a6.2 6.2 0 00-.3 1 6.6 6.6 0 00-.1 1.5 7.1 7.1 0 00.1 1.6 2.3 2.3 0 00.4 1c.1.3.3.4.6.5l.9.2h1.6v.6l-.9.2h-1.1l-1.4-.2a2 2 0 01-.9-.7 2.3 2.3 0 01-.6-1.3 10.3 10.3 0 01-.2-2 12.3 12.3 0 01.2-2 2.3 2.3 0 01.6-1.2 1.6 1.6 0 01.9-.7l1.3-.2h1l.9.2v.6zM404.8 190.7v1.1h-2.1v6.9h-1.5v-6.9h-2v-1.1zM407.9 198.9h-1l-.7-.4a1.1 1.1 0 01-.5-.8 2.4 2.4 0 01-.2-1.3 2.2 2.2 0 01.2-1.2c.1-.3.2-.6.5-.7a1 1 0 01.7-.4h2.6v-.7l-.1-.9a1 1 0 00-.4-.5l-.5-.3h-2.4v-.6l.9-.2h2.3a1.9 1.9 0 01.9.4 2.2 2.2 0 01.5.8 3.2 3.2 0 01.2 1.4v5.4h-1.2v-.4l-.8.4a1.5 1.5 0 01-1 0zm1.6-4.1h-1.1a2 2 0 00-1.1.3 1.9 1.9 0 00-.4 1.2l.1.8.3.5.5.3h1.2l.5-.3zM414.4 198.7H413v-8h1.4v3.5h2.7v-3.5h1.4v8h-1.4v-3.5h-2.7zM427 197.7v3.4h-.9l-.3-1.1-.2-1.3h-5v-8h1.4v7h2.6v-7h1.4v7zM432.6 193.2h-.1l-2.5 5.5h-1.6v-8h1.5v5.5h.1l2.4-5.5h1.6v8h-1.4zM441.7 194.7a5.9 5.9 0 01-.2 2 3.2 3.2 0 01-.5 1.3 2.3 2.3 0 01-1 .7l-1.2.2-1.3-.2a1.6 1.6 0 01-.9-.7 2.3 2.3 0 01-.6-1.3 10.3 10.3 0 01-.2-2 10.1 10.1 0 01.2-1.9 2.3 2.3 0 01.6-1.3 1.6 1.6 0 01.9-.7l1.3-.2 1.2.2a2.3 2.3 0 011 .7 3.2 3.2 0 01.5 1.3 5.5 5.5 0 01.2 1.9zm-1.4 0l-.1-1.5a1.9 1.9 0 00-.4-1 1 1 0 00-.5-.6h-1.1a1 1 0 00-.5.6 4.1 4.1 0 00-.3 1 6.1 6.1 0 00-.2 1.5 6.3 6.3 0 00.2 1.6 4.1 4.1 0 00.3 1 1 1 0 00.5.6h1.1a1 1 0 00.5-.6 1.9 1.9 0 00.4-1l.1-1.6zM444.9 198.7h-1.4v-8h1.4v3.5h2.7v-3.5h1.4v8h-1.4v-3.5h-2.7zM452.5 198.7h-1.4v-8h1.4v3.5h2.7v-3.5h1.4v8h-1.4v-3.5h-2.7zM460.8 198.9h-1l-.8-.4a2.8 2.8 0 01-.5-.8 4.5 4.5 0 01-.1-1.3 4.1 4.1 0 01.1-1.2c.2-.3.3-.6.5-.7a1.2 1.2 0 01.8-.4h2.6v-.7a2.4 2.4 0 00-.2-.9.5.5 0 00-.3-.5l-.6-.3H459v-.6l.9-.2h2.3l.9.4a2.2 2.2 0 01.5.8 5.9 5.9 0 01.2 1.4v5.4h-1.2v-.4h-.1l-.7.4a1.5 1.5 0 01-1 0zm1.6-4.1h-1.2a1.7 1.7 0 00-1 .3 1.5 1.5 0 00-.4 1.2 1.7 1.7 0 00.1.8l.3.5.5.3h1.2l.5-.3zM467.3 195.3l-.7-.2a1.5 1.5 0 01-.6-.5l-.4-.6a2.9 2.9 0 01-.2-.9 5.1 5.1 0 01.2-1.3 1.3 1.3 0 01.6-.7 2.5 2.5 0 01.9-.4h2.6l1.2.2v7.8h-1.4v-3.1h-.6a1.1 1.1 0 00-1 .8l-.4 1.1a3.6 3.6 0 01-.6 1.1 1.5 1.5 0 01-1 .3h-.9v-.6h.7l.3-.5.4-1.1c.1-.3.2-.6.4-.7a1 1 0 01.5-.4zm1.1-3.8a2.1 2.1 0 00-1.2.4 2 2 0 000 2.4 2.1 2.1 0 001.2.3h1.1v-3.1z" fill="#333"/></g></svg>