<svg id="profilka" xmlns="http://www.w3.org/2000/svg" width="249" height="279.5"><path d="M128.1 278.8L1 222.8V1L58.5.6l-.4 136.6L185.2 121c21.5-.1 41.8 6.2 62.4 11.8 1 12.7-1.3 69.8-2.1 83.8l-.9.9-22.1 2.1-2 51.6-9.6-.9-4.8 2-20.5-7.4-1.6 1.3.6 7.5-4.4.7c-13.7-6.3-21.2-8.4-36.2-5.2l-2.3 5.6 2.5.8-.2 2-5.2.9-5.2-2.1v2.1z" fill="#fff"/><path d="M211.3 142.3h-30v-19.6L57.1 137.1 57.2.8l97.9-.5 55.2 63.5 1 78.5z" fill="#ffc200"/><path d="M206.1 65v72.2h-14.5V65L139.8 0h11.4z" fill="#fff"/><path d="M190.6 174.3v17.5h-2.1l-3.1-2 1.1-32c11.1-3.3 22.7-1.7 34.1-2.1l8.3 8.3-1 26.8-7.3-2-2-9.3-5.2-2.1-1-2.1h-2.1v2.1l-1 1-1.1-4.1zm-20.7 85.6l4.1 2.1 27-2.1c2.6-11.3 1-23.4 2-35l-7.2-5.2-25.9 1z" id="armirovka" fill="#333"/><path d="M190.1 225.4h9.3l1 1-1 30.9-1 1.1-22.8 1-1.1-1 1.1-31c3.1-1.8 6.9-1.4 10.3-2l.2-2.1-11.2.5-2 1.9-.9 35 2.4 1.3 26.3-2 1.3-2.1 1.1-32.9-2.3-2.3-10.7.3zM174.9 224.2l-4.3-1.9M172.9 226.1l-2.2-.8M199.4 257.3l-24.9-7.2M173 261.1l-3.3-1.7m31.8-36.1l-6.9-3.1m-4.5 3.1l-5.6-2.7m1.5 2.7l-5.6-2.5m9.7 4.6l-4.2-2.1m39.4-33l1.2-26.1-5.7-5.9H197l-5.7 5.4-.9 27.6h-2.1l1-28.5 6.8-6.5 25.1-.2 7.3 7.5-1.1 26.7zm-37.3 1l-2.1-1m39.7-.2l-5.3-1.1" fill="none" stroke="#fff"/><path d="M201 65v71.1h-5.2V65L145 1h3.1z" fill="#eaeaea"/><path d="M185.7 63.9L137.4.9h3.8l49.7 63zm19.4 0L152.6 1h3.1l55.1 63.4z" fill="#c9a12f"/><path d="M168.3 186.2l10.8-27.6-.7-1.1-17.2-1.8-.8 30.7zm-6.9-33.4l16.6 2.1a8.1 8.1 0 01.7-7.1V136s-6.3.8-6.1-7.7c0 0-10.9 1.5-11 5.3l-.2 19.2zm20.2 5.5h1.5l-6.9 34.1h-3.1s.6-3.6-1.7-4.8zm3.3 0l-1.7 34.1H179zm47.7 49.5l11.4-.2v8.2l-10.7.5a8.6 8.6 0 00-.7-8.5zm-4.2-12.3l15.8-.3-.2 9.6-15.6.5v-9.8zm12.3-17.6h4.5l-.4 14.5h-4.6l.5-14.5zm-8 0h5.9l-.3 14.8-6 .2.4-15zm12.8-2l.5-15.5h-5l-.5 15.5h5zm-6.9-15.2l-.3 15.2h-5.6l.6-22.5a2 2 0 002-1.3h1.4c-.1.5-2 8.4 1.9 8.6zm-18.5-33.3v11.9l16.6.3v-7.9l-16.6-4.3zm24.8 19.6h.1l.2-12.7-6.4-1.9v8.3zm-113.2 76.5l16.1-1.8c-2-1.6 1.6-15.5 1.9-15.8v-5.5s-8-.2-6.1-7.8c0 0-12.4 2.7-11.5 6.1zm8.7 20.4v22.3l-9.1.6.6-19.8zm12.4-19.7l-.5 41.8-9.9.8c-.7-19.9-.8-25.5 10.4-42.6zm2.1 0v41.4l12.1-1.1 1.1-43.4zm52.7-4l-.4 21.2 4.8-.2.4-18.9a1.9 1.9 0 01-2.2-2.1zm-.1 23.5l-.3 17.7 4.5-.4.3-17.7-4.5.4zm6.8-.1l3.8-.3-.3 17.1-3.9.5.4-17.3zm.4-21.8l4.8-.2c-.2 1-.1 7.6-1.1 8.2h-4zm-.5 10.1l-.1 9.4 4-.3.1-9.4-4 .3zm-65-7.7l-8.1 16.8-9 3.2v-17.9zm.5-23.6l-17.2-2.2m15.1 22.8l-15.5-3.1m8.8 22.7l-8.8-2m7.7 26.8l-8.2-3.1m20.5 2.9l-9.3-2.9m23.8 2l-11.4-4.1M178.5 136l-16.1 1.4m81 77.4l-9.2-1.3M238.5 161.2l-5.2-.1M236.4 132.3l-15.8 1.2m23.2 70.5l-14.9-1.6m16.1-67.8h-6.2M219.1 229.5l-4.9-2.2" fill="none" stroke="#333"/><path d="M152.9 187.1s-22.7 3.8-23 11l-1.3 80.9h5.4l-.2-3h-2.7l.2-6.2h9.3l-2 8.5 5.4-.5.6-2.5h-2.7l1.8-6.1 37.2-3 1.3 5.9-2.1.3.3 2.2 4.4-.4s-2.9-8.2.3-8.4l21.8-1.7c1.7 0 1.2 4.5 1.7 5.5l-1.9.4v2.1l4.5-.3-1.4-8.1h8.1l.3 5.2-2.8.2v2.4l5.1-.5 1.9-60.1-5.1-.2v2.4c2.9-.7 3.9 2.5 2 5.4l-6.9-2.5.5-4.9h-3.8l-1 2.1h2.7l-1.9 3.6-41.1 1.8c-28.9 8.1-11.8-1.7-14.9-31.5zm55.3 25.9l-55.1-7.4m64.6 7.2l-4.6-.9M217.5 210.4l-64.8-8.7M138.3 277.9l-3.8-1m45.8-2.7l-18.9-6.6m19.4 4.2l-13.2-4.2m39.1 4.3l-19.4-6.3M215.6 271.3l-4.6-1.9m4.7-.5l-5.2-1.7" fill="none" stroke="#333"/><path fill="none" stroke="#333" d="M10.9.5v181.6l119.6 14.1M25.6 176.5L10.9 182m214.7 27.3v-13.8h-7.5v-3.1H216v-3.1h1.9l-1.4-8.3h-13.4l-1.9 9.2h2.4v3.1h-2.1v2.8l-16.8.4c1.4-3.8-12.8-1.7-14.4-2.2l.2-5.1H160v3.1h2l.4 3.1h-5.5v-62.5c1.2 0 1.5-4.4 5.4-5.4l18.6-4.9"/><path d="M214.2 124.2s34.1 7.2 33.9 9-.5 16.4-.5 16.4c2.9 2.1-2.1 63.2-1.4 64.1 1.9 7-18 3.9-22.7 5.4" fill="none" stroke="#333"/><g id="uplotnipel" fill="#333"><path d="M157.5 184.4L29 174.2V0h-4.2v176.5c41.4 4.9 84.5 7.1 126.4 11v4.3h-1v-2c-5.8-.2-5.8 8.5 0 8.2v-2h2.1l1 2c-.1-1.1 3-3.5 4.2-3.1z"/><path d="M59 135.3V0h-4.1v139.5L180.2 124v2.9h-1v-1.7c-6.7-.3-6.6 9.4 0 8.9v-1h1v2c5.7-3.5 6.9-10.3 6.3-16.1zm168.7 73l.2 2.1h-2.1v-2.1l-73.1-8.9-.2 2.8 69.2 8.2v12.4a37 37 0 014.5-7.7l1.7.5v1c5.5-.1 5.3-8.5-.2-8.3zm-12.2-81.4v1h-1.1v-4.1c-1.5-.5-3.5-4.5-3.1-5.7l-1-.5V132c1.7-.3 3.4-1.1 5.2-1v1c4.1-.1 4.1-5.3 0-5.1z"/></g><path d="M180.8 133.6v14s-3.1 6.2.3 7.1 17.3-2.3 17.3-2.3v-2.3l35.2.3V149h3.1v-7.2l-18.6-.5V137l-4.2-.6v-5.9m17.1 22.7h-12.9v1H216v-1h-6.2v1a71.2 71.2 0 00-22.9 3.1l-1.1 36.3 12.6-.4c0-3.5-.5-12.6 4.4-15l3.7-.2 1.1-3.2h1.1v3.1h1.8v-3.1h2.1l.8 3.1s4.7.2 5.3 1.9c.9 4.3 1.7 9.7 1.4 12.6h3v-2.1h5.2v2.1h1.2zm7.8 2c3.6-1.7 2.8-4.4 1.9-6.2-2.2 1.7-3.1 8.2-2.1 9.6l6.9-.2.4-5.4-1.9-.4-3.1 4.7h-2.1m7.2-4.1l1.3-3.4m-29.3-8.4l-6.7.2m2.6-4.9h-3.1m5.3 52.7l-14.5-1m14.5 4.2l-11.7-.9m13.9 2.6l-16.5-1.1m-3.4-43.1l-18.4.8m18.4 1.5l-18.4.5m28.3 21.6l-17.3-.6m14.6 4l-14.5-.1" fill="none" stroke="#333"/><path fill="none" stroke="#333" d="M181.8 148l29.8.2.2-5.3-30-.3v5.4zM136.7.5l49.2 64.1v77.2h5.2V64.5L140.4.5z"/><path d="M206.3 141.8h4.5V64L155.5.5h-3.7l53.8 63.7z" fill="none" stroke="#333"/><path d="M154.9.5H.5V223l127.4 56M62.7 1v134.1M67.8 1v133.1M73 1v133.1M78.2 1v132.1M84.4 1v131M90.6 1v131M96.8 1v130m7.3-130v129m7.3-129v127.9M118.6 1v126.9M125.9 1v125.9M134.1 1v124.8m8.3-118.6v117.6m8.3-106.2v105.2m9.3-92.9v91.8m9.4-79.4v78.4m8.3-68.1v68.1M177.7 54.1h5.1m14.5 0h4.2m-31.1-10.3h4.1m14.5 0h4.2m-7.3 20.7h5.2m-31.1-33h5.2m13.5 0h4.1M142.4 7.7h4.2m12.4 0h3.1M150.2 19.1h5.2M168.3 19.1h3.1m34.2 45.4h5.2" fill="none" stroke="#333"/><path fill="#333" d="M180.2 136.1h31.1v7.2h-31.1z"/><path fill="none" stroke="#333" d="M193.2 265l13.5 4.7M207.7 257.3l4.1 2.1m2.3-2.3l4 2.3m.1-19.5l-4-1.6m-2.1 3.8l-4.9-2.2M185.9 142.9v5.1m-15.6 73.2l-.9 43.3 34.7-3 1.2-41.8z"/><defs>
        <linearGradient id="linear-gradient1" x1="500%" y1="500%" x2="-150%" y2="-150%" >
            <stop offset="0" stop-color="#333">
                <animate attributeName="offset" values="0.2;0.4;0.6;1" dur="2.5s" repeatCount="indefinite"  /> 
            </stop>
            <stop offset="1" stop-color="#ffc200">
               <animate attributeName="offset" values="0.1;0.6;0.8;1" dur="2.5s" repeatCount="indefinite"  /> 
            </stop>
             <stop offset="0" stop-color="#333">
                <animate attributeName="offset" values="0.2;0.4;0.6;1" dur="2.5s" repeatCount="indefinite"  /> 
            </stop>
        </linearGradient>
    </defs></svg>