<svg xmlns="http://www.w3.org/2000/svg" width="261" height="261" viewBox="0 0 261 261">
    <circle cx="130.5" cy="130.5" r="130.5" fill="#f2f2f2" />
    <path
      d="M164.3 250.1l-12.4-1.6a69.5 69.5 0 00.6-33.3 88 88 0 01-2.9 33.4 36.3 36.3 0 01-11.1-2.1c3.2-18.3-3.2-52.5 23.7-50.6a94.4 94.4 0 012.1 54.2zM77.5 249.7c4.8-4.7 8-11.6 8-20.4-.1-32.2-41.1-37.4-54.5-15.6a130.3 130.3 0 0046.5 36z"
      fill="#333" />
    <path
      d="M30 212.5c19.9-16.2 53.4-10.9 64.4 13.6H142v-17.7l-46.2-.2c-17-23.3-52.5-23.4-73-5.7 2.3 3.4 4.7 6.8 7.2 10z"
      fill="#fff" />
    <path d="M66.2 243.8c4.8-2.8 8.3-7.9 8.3-15.3-.1-21.7-30-23.7-35.7-6.1a129.6 129.6 0 0027.4 21.4z"
      fill="#fff" />
    <path d="M152.2 141l-10.2-1v41z" fill="#ffc200" />
    <path d="M158 136c-.7-4.4-3.6-7.8-4.4-10.7-.4-6 10.1-12.9 26.4-17.3 17.2 20.8-6.3 55.3-22 28z"
      fill="#fff" />
    <path
      d="M164.7 134.6a28 28 0 0013.8 3.5c-1 6.1-11.7 2.2-14.5-.1l.7-3.4zm1 1.2l-.7 2.1c2.2 1.1 9.4 3.9 12 1.1a25.5 25.5 0 01-11.3-3.2zM178.9 128.9c-.5 2.5 1.5 2.7 1.9.3s-1.5-2.7-1.9-.3zM169.4 125.6c-1 2.3-2.8 1.3-1.7-.9s2.8-1.3 1.7.9z" />
    <path
      d="M185.2 126.3c-2.2-3.6-8-.7-11.5-2.8-4.4-7-12.5-1.9-18.2 3.1 2.6 1.4 3.7-3.7 7.2-2.8-1.6 8.7 7.1 9.6 10.9 1.4l3 .8c-2 2.1.1 9.6 4.8 9.2 3.2-.4 5.9-5.8 3.8-8.9zm-19.3 3.5c-5.7-4.1 1.1-12.2 6-6.4 1 2.5-3.7 7.3-6 6.4zm15.4 3.9c-3.8.1-5.8-5.8-2.7-8 5.9-2.9 8.5 7.1 2.7 8z" />
    <path d="M170.7 133.1h4c-.6-1.8-2.1-3.6-1.4-5.6 2 4.1 4.4 8.7-2.6 5.6z" />
    <path
      d="M173.5 106.9c-6.5-3.3-28 16.4-17.4 23.6.6 8.8 6.2 15.4 12.6 16.3s12.8-6 13.8-7.3a22 22 0 001.3-23.8 29 29 0 00-10.3-8.8zm-16.4 23.4h.7l-.1-.9c-4.5.5-5.5-8.7-.3-7.2.1-.6-1.5-1.1-1.7-.8 11.6-26.7 36-8 28.3 13.3-7.8 18.8-24.6 11-26.9-4.4z" />
    <path
      d="M189.2 123.7a49.6 49.6 0 01-6.7-1.8 76.5 76.5 0 00-12.6-2.7 62.4 62.4 0 00-10.8-.8h-2.2c-2.3 0-3.7 0-3.9-1v-.3l.2-.2c1.9-1.5 2.4-4.4 1.9-6.6v-.3a16.4 16.4 0 0115.3-10.6c8.8 0 18.7 6.9 20 19.6 2.2.9 2.3 2.1 2.2 2.6s-1.6 2-3.4 2.1h-.1z"
      fill="#f2f2f2" />
    <path
      d="M170.5 99.9c9 0 18.5 7.3 19.6 19.5 3.6 1.2 2.2 3.7-.8 3.8-6.6-1.3-9.2-3.2-19.4-4.5a63.8 63.8 0 00-10.8-.8h-2.2c-2.1 0-3.3 0-3.4-.6 2.1-1.6 2.6-4.9 2.1-7.1a16 16 0 0114.9-10.3m0-1c-7 0-12.8 4-15.8 10.9v.6c.4 2-.1 4.8-1.8 6.2l-.5.3v.6c.2 1.4 2.1 1.4 4.4 1.4h2.2a60.7 60.7 0 0110.7.8 77.3 77.3 0 0112.5 2.7 47.5 47.5 0 006.8 1.8h.2c2.1-.1 3.7-1.1 3.9-2.5s.1-2-2.2-3a21.4 21.4 0 00-20.5-19.8z" />
    <path
      d="M190.2 118.2c-11.2 2.1-25.2-2.4-34.8-3.4M189.9 116a80 80 0 01-29.3-2.2c-.4-.6-4-1.4-5.2-.6M186.6 116s-4.9-7.3-4.7-11.4M174.7 116.6s6.9-6.8-.5-14.1"
      fill="none" stroke="#000" />
    <path
      d="M63.3 217.8c-1.1 2.5-5 .8-3.9-1.7s5-.8 3.9 1.7zM46 224c-1.1 2.5-5 .8-3.9-1.7s5-.7 3.9 1.7zM70.2 234c-1 2.5-5 .8-3.8-1.6s4.9-.8 3.8 1.6z" />
    <path
      d="M146 201c.5 4.2.7 2.9 3 2 4.3 3.7 6.9-5.1 6.9-7a10.9 10.9 0 006.5-.1c4.4-14.3 8.3-28.8 13.5-42.9 2.8-11.3-10.5-8-16.2-11.8L146 201z"
      fill="#fff" />
    <path d="M156.1 193.3c.4 3.1-3.1 14.9-7.2 9.2.2-2.3 2.9-3.8 3.6-7" fill="none" stroke="#000" />
    <path d="M138.6 246l-1.1 4.5c4 1.3 17.8 8.5 12-2-2.6.9-9.3-.8-10.9-2.5z" stroke="#000" />
    <path
      d="M139.9 226.5c-.3 5.8-.7 13.8-1.3 19.5M149.1 202.2c-.1.4-2.4 2.8-2.9.8s3.4-7.3 4.3-8.5M148.5 188.5c3.1-1.3 8.1 2.9 7.5 5.9 2.2-12.7 12.9-25.2 18.3-37.1"
      fill="none" stroke="#000" />
    <path d="M164.3 250.2c2.5 2 3.5 3.4 3.2 4.3s-6.3 1.3-17-1l1.4-5c4 .7 8.3 1.3 12.4 1.7z" stroke="#000" />
    <path
      d="M158.7 139.8c3.2 4.1 6.4 2.8 12.3 4.3 11.9 3.2.3 16.5-.6 25.2-.3 2.4-8.1 24.6-8.2 27.4 7.2 18.9 5.5 35.1 2.1 53.5l-12.4-1.7a81.7 81.7 0 00.3-36.8c1.7 11.4.5 25.9-2.7 36.9M142 208v18.5H94.2a41.1 41.1 0 00-17.3-18.1 45.7 45.7 0 00-46.4 4.1"
      fill="none" stroke="#000" />
    <path d="M76.5 13.5h66.6c-.4 36.6-.7 174-1.1 213.1" fill="none" stroke="#000" />
    <path d="M142 208.5H95.7a54 54 0 00-37-18.6 54 54 0 00-36.2 11.6M166.5 143.3s-4.1.1-5.3 3.5" fill="none"
      stroke="#000" />
    <path d="M157.6 202.6l-3.6-.8 1.5-3.8 2.6.9-.5 3.7z" />
    <path d="M142.5 131.5v8l9.2 1.8-9.2 40.2v32l17.7-77.6z" fill="#efefef" stroke="#000" />
    <path d="M54.7 236.3c4.5.7 9.6-1.9 9.5-7.8.2-10.4-16.2-10.4-16.1 0a9.4 9.4 0 00.5 3z" fill="#333" />
  </svg>