<svg xmlns="http://www.w3.org/2000/svg" width="261" height="261" viewBox="0 0 261 261">
    <circle cx="130.5" cy="130.5" r="130.5" fill="#f2f2f2" />
    <path fill="#333" stroke="#000" d="M5 166.5h251" />
    <path fill="#fff" stroke="#000" d="M127.5 166.4V33.5h-69l.1 133 68.9-.1z" />
    <path
      d="M123 192.9c-3.6 2-12.1-.1-13.6-1.9l2.1-43.5 32.4.7a366.4 366.4 0 0113.6 44.9c-1.9 2.4-11 1.7-12.1-.3l-16.9-32.3-5.5 32.4z"
      fill="#333" stroke="#000" />
    <path
      d="M118.1 195.8c-6.8 4.9-30.5 4.1-8.7-4.5 4.9.1 7.5 4.5 13.6 1.8l-.5 3.5-4.5.7zM158 197.8c-1.4 8.9-8.7 6.6-11.7-4.1 1.7 1.3 8.6 1.5 10.6.1l1.1 4z"
      stroke="#000" />
    <path d="M130 106c1.1.3 6.3-9.6 9.7-12.8 13.9-3.8-3.2-20.3-5.6-27.8-25.5.7-29 40.3-4.1 40.6z" fill="#fff" />
    <path
      d="M117 93a30.5 30.5 0 0015 0c-2.6 6.6-12.4 6.6-15 0zm6.8 1.9a17.8 17.8 0 01-4.8-.9c1.2 3.1 9.4 4.4 11.6-.1a19.5 19.5 0 01-6.8 1zM119.7 83.6c-.3 2.5-2.2 2.1-1.9-.4s2.3-2.1 1.9.4zM130.7 83.6c.3 2.5 2.2 2.1 1.9-.4s-2.3-2.1-1.9.4zM141.1 91.4a3 3 0 002-2.3l-.8-.5c-.1.6-1.1 2.2-2.6 1.7.2.7.7 1.3 1.4 1.1z" />
    <path
      d="M115.4 88.7c4.4 1.9 8.6-4.6 7.4-7.3l3.1.2c1.2 9 9.7 10.7 10.8 2 3.6.2 3.1 5.3 6 4.8-3.9-6.5-10.1-13.8-16.4-8.4-4 .9-8.6-3.6-11.8-.8s-2 8.3.9 9.5zm12.6-8.2c6.4-4.2 10.5 5.7 3.8 7.9-2.4.1-5.5-6-3.8-7.9zm-7.1.1c2.4 3-1.4 8-4.9 6.8-5.3-2.6.2-11.4 4.9-6.8z" />
    <path d="M126.5 89.3l-3.9-.8c.9-1.7 2.6-3.2 2.2-5.3-2.6 3.9-5.7 8 1.7 6.1z" />
    <path
      d="M119.2 102.1c7.9 4.4 20.3-5.8 20.7-8.4 12.7-2 1.6-29-5.6-28.8-17.6-2.7-30.6 26.2-15.1 37.2zM113 85.5c2.1-22.5 32.2-29.1 31.3 0-.1-.4-1.8-.6-2 0 5.4.9.6 8.7-3.3 6.3l-.4.9.6.3c-8.7 13-27.2 13-26.2-7.5z" />
    <path d="M138.3 77.9A21.6 21.6 0 01145 85c1.3-2.6-2.4-8.4-6.7-7.1z" />
    <path
      d="M148 81.2a14.3 14.3 0 01-4-1.1 61 61 0 00-11.6-3.1 69.4 69.4 0 00-12.8-1.5c-2.2-.1-4.3-.2-6.9-.5h-.1c-1.7-.6-2.8-1.9-2.5-3s.5-1.7 2.8-1.8c3.5-6.2 10.4-13.4 18.7-13.4a16.3 16.3 0 016.1 1.3c7.1 2.7 13 10.3 11.6 15.2h-.1c-1.1 1.9-1.6 4.9-.3 6.9l.2.3-.2.2c-.1.3-.3.5-.9.5z"
      fill="#f2f2f2" />
    <path
      d="M131.6 57.2a14.3 14.3 0 015.9 1.3c7 2.6 12.6 10 11.3 14.6-1.2 1.9-1.8 5.1-.3 7.4l-.5.2c-1.8 0-7.6-3-15.5-4.2-10-2-13.1-1.1-19.8-2-2.7-1.1-3.2-3.9.5-3.9 3.6-6.6 10.5-13.4 18.4-13.4m0-1c-8.4 0-15.4 7.2-19 13.5-2.5.1-3 1.6-3 2.1s.9 2.9 2.8 3.6h.2c2.7.3 4.8.4 7 .5a68.5 68.5 0 0112.7 1.5 57.7 57.7 0 0111.5 3.1 15.1 15.1 0 004.2 1.1 1.7 1.7 0 001.4-.7l.3-.6-.4-.4a6.9 6.9 0 01.3-6.4h.1v-.2c1.4-5.1-4.5-12.9-11.9-15.7a16 16 0 00-6.3-1.4z" />
    <path
      d="M113.5 69.5c9.9 5.6 24.6 5.8 34 8M114.5 67.5a79.6 79.6 0 0028.4 7.3c.6-.4 4.3 0 5.1 1.2M117.6 68.5s7-5.3 8.2-9.2M128.7 72.9s-4.3-8.7 5-13.1"
      fill="none" stroke="#000" />
    <path
      d="M117 148.8l-5.5-46.3 5-3c3.8 8.5 17 7.6 19.7-1.4 2.6.7 10.8 3.2 14.3 10.4s3.2 30.1-7.4 32.2l.7 7.2c-7 2.1-20 2.4-26.8.9z"
      fill="#fff" stroke="#000" />
    <path d="M141.5 114.4s-3.4 3.4-2.8 12.7M127.5 126.5c4.2-1 13.5.6 16.9 2.7" fill="none" stroke="#000" />
    <path
      d="M121.5 148.5a99 99 0 01-39-4c7.3-29.8-6.2-33.8-10.2-59.5 20.1 4.4 25.5-5.2 43.4-1.1-3.8 26 12.3 36.3 5.8 64.6z"
      fill="#ffc200" stroke="#000" />
    <path
      d="M113.5 132.9c-.2-.6.2-1.4 1-2.2-3-1.5-1.7-2.5-1.8-4.4-4.7-4.8 4.8-4.9 8.5-7.1-1.8-4.9-2.3-10.3 2.3-6.7 1.6 1.6.4 3.5 1.5 7.1s4.4 7 2.9 11.2-13.5 4.5-14.4 2.1z"
      fill="#fff" stroke="#000" />
    <path d="M123.5 123.5a17.5 17.5 0 01-10.6 2.8M114.8 130.8s13.2-.4 10.1-4.9" fill="none" stroke="#000" />
    <path
      d="M94.9 88.5c-2.8-1.5-2.9 1.1-5.3-.6-3.2 5.9-8.2-11.2-2.4-8.1a3.4 3.4 0 014.8-3c3.2-3.3 6.8 1.8 8.7 4.3 1.5-1.9 4.8-.2 4.8 1.4l-9 1c.9 2.5.7 4.6-1.6 5z"
      fill="#fff" stroke="#000" />
    <path
      d="M87.5 79.5l2 8M92.1 76.9s-2.4 5.9.9 10.9M96.9 84.3l-1.4-2.8M98.9 83.7s1.4-2.5 1.8-2.4M143.5 140.5c-4.5 2.4-18.6-2.1-20.6-5.8"
      fill="none" stroke="#000" />
  </svg>