<svg xmlns="http://www.w3.org/2000/svg" width="311" height="263"><path d="M313 265H0V4.4A4.7 4.7 0 015 0h303a4.7 4.7 0 015 4.4z" fill="#f2f2f2"/><path fill="#fff" d="M67 64h105v201H67z"/><path fill="#91e89f" d="M83 81h32v79H83z"/><path fill="#dd627d" d="M83 169h32v80H83z"/><path fill="#fbb03b" d="M124 81h32v49h-32z"/><path fill="#f9eb69" d="M124 200h32v49h-32z"/><path fill="#a26bb4" d="M124 139h32v54h-32z"/><path fill="none" stroke="#000" d="M67.5 64.5h105v200h-105z"/><path fill="none" stroke="#000" d="M83.5 81.5h32v79h-32zm0 87h32v80h-32zm41-87h32v49h-32zm0 119h32v49h-32zm32-36.6v-25.4h-32v54h32z"/><path fill="none" stroke="#000" d="M75.5 72.5h89v185h-89z"/><path fill="#fff" stroke="#000" d="M115 88.5l-32-.2m32 9.2l-32-.2m32 9.2l-32-.2m32 10.2l-32-.2m32 9.2l-32-.2m32 9.2l-32-.2m32 9.2l-32-.2m32 10.2l-32-.2m32 23.2l-32-.2m32 10.2l-32-.2m32 9.2l-32-.2m32 9.2l-32-.2m32 9.2l-32-.2m32 9.2l-32-.2m32 10.2l-32-.2m73-144.8l-32-.2m32 9.2l-32-.2m32 9.2l-32-.2m32 10.2l-32-.2m32 9.2l-32-.2m32 82.2l-32-.2m32 9.2l-32-.2m32 10.2l-32-.2m32 9.2l-32-.2m32-90.8l-32-.2m32 9.2l-32-.2m32 9.2l-32-.2m32 10.2l-32-.2m32 9.2l-32-.2m32 7.2l-32-.2"/><path d="M168.3 137.5c-9.2 3.3-19.1-3.1-13.3-15l17 7-3.7 8z" fill="#fff"/><path d="M176 121.7l-5.1 10.5c-2.1-3.5-4.5-5.6-8.2-5.2-2.9-1.6-3-4.5-7.6-2.4l2.9-11.1z" fill="#a292ef"/><path d="M235.6 172.3c-13.8-10.8-20.8-1-35.6-4.8-8-6.7-22.7 0-30.7 5.2-7.3-20.5-2.2-6.1-18.8-8 1.8 8.8 4.3 23 13.5 26.8s14.3-2.8 16-6.7c-3 55.6.2 49.3 47.6 27.9 41.1 4.8 32.6-22.1 8-40.4zm-3.6 26.2h-3.7c-1-22.3-1.3-5.6 9.7-1.1a41.5 41.5 0 01-6 1.1z" fill="#fff"/><path d="M190.2 213.4l1.1.4c2.6-4.3 9-8.3 12.2-9.2-.4-7.1-12.8 4.7-13.3 8.8zm39.7 4.9l-1.9 2.2a122.2 122.2 0 00-10-15l1-1c6.2 1 11.3 11.4 10.9 13.8z" fill="#f4f4f4"/><path d="M165 147.5a42.2 42.2 0 00-2.3 14.9c-1.3 2.6-9.3 3.4-11.3 1.6s.2-3.1-2.7-3.2-4.7-9.2-3.5-9.9 1.8-4.5 4-5.6c.8-5.6 4.3 3.3 6.8-4.8z" fill="#fff"/><path d="M227.8 220.4c-1.3 8.4-45.9 1.2-33.3-9.6 1.7-1.3 4.5-2.4 16.5-.3s15.2 3.4 16.8 9.9z" fill="#707070"/><path d="M190.6 248.7c-4.7-.9-9.8-1.8-14.5-2.5l5.3-21c.6 2.3 7 4.5 8.4 3.5z" fill="#3a3a3a"/><path d="M225.2 215.3a46.1 46.1 0 00-31.4-4.5" fill="none" stroke="#000"/><path d="M205.6 218c1 .2 1.3-.8 2.7-1.1 3.1-.5 5.6 4 7.3 3.1 2.3-6.6 8.7-.5 10.4 1.5-10.1 5-30.8-1-35-7 .1-.1 4.9 3.7 8.2 2 1.7-.8 2.2-2.6 3.3-2.4s1.4 3.7 3.1 3.9z" fill="#a292ef"/><path d="M229.9 219l-8 33.5-31.2-4.3-.6-34.7h0c7.4 9.3 28.6 13.4 39.8 5.5z" fill="#f7f7f7" stroke="#000"/><path d="M190 213c3.5-11.2 22.7-13.8 30.4-8.5a31.7 31.7 0 019.6 14.7" fill="none" stroke="#000"/><path d="M228.3 203.1c1.8 4.5 1 9.9-.2 10.1s-2.3-6.5-7.2-8.1-1.4.9-1 4.4c-.9 6.3-6.1.6-8.3-.3s-2.3 1.3-3.4.8-1.9-3.1-2.3-3.6c-3-1.7-2.5-4.1-1.3-6.9 3-10.8 20.5-4.9 23.7 3.6z" fill="#fff"/><path d="M212.2 197.5c-3.1.3-7.3 6.3-5.5 10.1-4.8-2-3.3-8.2-.5-11.6s11.7-2.6 19.9 2.5c2.2.4 13.6.3 16.3-2.4-6.3 3.9-12.3-2.9-14.3-9.8" fill="none" stroke="#000"/><path d="M205.9 206.4s1.5 6.2 6 2.7c0 0-.6-6.5 4.8-9.5M181 224.4s.9 5.1 9.2 4.1m32.2-32s9.3 4.9 6 17m-64.5-52.6c-3.8 5.6-13.8 3.2-13.8 3.2s3.5 21.9 11.8 26.7 17.4-1.9 18.2-6.4c0 0-2.5 28 .9 40l-4.9 21.8m-12.3-85.6s5.6 10 5.4 11.6" fill="none" stroke="#000"/><path d="M212 209.4c8.5 7.9 9.7-1.7 5.3-4 4.5-3.4 8.3 5.1 10.6 7.9 55.9 6.3 15.6-48-9.5-46.3-6.2 12.5-20.4 8.1-20.9-2-6.4-2.2-24.9 3.1-29 8.1m23 41.5a16.3 16.3 0 0111.9-9.5m15.8 2.1a39.8 39.8 0 018.3 12.8m.5-33.7a62.6 62.6 0 01.5 12.2" fill="none" stroke="#000"/><path d="M150.4 120.8s-8.1 1.3-7.3 4.1 7.3-4.1 7.3-4.1zm-13.5-3.9s-5.9 1-5.3 3 5.3-3 5.3-3zm5.8 16.7s-8.2 1.3-7.4 4.1 7.4-4.1 7.4-4.1zm11.5-24.4s-3.1-7.7-5.7-6.3 5.7 6.3 5.7 6.3zm-9.9 2.4s-5.3-6.3-7.3-4.2 7.3 4.2 7.3 4.2z" fill="#a292ef"/><path d="M147.6 159.4c-7.8-11.6 3-13.5 4.3-3.4-2.4 1.7-4.1-.2-4.9-3" fill="none" stroke="#000"/><path d="M147 149.4s-1.6-1.5.6-3 9.8 8.6 3.9 7.3c.1-1.3-3.2-4.4-4.5-4.3zm2.3-3.1c-1.5-3.8 2.4-3.9 4.2-1.6" fill="none" stroke="#000"/><path d="M158.2 145.8c-1.6 3-8.5.3-5.3-1 .8.2 3.4-1.8 3.4-1.8.8-1.8 6.8 2.4 6.8 2.4 2.7 2.6 1 6.3 1 6.3h0c-.6 1.5-3 8.3-1.4 10m-5.7-6.5s-2.7-5.1 1.6-8.8m-2.8.8c1 1.3-.6 4-2.3 3.5" fill="none" stroke="#000"/><path d="M158.2 142.7l1.9-4.6c6.4 1.5 7.3.5 7.3.5l8.8-16.7-18.7-8.5c-.3 10-10.8 18.6-.3 23.7l-3.7 7.7m-.7-14.2s14.6 6.9 15.3 6.5m-14.6-8.8l15.7 6.9m-14.6-10.4s16.2 7.3 16.3 7.2m-22.6 24.1c-2.8 3.1 1.8 7.3 4 3.6m0 0l4.4-12.7m-5.3 17.2l-.9-2.9" fill="none" stroke="#000"/><path d="M313 265H0v-38a881.4 881.4 0 00158 14 878.7 878.7 0 00155-14z" fill="#fff"/><path d="M269.5 57c-.4 25-37.6 25-38 0s37.6-25 38 0z" fill="#fff" stroke="#333"/><path fill="none" stroke="#333" d="M251.5 48v9.9l6 6"/><path d="M216.8 166.9a24.9 24.9 0 008.8-9c16.3-5.5-5.2-24.5-8.5-33.5-32.4 3.5-32.3 58.8-.3 42.5z" fill="#fff"/><path d="M212.6 138.4l.8-2 5.2 2.3zm-9.3 1.4l-.7-1.4-3.9 2.2zm-4.9 18.5a19 19 0 0016.6-1l1.2 2c-.6.8-4.1 5.3-9.5 5.3-3.3.2-9.4-1.9-8.3-6.3zm15.9.3a17.4 17.4 0 01-15.4 1.2c1.4 5.6 13.6 4.1 15.9-.4zm-13.2-11.1c-.2 3.1-2.5 2.7-2.3-.3s2.6-2.7 2.3.3zm13.1-.7c.5 3.1 2.8 2.4 2.3-.6s-2.9-2.4-2.3.6zm12.9 8.8c1.2-.3 2-1.4 2.3-3l-1-.4c-.1.7-1.1 2.6-2.9 2.2l.5 1.1a2.3 2.3 0 001.1.1z"/><path d="M194.4 128.9a13.2 13.2 0 003.4 6.4c-4.6 9.3-7.7-4.2-3.4-6.4z" fill="#b3b3b3"/><path d="M196.3 154.1c5.3 1.9 10-6.2 8.4-9.4h3.6c2.1 10.9 12.3 12.4 13.1 1.7 4.3 0 4 6.3 7.5 5.4-5.1-7.6-13-16-20.1-9.1l-4.8.3c-9.3-7-15.7 6.4-7.7 11.1zm14.5-10.9c7.4-5.5 13 6.2 5.1 9.3-2.9.3-7-6.8-5.1-9.3zm-8.5.6c3.1 3.5-1.1 9.9-5.4 8.6-6.4-2.9-.5-13.8 5.4-8.6z"/><path d="M209.6 154.1l-4.8-.7 2.5-4.7v-1.9l-3.7 6.8c.3 1.2 5.2 1.7 6 .5z"/><path d="M201.7 170c10.9 5.6 23.6-8.8 24.2-11.5a7 7 0 005.9-9.3c-3.9-55.7-62-5.4-30.1 20.8zm-8.5-19.8c1-27.5 36.5-37.4 37.3-2-.1-.5-2.1-.5-2.3.1l.9.8c3.3-2.2 3.1 9.7-4.4 7.2a5.4 5.4 0 01-.5 1.1l.8.3c-10 16.6-31.3 17.6-31.8-7.5z"/><path d="M223.2 141.1l-.5-3.2-1.6 1.8c-1.2-14.9-14.8.8-22.4-3.7-5.7 11-11.3-5.8-4.3-8.4 14.8-20.7 47.7-1.2 37.4 21.7-.8-2.4-5.5-7.2-8.6-8.2zm-27.8-12.9c3.8 19.1 22.4-6.8 26.3 9l1.8-2 .6 4.1c2.4.7 6.8 5.5 7.3 7.8 6.9-20.8-22.4-37-36-18.9zm-1 .7c-4.3 2.2-1.2 15.7 3.4 6.4a13.2 13.2 0 01-3.4-6.4z"/><path d="M195.4 128.2c14.5-17.7 42.1-3 36 18.9-.5-2.3-4.9-7.1-7.3-7.8l-.6-4.1-1.8 2c-3.9-15.8-22.5 10.1-26.3-9z" fill="#b3b3b3"/></svg>