<svg id="Layer_1" data-name="Layer 1" xmlns="http://www.w3.org/2000/svg" width="460" height="661"><g opacity=".6" fill="#fff"><path d="M141.1 646.1h6.6v1.1h-2.6v10.1h-1.4v-10.1h-2.6zM153.7 653.3a11.2 11.2 0 01-.2 2 3.4 3.4 0 01-.6 1.2 1.5 1.5 0 01-.9.7 4.3 4.3 0 01-2.6 0 1.8 1.8 0 01-.9-.7 6.7 6.7 0 01-.6-1.2 20.1 20.1 0 010-4l.6-1.3.9-.7 1.3-.2 1.3.2a3.1 3.1 0 01.9.7 5.2 5.2 0 01.6 1.3 11.2 11.2 0 01.2 2zm-1.5 0a7.1 7.1 0 00-.1-1.6 6.2 6.2 0 00-.3-1 1.2 1.2 0 00-.5-.5l-.6-.2-.6.2a1.1 1.1 0 00-.4.5 2.3 2.3 0 00-.4 1 7.1 7.1 0 00-.1 1.6 7.6 7.6 0 00.1 1.6 3 3 0 00.4 1l.4.5.6.2.6-.2.5-.5.3-1a7.6 7.6 0 00.1-1.6zM160.7 649.3v8h-1.4v-7h-2.1l-.2 4.4a4.4 4.4 0 01-.6 2.1 1.8 1.8 0 01-1.3.6h-.9v-.7a1.2 1.2 0 00.9-.4 2.7 2.7 0 00.4-1.5l.3-5.4zM162.8 657.3v-8h1.4v6.9h2.2v-6.9h1.4v6.9h2.2v-6.9h1.4v6.9h1v3.4h-.9l-.3-1.1-.2-1.2zM178 651.7h-.1l-2.5 5.6h-1.6v-8h1.5v5.4h.1l2.4-5.4h1.6v8H178zM183 657.3h-1.5v-8h1.5v3.4h2.6v-3.4h1.4v8h-1.4v-3.5H183zM191.2 657.4h-1a1.5 1.5 0 01-.7-.3 2.2 2.2 0 01-.5-.8 5.1 5.1 0 01-.2-1.3 3.7 3.7 0 01.2-1.2 1.6 1.6 0 01.5-.8l.7-.4h2.6v-.8a1.9 1.9 0 00-.1-.8 1.3 1.3 0 00-.4-.6l-.5-.2h-2.4v-.7l.9-.2h2.3l.9.4a2 2 0 01.6.9 4.9 4.9 0 01.1 1.3v5.5H193v-.5h-.1l-.8.5zm1.6-4h-1.1a1.5 1.5 0 00-1 .3 1.4 1.4 0 00-.5 1.2 1.9 1.9 0 00.2.8.5.5 0 00.3.5l.4.2h1.2l.5-.2zM200.3 649.4l1.2-.2h2.4a1.9 1.9 0 01.9.4 1.2 1.2 0 01.5.7 1.8 1.8 0 01.2 1.1 1.3 1.3 0 01-.1.6.8.8 0 01-.2.5l-.4.3-.4.2.5.2a1 1 0 01.5.4 1.6 1.6 0 01.3.6 1.5 1.5 0 01.1.7 4.1 4.1 0 01-.1 1.2 2.4 2.4 0 01-.6.8 1.9 1.9 0 01-.9.3h-2.7l-1.2-.3zm1.5.7v2.5h.9a1.5 1.5 0 001-.2 1.2 1.2 0 00.4-1 1.1 1.1 0 00-.4-1 1.5 1.5 0 00-1-.3zm1.1 6.4a1.8 1.8 0 001.1-.3c.3-.2.4-.6.4-1.2a1.2 1.2 0 00-.4-1.1 1.8 1.8 0 00-1.1-.3h-1.1v2.9zM213.1 653.3a6.2 6.2 0 01-.2 2 3.3 3.3 0 01-.5 1.2 1.7 1.7 0 01-1 .7 2.3 2.3 0 01-1.2.2 2.7 2.7 0 01-1.3-.2 1.3 1.3 0 01-.9-.7 2.3 2.3 0 01-.6-1.2 10.1 10.1 0 010-4 3.1 3.1 0 01.6-1.3 2.2 2.2 0 01.9-.7l1.3-.2 1.2.2 1 .7a5 5 0 01.5 1.3 6.2 6.2 0 01.2 2zm-1.4 0l-.1-1.6a2.3 2.3 0 00-.4-1 .8.8 0 00-.5-.5l-.5-.2-.6.2a.8.8 0 00-.5.5 8 8 0 00-.5 2.6 7 7 0 00.2 1.6l.3 1a1.2 1.2 0 00.5.5l.6.2.5-.2a1.2 1.2 0 00.5-.5 3 3 0 00.4-1l.1-1.6zM216 649.1h1.3a1.9 1.9 0 01.9.4 1.3 1.3 0 01.6.7 3.1 3.1 0 01.2 1.1l-.1.6-.3.5-.4.3-.5.2.5.2.5.4a1.6 1.6 0 01.3.6 1.5 1.5 0 01.1.7 2.8 2.8 0 01-.7 2 3.5 3.5 0 01-1.1.3h-2.5l-.9-.3v-.6h1.9a2.4 2.4 0 001.4-.3 1.4 1.4 0 00.5-1.2 1.6 1.6 0 00-.4-1.1 1.7 1.7 0 00-1-.3H215v-1h1.2a1.5 1.5 0 00.9-.2 1.2 1.2 0 00.4-1 1.1 1.1 0 00-.4-1 2.6 2.6 0 00-1.4-.3h-1.6v-.7l.9-.2zM227.1 656.2v3.4h-.9l-.3-1.1-.1-1.2h-4.7a5 5 0 01-.2 1.2 2 2 0 01-.3 1.1h-.8v-3.4h.7a5.6 5.6 0 00.4-.8 2.8 2.8 0 00.3-1.5l.2-4.6h4.8v6.9zm-4.3-5.9l-.2 3.6a2.8 2.8 0 01-.3 1.5 1.9 1.9 0 01-.4.8h2.8v-5.9zM231.2 657.4a1.3 1.3 0 01-1.2-.5 2.1 2.1 0 01-.7-1.4l-1.5-6.2h1.5l1.4 6.2a2.4 2.4 0 00.3.7l.4.2 1.3-7.1h1.5l-1.6 8.1a5.5 5.5 0 01-.9 2.5 2.1 2.1 0 01-1.7.7h-.7l-.7-.3v-.6h1.6l.4-.3.3-.7a10.4 10.4 0 00.3-1.3zM235.7 657.3v-8h1.4v6.9h2.2v-6.9h1.4v6.9h2.2v-6.9h1.4v8zM247.8 657.3h-1.4v-8h1.4v3.4h2.7v-3.4h1.4v8h-1.4v-3.5h-2.7zM259.6 653.3a11.2 11.2 0 01-.2 2 2.3 2.3 0 01-.6 1.2 1.3 1.3 0 01-.9.7 2.7 2.7 0 01-1.3.2 2.3 2.3 0 01-1.2-.2 1.7 1.7 0 01-1-.7 3.3 3.3 0 01-.5-1.2 10.1 10.1 0 010-4 5 5 0 01.5-1.3l1-.7 1.2-.2 1.3.2a2.2 2.2 0 01.9.7 3.1 3.1 0 01.6 1.3 11.2 11.2 0 01.2 2zm-1.4 0a6.3 6.3 0 00-.2-1.6 2.4 2.4 0 00-.3-1 .8.8 0 00-.5-.5l-.6-.2-.5.2a.8.8 0 00-.5.5 1.5 1.5 0 00-.3 1 6.3 6.3 0 00-.2 1.6 7 7 0 00.2 1.6 1.7 1.7 0 00.3 1 1.2 1.2 0 00.5.5l.5.2.6-.2a1.2 1.2 0 00.5-.5 2.9 2.9 0 00.3-1 7 7 0 00.2-1.6zM265.5 651.7h-.1l-2.5 5.6h-1.5v-8h1.4v5.4h.1l2.4-5.4h1.7v8h-1.5zm-1.4-4.5l.9-.2.6-.4.6.6a2 2 0 01-.8.8 2.8 2.8 0 01-1.3.3 2.5 2.5 0 01-1.3-.3 2.4 2.4 0 01-.9-.8l.7-.6a1.5 1.5 0 00.6.4zM276.3 653.1c.3 0 .5.2.8.4a1.9 1.9 0 01.5 1.1l.4 1.5a.5.5 0 00.3.4h.7v.7h-.9a1.8 1.8 0 01-1.1-.3 2.3 2.3 0 01-.5-1l-.4-1.5c-.2-.7-.6-1-1.1-1h-.5v3.7H273v-8h1.5v3.3h.5l.5-.2a1.5 1.5 0 00.4-.8l.4-1.1a2.9 2.9 0 01.6-1 1.2 1.2 0 011-.4h.9v.6l-.7.2-.3.4-.4 1.1a1.9 1.9 0 01-.5 1 .7.7 0 01-.6.4zM282.2 657.4h-.9a1.9 1.9 0 01-.8-.3 2.2 2.2 0 01-.5-.8 5.1 5.1 0 01-.2-1.3 3.7 3.7 0 01.2-1.2 1.6 1.6 0 01.5-.8l.8-.4h2.5v-.8a1.9 1.9 0 00-.1-.8 3.3 3.3 0 00-.3-.6l-.6-.2h-2.3v-.7l.9-.2h2.3l.9.4a1.9 1.9 0 01.5.9 4.4 4.4 0 01.2 1.3v5.5h-1.2v-.5h-.1a1.8 1.8 0 01-.7.5zm1.6-4h-1.1a1.7 1.7 0 00-1 .3c-.3.2-.4.6-.4 1.2a1.9 1.9 0 00.1.8l.3.5.5.2h1.1l.5-.2zM291.4 654.3l1.9-5h1.7l.5 8h-1.3l-.4-5.7h-.1l-1.7 4.5h-1.3l-1.7-4.5-.4 5.7h-1.4l.6-8h1.6l1.9 5zM302.7 653.8h-4.1a5.3 5.3 0 00.1 1.3 2 2 0 00.4.8 1.8 1.8 0 00.7.5h2.6v.6l-.9.3h-1a4.1 4.1 0 01-1.6-.2 2.1 2.1 0 01-1-.6 3.1 3.1 0 01-.6-1.3 10.1 10.1 0 010-4 3.9 3.9 0 01.5-1.3l.9-.7 1.2-.2 1.2.2a2.2 2.2 0 01.9.7 2.5 2.5 0 01.5 1.3 5.9 5.9 0 01.2 2zm-1.4-1l-.1-1.3a4.6 4.6 0 00-.3-.9 1.2 1.2 0 00-.5-.5h-1a1 1 0 00-.4.5c-.2.2-.2.5-.3.9a4.9 4.9 0 00-.1 1.3zM305.8 649.8l.8-.5.9-.2 1.1.2a2.2 2.2 0 01.9.7 3.9 3.9 0 01.5 1.3 10.1 10.1 0 010 4 5 5 0 01-.5 1.3 1.5 1.5 0 01-.9.6 2 2 0 01-1.1.2h-.8a1.3 1.3 0 01-.8-.3v3.5h-1.4v-11.3h1.2v.5zm.1 6.4l.5.2h1.3l.6-.5.3-1a7.6 7.6 0 00.1-1.6 7.1 7.1 0 00-.1-1.6l-.3-1-.6-.5h-1.3l-.5.2zM315 652.2l.9.2a1.2 1.2 0 01.8.4 1.6 1.6 0 01.5.8 3.9 3.9 0 01.2 1.3 5.1 5.1 0 01-.2 1.3 1.6 1.6 0 01-.6.8 1.9 1.9 0 01-.9.3h-2.6l-1.2-.3v-7.8h1.5v3.1h1.6zm-.5 4.3a1.5 1.5 0 001-.3c.3-.2.4-.7.4-1.3s-.1-1.1-.4-1.3a1.5 1.5 0 00-1-.3h-1.1v3.2zm5.4-7.2v8h-1.4v-8zM321.6 655.6h1.5l-.5 3.5h-1zM332.8 654.3l1.8-5h1.7l.6 8h-1.4l-.4-5.7h-.1l-1.6 4.5h-1.3l-1.7-4.5h-.1l-.4 5.7h-1.3l.5-8h1.7l1.9 5zM342.8 654.3l1.9-5h1.7l.6 8h-1.4l-.4-5.7h-.1l-1.7 4.5h-1.2l-1.7-4.5h-.1l-.4 5.7h-1.4l.6-8h1.7l1.9 5z"/></g><g opacity=".6" fill="#fff"><path d="M.9 92.4l2-2.5a13.6 13.6 0 001.2-1.7 3.3 3.3 0 00.7-1.3 5 5 0 00.2-1.2 3 3 0 00-.4-1.8 1.9 1.9 0 00-1.3-.5H1v-.7l1-.3h1.4a3 3 0 012.3.8 3.7 3.7 0 01.8 2.6 4 4 0 01-.3 1.5 6.1 6.1 0 01-.7 1.4l-1.3 1.6-1.8 2.3h4.1v1.1H.9zM9 92v1.8H7.6V92zM13.7 82.3a3.2 3.2 0 011.4.3 2.8 2.8 0 011 .9 7.5 7.5 0 01.7 1.8 21.6 21.6 0 01.2 2.8 20.3 20.3 0 01-.2 2.8 7.5 7.5 0 01-.7 1.8 2.8 2.8 0 01-1 .9 3.2 3.2 0 01-1.4.3 2.8 2.8 0 01-1.3-.3 3.1 3.1 0 01-1.1-.9 7.6 7.6 0 01-.6-1.8 11.4 11.4 0 01-.2-2.8 11.9 11.9 0 01.2-2.8 7.6 7.6 0 01.6-1.8 3.1 3.1 0 011.1-.9 2.8 2.8 0 011.3-.3zm0 10.6l.7-.2a1.8 1.8 0 00.6-.8 3.9 3.9 0 00.4-1.4 14.4 14.4 0 00.2-2.4 15.4 15.4 0 00-.2-2.4 3.9 3.9 0 00-.4-1.4 1.8 1.8 0 00-.6-.8l-.7-.2-.6.2a1.8 1.8 0 00-.6.8 3.9 3.9 0 00-.4 1.4 8.6 8.6 0 00-.2 2.4 8.2 8.2 0 00.2 2.4 3.9 3.9 0 00.4 1.4 1.8 1.8 0 00.6.8z"/></g><g opacity=".6" fill="#fff"><path d="M5.3 207.5v11.2H3.9v-10H2.1v-.8l1.1-.3h2.1zM8.5 217.1v1.7H7.1v-1.7zM11.6 212.2h.7a3.4 3.4 0 012.6.8 3.4 3.4 0 01.7 2.5 8.1 8.1 0 01-.1 1.6l-.6 1a2 2 0 01-1.1.6l-1.5.2h-1.4l-1-.2v-.7H12a2.2 2.2 0 001.7-.6 2.6 2.6 0 00.5-1.8 3 3 0 00-.5-1.8 2.6 2.6 0 00-1.7-.5h-1.9v-5.7h5.2v1.1h-3.7z"/></g><g opacity=".6" fill="#fff"><path d="M4.9 332.5v11.2H3.5v-10.1H1.7v-.8l1-.2h2.2zM8.1 342v1.8H6.7V342zM12.8 332.3a3.2 3.2 0 011.4.3 2.8 2.8 0 011 .9 6.1 6.1 0 01.7 1.8 20.3 20.3 0 01.2 2.8 21.6 21.6 0 01-.2 2.8 5.4 5.4 0 01-.7 1.7 2.4 2.4 0 01-1 1l-1.4.2-1.3-.2a2.6 2.6 0 01-1.1-1 5.6 5.6 0 01-.6-1.7 11.9 11.9 0 01-.2-2.8 11.4 11.4 0 01.2-2.8 6.3 6.3 0 01.6-1.8 3.1 3.1 0 011.1-.9 2.8 2.8 0 011.3-.3zm0 10.6l.7-.2a2.8 2.8 0 00.6-.8 3.9 3.9 0 00.4-1.5 14 14 0 00.2-2.3 14.4 14.4 0 00-.2-2.4 5.4 5.4 0 00-.4-1.5 2.2 2.2 0 00-.6-.7.8.8 0 00-.7-.2.7.7 0 00-.6.2 2.2 2.2 0 00-.6.7 5.4 5.4 0 00-.4 1.5 14.4 14.4 0 00-.2 2.4 14 14 0 00.2 2.3 3.9 3.9 0 00.4 1.5 2.8 2.8 0 00.6.8z"/></g><g opacity=".6" fill="#fff"><path d="M4.2 457.2a3.2 3.2 0 011.4.3 2.8 2.8 0 011 .9 4.2 4.2 0 01.6 1.8 10.9 10.9 0 01.3 2.8 11.4 11.4 0 01-.3 2.8 3.8 3.8 0 01-.6 1.7 2.4 2.4 0 01-1 1l-1.4.2-1.4-.2a2.4 2.4 0 01-1-1 3.8 3.8 0 01-.6-1.7 11.4 11.4 0 01-.3-2.8 10.9 10.9 0 01.3-2.8 4.2 4.2 0 01.6-1.8 2.8 2.8 0 011-.9 3.2 3.2 0 011.4-.3zm0 10.6l.7-.2a2.8 2.8 0 00.6-.8 7.5 7.5 0 00.4-1.5A15.5 15.5 0 006 463a16.3 16.3 0 00-.1-2.4 15.5 15.5 0 00-.4-1.5 2.2 2.2 0 00-.6-.7 1.1 1.1 0 00-.7-.2 1.1 1.1 0 00-.7.2 2.2 2.2 0 00-.6.7 15.5 15.5 0 00-.4 1.5 16.3 16.3 0 00-.1 2.4 15.5 15.5 0 00.1 2.3 7.5 7.5 0 00.4 1.5 2.8 2.8 0 00.6.8zM10.4 466.9v1.8H8.9v-1.8zM13.4 462h.7a3.7 3.7 0 012.6.8 3.7 3.7 0 01.8 2.6 6.1 6.1 0 01-.2 1.5 2.4 2.4 0 01-.6 1.1l-1 .6h-3l-1-.2v-.7h2.1a2.5 2.5 0 001.7-.5 2.4 2.4 0 00.5-1.8c0-.9-.1-1.5-.5-1.8s-.9-.5-1.7-.5H12v-5.7h5.2v1h-3.8z"/></g><path d="M41.9 9.4l1.4 577.3c88.3.4 325.3.7 413.5 1" fill="none" stroke="#fff" stroke-linejoin="round" stroke-width="2"/><path d="M142.8 612.4a2.6 2.6 0 012.9 2.8 3.1 3.1 0 01-.1 1 2 2 0 01-.4.8 3.4 3.4 0 01-.6.6l-.5.3.7.4.6.6.4.9a3 3 0 01.2 1 3 3 0 01-.8 2.3 3.3 3.3 0 01-2.4.8 3.4 3.4 0 01-2.5-.8 3 3 0 01-.7-2.3 3.1 3.1 0 01.1-1l.5-.9.6-.6.7-.4-.6-.3-.5-.6a2 2 0 01-.4-.8 3 3 0 01-.2-1c0-1.8 1-2.8 3-2.8zm0 10.6a1.9 1.9 0 001.3-.5 2.4 2.4 0 00.4-1.6 1.6 1.6 0 00-.5-1.4 2.7 2.7 0 00-1.2-.9 3 3 0 00-1.3.9 2 2 0 00-.5 1.4 2.3 2.3 0 00.5 1.6 1.7 1.7 0 001.3.5zm0-5.7a2.6 2.6 0 001.1-.7 2.1 2.1 0 00.4-1.4 1.7 1.7 0 00-.4-1.3 1.3 1.3 0 00-1.1-.5 1.2 1.2 0 00-1.1.5 1.7 1.7 0 00-.4 1.3 1.9 1.9 0 001.5 2.1z" fill="#fff" opacity=".6"/><g opacity=".6" fill="#fff"><path d="M240.8 612.6v11.2h-1.4v-10.1h-1.8v-.8l1.1-.2h2.1zM242.1 622.5l2-2.5a8.6 8.6 0 001.3-1.7l.7-1.3a5 5 0 00.2-1.2 3 3 0 00-.5-1.8 1.4 1.4 0 00-1.3-.5h-2.2v-.7l1-.3h1.4a3.2 3.2 0 012.3.8 3.7 3.7 0 01.7 2.6 5.9 5.9 0 01-.2 1.4 5.5 5.5 0 01-.8 1.5 13.6 13.6 0 01-1.2 1.7l-1.9 2.3h4.1v1.1h-5.6z"/></g><g opacity=".6" fill="#fff"><path d="M290.1 612.6v11.2h-1.4v-10.1h-1.8v-.8l1.1-.2h2.1zM291.7 620.9v-1.3l4-7h1.6v7.2h1v1.1h-1v2.9h-1.4v-2.9zm4.1-6l-2.7 4.9h2.8v-4.9z"/></g><g opacity=".6" fill="#fff"><path d="M340.3 612.6v11.2h-1.4v-10.1h-1.8v-.8l1.1-.2h2.1zM345.4 612.4h1.3l1.1.3v.7h-2.1a1.1 1.1 0 00-.8.2 1.3 1.3 0 00-.7.6 8.3 8.3 0 00-.4 1.2 10.9 10.9 0 00-.1 1.9l.9-.2h1a2.2 2.2 0 011.9.8 4.4 4.4 0 01.7 2.7 3.7 3.7 0 01-.8 2.6 2.8 2.8 0 01-2.2.8 2.9 2.9 0 01-2.2-.8 3.7 3.7 0 01-.8-2.6v-3.5a6.9 6.9 0 01.3-2.2 3 3 0 01.6-1.4 1.8 1.8 0 01.9-.8 3.2 3.2 0 011.4-.3zm-1.7 5.6v2.6a3.7 3.7 0 00.1 1.1 2.4 2.4 0 00.3.7l.5.5h1.2a1.2 1.2 0 00.5-.5 2.4 2.4 0 00.3-.7 3.7 3.7 0 00.1-1.1 2.7 2.7 0 00-.5-2 1.8 1.8 0 00-1.5-.6z"/></g><g opacity=".6" fill="#fff"><path d="M189.9 612.6v11.2h-1.4v-10.1h-1.8v-.8l1-.2h2.2zM195.1 612.4a3.2 3.2 0 011.4.3 2.8 2.8 0 011 .9 4.8 4.8 0 01.6 1.8 10.9 10.9 0 01.3 2.8 11.4 11.4 0 01-.3 2.8 4.8 4.8 0 01-.6 1.8 2.8 2.8 0 01-1 .9 3.4 3.4 0 01-2.8 0 2.8 2.8 0 01-1-.9 7.5 7.5 0 01-.7-1.8 21.6 21.6 0 01-.2-2.8 20.3 20.3 0 01.2-2.8 7.5 7.5 0 01.7-1.8 2.8 2.8 0 011-.9 3.2 3.2 0 011.4-.3zm0 10.6l.7-.2a2.8 2.8 0 00.6-.8 8.4 8.4 0 00.4-1.4 17 17 0 00.1-2.4 16.3 16.3 0 00-.1-2.4 8.4 8.4 0 00-.4-1.4 1.8 1.8 0 00-.6-.8l-.7-.2-.7.2a1.8 1.8 0 00-.6.8 8.4 8.4 0 00-.4 1.4 16.3 16.3 0 00-.1 2.4 17 17 0 00.1 2.4 8.4 8.4 0 00.4 1.4 2.8 2.8 0 00.6.8z"/></g><g opacity=".4" fill="#54c65c"><path d="M103.3 415.8a3.2 3.2 0 011.4.3 2.8 2.8 0 011 .9 3.8 3.8 0 01.6 1.8 10.4 10.4 0 01.3 2.8 11.4 11.4 0 01-.3 2.8 3.8 3.8 0 01-.6 1.7 2.4 2.4 0 01-1 1l-1.4.2-1.4-.2a2.4 2.4 0 01-1-1 5.4 5.4 0 01-.7-1.7 21.6 21.6 0 01-.2-2.8 19.1 19.1 0 01.2-2.8 5.2 5.2 0 01.7-1.8 2.8 2.8 0 011-.9 3.2 3.2 0 011.4-.3zm0 10.6l.7-.2a2.8 2.8 0 00.6-.8 10.2 10.2 0 00.4-1.5 15.5 15.5 0 00.1-2.3 16.3 16.3 0 00-.1-2.4 15.5 15.5 0 00-.4-1.5 2.2 2.2 0 00-.6-.7 1.3 1.3 0 00-1.4 0 2.2 2.2 0 00-.6.7 15.5 15.5 0 00-.4 1.5 16.3 16.3 0 00-.1 2.4 15.5 15.5 0 00.1 2.3 10.2 10.2 0 00.4 1.5 2.8 2.8 0 00.6.8zM109.5 425.5v1.7H108v-1.7zM114 415.8h1.4l1 .2v.8h-2.9l-.6.7a3.4 3.4 0 00-.4 1.2 9.2 9.2 0 00-.2 1.9l.9-.3h1.1a2.2 2.2 0 011.8.8 4.3 4.3 0 01.7 2.8 3.8 3.8 0 01-.7 2.6 2.9 2.9 0 01-2.2.7 3.2 3.2 0 01-2.3-.7 3.8 3.8 0 01-.7-2.6v-3.6a12.5 12.5 0 01.2-2.1 2.6 2.6 0 01.6-1.4 1.9 1.9 0 011-.8 2.8 2.8 0 011.3-.2zm-1.7 5.6v2.6l.1 1.1a1.6 1.6 0 00.4.7l.4.4.7.2.6-.2.4-.4a1.6 1.6 0 00.4-.7l.1-1.1a3 3 0 00-.5-2 1.8 1.8 0 00-1.5-.6zM117.9 424.3V423l4-7h1.6v7.2h.9v1.1h-.9v2.9H122v-2.9zm4.1-6l-2.8 4.9h2.8v-4.9z"/></g><g opacity=".4" fill="#a7e8ae"><path d="M103.4 470.8a2.8 2.8 0 011.3.3 2.2 2.2 0 011 .9 7.5 7.5 0 01.7 1.8 11.4 11.4 0 01.2 2.8 11.9 11.9 0 01-.2 2.8 5.4 5.4 0 01-.7 1.7 1.9 1.9 0 01-1 1 2.7 2.7 0 01-1.3.2 3.2 3.2 0 01-1.4-.2 1.9 1.9 0 01-1-1 5.4 5.4 0 01-.7-1.7 21.6 21.6 0 01-.2-2.8 20.3 20.3 0 01.2-2.8 7.5 7.5 0 01.7-1.8 2.2 2.2 0 011-.9 3.2 3.2 0 011.4-.3zm0 10.6l.6-.2a2.8 2.8 0 00.6-.8 3.9 3.9 0 00.4-1.4 16.6 16.6 0 00.2-2.4 14.4 14.4 0 00-.2-2.4 5.4 5.4 0 00-.4-1.5 2.2 2.2 0 00-.6-.7l-.6-.2-.7.2a2.2 2.2 0 00-.6.7 5.4 5.4 0 00-.4 1.5 14.4 14.4 0 00-.2 2.4 16.6 16.6 0 00.2 2.4 3.9 3.9 0 00.4 1.4 2.8 2.8 0 00.6.8zM109.5 480.5v1.8h-1.4v-1.8zM110.6 479.3V478l4-7h1.6v7.2h1v1.1h-1v2.9h-1.4v-2.9zm4.1-6l-2.7 4.9h2.8v-4.9zM120.1 475.6h.7a3.8 3.8 0 012.6.8 3.7 3.7 0 01.8 2.6 6.1 6.1 0 01-.2 1.5 5.4 5.4 0 01-.6 1.1l-1.1.6h-2.9l-1-.3v-.7h2.1a2.6 2.6 0 001.7-.5 3 3 0 00.5-1.8 2.6 2.6 0 00-.5-1.8 2.2 2.2 0 00-1.7-.5h-1.9V471h5.2v1h-3.7z"/></g><g opacity=".4" fill="#54c65c"><path d="M362.8 382.3a2.8 2.8 0 011.3.3 1.9 1.9 0 011.1.9 3.8 3.8 0 01.6 1.7 11.4 11.4 0 01.3 2.8 10.4 10.4 0 01-.3 2.8 3.8 3.8 0 01-.6 1.8 3.1 3.1 0 01-1.1.9 2.8 2.8 0 01-1.3.3 3.2 3.2 0 01-1.4-.3 2.8 2.8 0 01-1-.9 5.2 5.2 0 01-.7-1.8 19.1 19.1 0 01-.2-2.8 21.6 21.6 0 01.2-2.8 5.4 5.4 0 01.7-1.7 1.7 1.7 0 011-.9 3.2 3.2 0 011.4-.3zm0 10.5a.7.7 0 00.6-.2 1.1 1.1 0 00.6-.7 13.1 13.1 0 00.5-1.5 16.3 16.3 0 00.1-2.4 15.5 15.5 0 00-.1-2.3 13.1 13.1 0 00-.5-1.5 1.2 1.2 0 00-.6-.8l-.6-.2-.7.2a2.8 2.8 0 00-.6.8 5.4 5.4 0 00-.4 1.5 14 14 0 00-.2 2.3 14.4 14.4 0 00.2 2.4 5.4 5.4 0 00.4 1.5 2.2 2.2 0 00.6.7 1 1 0 00.7.2zM368.9 392v1.7h-1.4V392zM373.4 382.3c2 0 3 .9 3 2.8a3 3 0 01-.2 1 3 3 0 01-.4.8 1.2 1.2 0 01-.5.5l-.6.4.7.4.6.7a2 2 0 01.4.8 2 2 0 01.2 1.1 3.2 3.2 0 01-.7 2.3 3.6 3.6 0 01-2.5.7 3.3 3.3 0 01-2.4-.7 3.2 3.2 0 01-.8-2.3 3.6 3.6 0 01.2-1.1 2 2 0 01.4-.8l.6-.7.7-.4-.6-.4-.5-.5a3 3 0 01-.4-.8 3.1 3.1 0 01-.1-1c0-1.9.9-2.8 2.9-2.8zm0 10.5a1.4 1.4 0 001.3-.5 2.1 2.1 0 00.5-1.5 2.5 2.5 0 00-.5-1.5l-1.3-.9-1.3.9a2.4 2.4 0 00-.4 1.5 2.1 2.1 0 00.4 1.5 1.4 1.4 0 001.3.5zm0-5.6a2.3 2.3 0 001.1-.8 1.8 1.8 0 00.4-1.3 2 2 0 00-.4-1.4 1.4 1.4 0 00-1.1-.5 1.6 1.6 0 00-1.1.5 2 2 0 00-.4 1.4 1.8 1.8 0 00.4 1.3 2.8 2.8 0 001.1.8zM381.3 382.3a3.2 3.2 0 011.4.3 1.7 1.7 0 011 .9 5.4 5.4 0 01.7 1.7 21.6 21.6 0 01.2 2.8 19.1 19.1 0 01-.2 2.8 5.2 5.2 0 01-.7 1.8 2.8 2.8 0 01-1 .9 3.2 3.2 0 01-1.4.3 2.8 2.8 0 01-1.3-.3 3.1 3.1 0 01-1.1-.9 5.4 5.4 0 01-.6-1.8 11 11 0 01-.2-2.8 11.9 11.9 0 01.2-2.8 5.6 5.6 0 01.6-1.7 1.9 1.9 0 011.1-.9 2.8 2.8 0 011.3-.3zm0 10.5a.8.8 0 00.7-.2 2.2 2.2 0 00.6-.7 5.4 5.4 0 00.4-1.5 14.4 14.4 0 00.2-2.4 14 14 0 00-.2-2.3 5.4 5.4 0 00-.4-1.5 2.8 2.8 0 00-.6-.8l-.7-.2-.6.2a2.8 2.8 0 00-.6.8 5.4 5.4 0 00-.4 1.5 7.9 7.9 0 00-.2 2.3 8.2 8.2 0 00.2 2.4 5.4 5.4 0 00.4 1.5 2.2 2.2 0 00.6.7.7.7 0 00.6.2z"/></g><path d="M143.7 422.8a1.4 1.4 0 01-1.4-1.2 1.5 1.5 0 011.1-1.8l99.3-19.9 97.8-12.2a1.5 1.5 0 011.7 1.3 1.6 1.6 0 01-1.3 1.7l-97.8 12.2-99.1 19.9z" fill="#54c65c" opacity=".4"/><g opacity=".4" fill="#a7e8ae"><path d="M362.8 453.3a2.8 2.8 0 011.3.3 3.1 3.1 0 011.1.9 4.2 4.2 0 01.6 1.8 10.9 10.9 0 01.3 2.8 11.4 11.4 0 01-.3 2.8 3.8 3.8 0 01-.6 1.7 2.6 2.6 0 01-1.1 1l-1.3.2-1.4-.2a2.4 2.4 0 01-1-1 5.4 5.4 0 01-.7-1.7 21.6 21.6 0 01-.2-2.8 20.3 20.3 0 01.2-2.8 6.1 6.1 0 01.7-1.8 2.8 2.8 0 011-.9 3.2 3.2 0 011.4-.3zm0 10.6l.6-.2a1.2 1.2 0 00.6-.8 6.4 6.4 0 00.5-1.5 15.5 15.5 0 00.1-2.3 16.3 16.3 0 00-.1-2.4 13.1 13.1 0 00-.5-1.5 1.1 1.1 0 00-.6-.7.7.7 0 00-.6-.2 1 1 0 00-.7.2 2.2 2.2 0 00-.6.7 5.4 5.4 0 00-.4 1.5 14.4 14.4 0 00-.2 2.4 14 14 0 00.2 2.3 3.9 3.9 0 00.4 1.5 2.8 2.8 0 00.6.8zM368.9 463v1.8h-1.4V463zM372 458.1h.7a3.8 3.8 0 012.6.8 3.7 3.7 0 01.8 2.6 6.1 6.1 0 01-.2 1.5 3.9 3.9 0 01-.6 1.1l-1.1.6h-2.9l-1-.2v-.7h2.1a2.6 2.6 0 001.7-.5 3 3 0 00.5-1.8 2.6 2.6 0 00-.5-1.8 2.2 2.2 0 00-1.7-.5h-1.9v-5.7h5.2v1H372zM376.9 463.4l2-2.5a13.6 13.6 0 001.2-1.7 3.3 3.3 0 00.7-1.3 5 5 0 00.2-1.2 2.6 2.6 0 00-.4-1.8 1.5 1.5 0 00-1.3-.5H377v-.8l1-.2h1.4a3 3 0 012.3.8 3.7 3.7 0 01.8 2.6 3.2 3.2 0 01-.3 1.4 5.1 5.1 0 01-.7 1.5l-1.3 1.7-1.8 2.3h4.1v1.1h-5.6z"/></g><path d="M143.7 478.5a1.6 1.6 0 01-1.5-1.4 1.6 1.6 0 011.4-1.6l108.5-10 88-6.8a1.5 1.5 0 011.6 1.3 1.6 1.6 0 01-1.4 1.7l-87.9 6.7-108.5 10.1z" fill="#a7e8ae" opacity=".4"/><path d="M143.7 520.1a1.6 1.6 0 01-1.5-1.5 1.5 1.5 0 011.5-1.5l112.2-5.3 84-4.2a1.4 1.4 0 011.6 1.4 1.5 1.5 0 01-1.4 1.6l-84 4.2-112.3 5.3z" fill="#cbe1fd" opacity=".4"/><path fill="#fff" opacity=".6" d="M142.4 587.9h1v7h-1zM92.4 587.9h1v7h-1zM192.4 587.9h1v7h-1zM242.4 587.9h1v7h-1zM292.4 587.9h1v7h-1zM342.4 587.9h1v7h-1zM392.4 587.9h1v7h-1z"/><path fill="#fff" d="M36.2 14h2.3l3.4-4.5 3.3 4.5h2.3l-5.6-7.6-5.7 7.6z"/><path transform="rotate(90 38.7 338.2)" fill="#fff" opacity=".6" d="M38.2 334.7h1v7h-1z"/><path transform="rotate(90 38.7 150.7)" fill="#fff" opacity=".6" d="M38.2 147.2h1v7h-1z"/><path transform="rotate(90 38.7 275.6)" fill="#fff" opacity=".6" d="M38.2 272.1h1v7h-1z"/><path transform="rotate(90 38.7 463.1)" fill="#fff" opacity=".6" d="M38.2 459.6h1v7h-1z"/><path transform="rotate(90 38.7 88.2)" fill="#fff" opacity=".6" d="M38.2 84.7h1v7h-1z"/><path transform="rotate(90 38.7 213.2)" fill="#fff" opacity=".6" d="M38.2 209.7h1v7h-1z"/><g opacity=".4" fill="#cbe1fd"><path d="M103.6 512.6l1.4.2a2.4 2.4 0 011 1 5.4 5.4 0 01.7 1.7 21.6 21.6 0 01.2 2.8 19.1 19.1 0 01-.2 2.8 5.2 5.2 0 01-.7 1.8 2.8 2.8 0 01-1 .9 3.2 3.2 0 01-1.4.3 2.8 2.8 0 01-1.3-.3 3.1 3.1 0 01-1.1-.9 5.4 5.4 0 01-.6-1.8 11 11 0 01-.2-2.8 11.9 11.9 0 01.2-2.8 5.6 5.6 0 01.6-1.7 2.6 2.6 0 011.1-1zm0 10.5a.8.8 0 00.7-.2 2.2 2.2 0 00.6-.7 5.4 5.4 0 00.4-1.5 14.4 14.4 0 00.2-2.4 14 14 0 00-.2-2.3 4.6 4.6 0 00-.4-1.5 2.8 2.8 0 00-.6-.8l-.7-.2-.6.2a2.8 2.8 0 00-.6.8 4.6 4.6 0 00-.4 1.5 14 14 0 00-.2 2.3 14.4 14.4 0 00.2 2.4 5.4 5.4 0 00.4 1.5 2.2 2.2 0 00.6.7.7.7 0 00.6.2zM109.8 522.3v1.7h-1.4v-1.7zM110.6 522.7l2-2.5 1.3-1.7.7-1.3a5.1 5.1 0 00.2-1.3 3 3 0 00-.5-1.8 1.7 1.7 0 00-1.3-.5h-2.2v-.7l1-.2h1.4a3.2 3.2 0 012.3.7 3.8 3.8 0 01.7 2.6 6.8 6.8 0 01-.2 1.5 7 7 0 01-.8 1.4 8.6 8.6 0 01-1.3 1.7l-1.8 2.3h4.1v1.1h-5.6zM120.5 512.6c2 0 3 .9 3 2.8a3.6 3.6 0 01-.2 1 3 3 0 01-.4.8 1.2 1.2 0 01-.5.5l-.6.4.7.4.6.7a5.6 5.6 0 01.5.8 3.7 3.7 0 01.1 1.1 3.2 3.2 0 01-.7 2.3 4.1 4.1 0 01-2.5.7 3.8 3.8 0 01-2.4-.7 3.2 3.2 0 01-.8-2.3 3.6 3.6 0 01.2-1.1 2 2 0 01.4-.8l.6-.7.7-.4-.6-.4-.5-.5a3 3 0 01-.4-.8 3.4 3.4 0 01-.1-1c0-1.9.9-2.8 2.9-2.8zm0 10.5a1.4 1.4 0 001.3-.5 2.1 2.1 0 00.5-1.5 2.5 2.5 0 00-.5-1.5l-1.3-.9-1.3.9a2.4 2.4 0 00-.4 1.5 2.1 2.1 0 00.4 1.5 1.5 1.5 0 001.3.5zm0-5.6a3.1 3.1 0 001.1-.8 1.8 1.8 0 00.4-1.3 2 2 0 00-.4-1.4 1.4 1.4 0 00-1.1-.5 1.6 1.6 0 00-1.1.5 2 2 0 00-.4 1.4 1.8 1.8 0 00.4 1.3z"/></g><g opacity=".4" fill="#cbe1fd"><path d="M362.8 502.9a2.8 2.8 0 011.3.3 1.9 1.9 0 011.1.9 3.8 3.8 0 01.6 1.7 11.4 11.4 0 01.3 2.8 10.4 10.4 0 01-.3 2.8 3.8 3.8 0 01-.6 1.8 3.1 3.1 0 01-1.1.9 2.8 2.8 0 01-1.3.3 3.2 3.2 0 01-1.4-.3 2.8 2.8 0 01-1-.9 5.2 5.2 0 01-.7-1.8 19.1 19.1 0 01-.2-2.8 21.6 21.6 0 01.2-2.8 5.4 5.4 0 01.7-1.7 1.7 1.7 0 011-.9 3.2 3.2 0 011.4-.3zm0 10.5a.7.7 0 00.6-.2 1.1 1.1 0 00.6-.7 13.1 13.1 0 00.5-1.5 16.3 16.3 0 00.1-2.4 15.5 15.5 0 00-.1-2.3 13.1 13.1 0 00-.5-1.5 1.2 1.2 0 00-.6-.8l-.6-.2-.7.2a2.8 2.8 0 00-.6.8 5.4 5.4 0 00-.4 1.5 14 14 0 00-.2 2.3 14.4 14.4 0 00.2 2.4 5.4 5.4 0 00.4 1.5 2.2 2.2 0 00.6.7 1 1 0 00.7.2zM368.9 512.6v1.7h-1.4v-1.7zM372.4 502.9a2.6 2.6 0 012.9 2.9 3.3 3.3 0 01-.4 1.5 2.7 2.7 0 01-1.1 1 1.2 1.2 0 01.8.4c.3.1.4.4.6.6l.3.9.1.9a3.3 3.3 0 01-.8 2.4 3.7 3.7 0 01-2.6.8h-1.4l-1-.2v-.7h2.1a2.5 2.5 0 001.7-.5 2.2 2.2 0 00.5-1.7c0-.8-.1-1.4-.5-1.7s-.9-.5-1.7-.5h-1.1v-1.2h.9a2.2 2.2 0 001.6-.4 2.5 2.5 0 00.5-1.6 2 2 0 00-.4-1.4 1.9 1.9 0 00-1.3-.5H370v-.7l1-.2zM376.4 513l2-2.5a14.7 14.7 0 011.3-1.7 4.9 4.9 0 00.6-1.3 2.7 2.7 0 00.2-1.3 3 3 0 00-.4-1.8 1.9 1.9 0 00-1.3-.5h-2.3v-.7l1.1-.2h1.3a2.7 2.7 0 012.3.8 3.4 3.4 0 01.8 2.5 3.7 3.7 0 01-.3 1.5 6.1 6.1 0 01-.7 1.4l-1.3 1.8-1.8 2.2h4.1v1.1h-5.6z"/></g><path d="M121.3 19.4a27.6 27.6 0 01-.3 4.4 12.2 12.2 0 01-.9 3.2 9.6 9.6 0 01-1.6 2.2 7.8 7.8 0 01-2.2 1.2l6 12.5h-5l-5.5-11.5h-5v11.5h-4.5V8.4a26.6 26.6 0 013.9-.7 25.4 25.4 0 014.1-.3 18.8 18.8 0 015.1.6 6.6 6.6 0 013.4 2.1 8.1 8.1 0 011.9 3.7 22.3 22.3 0 01.6 5.6zm-11 8.5a9.1 9.1 0 003-.4 4.1 4.1 0 002-1.4 7 7 0 001.2-2.6 22.9 22.9 0 00.3-4.1 24.2 24.2 0 00-.3-4.2 8.5 8.5 0 00-1.2-2.7 4.8 4.8 0 00-2-1.4 9.1 9.1 0 00-3-.4h-3.5v17.2z" fill="#fff"/><g opacity=".6" fill="#fff"><path d="M148.5 35.8a6.6 6.6 0 01-.1 1.5l-.3 1-.5.7-.7.4 1.9 4h-1.6l-1.8-3.7h-1.6v3.7h-1.4V32.3l1.2-.2h1.4l1.6.2a2.4 2.4 0 011.1.6 2.7 2.7 0 01.6 1.2 9 9 0 01.2 1.7zm-3.5 2.8l.9-.2.7-.4.3-.8a5.7 5.7 0 00.1-1.4 5.3 5.3 0 00-.1-1.3 9.4 9.4 0 00-.3-.9l-.7-.4-.9-.2h-1.2v5.6zM156 39.4a10.1 10.1 0 01-.2 1.9 2.3 2.3 0 01-.6 1.3 1.6 1.6 0 01-.9.7 2.5 2.5 0 01-1.3.2 2.3 2.3 0 01-1.2-.2 2.3 2.3 0 01-1-.7 3.2 3.2 0 01-.5-1.3 10.1 10.1 0 01-.2-1.9 10.3 10.3 0 01.2-2 3.9 3.9 0 01.5-1.3l1-.7 1.2-.2 1.3.2a2.2 2.2 0 01.9.7 2.6 2.6 0 01.6 1.3 10.3 10.3 0 01.2 2zm-1.4 0a6.3 6.3 0 00-.2-1.6 2.4 2.4 0 00-.3-1 1 1 0 00-.5-.6h-1.1a1 1 0 00-.5.6 2.4 2.4 0 00-.3 1 6.3 6.3 0 00-.2 1.6 7.8 7.8 0 00.2 1.6 2.9 2.9 0 00.3 1 1.2 1.2 0 00.5.5h1.1a1.2 1.2 0 00.5-.5 2.9 2.9 0 00.3-1 7.8 7.8 0 00.2-1.6zM161.5 38.9l.1-1.7c0-.6.2-1.1.4-1.8a14.6 14.6 0 01.7-1.9 10.6 10.6 0 011.1-2.1l.9.4-.7 1.7a10.9 10.9 0 00-.5 1.7l-.3 1.8-.1 1.9.1 1.9.3 1.8a10.9 10.9 0 00.5 1.7 11.1 11.1 0 00.7 1.6l-.9.5a10.6 10.6 0 01-1.1-2.1 15.9 15.9 0 01-.7-2 11.6 11.6 0 01-.4-1.8l-.1-1.6zM169.7 40.4l1.9-5h1.7l.6 8h-1.4l-.4-5.7h-.1l-1.7 4.5h-1.2l-1.7-4.5h-.1l-.4 5.7h-1.4l.6-8h1.7l1.9 5zM174.9 37.2l1.1-1.3.7-.9a5.9 5.9 0 00.4-.8 3.1 3.1 0 00.2-.8 1.3 1.3 0 00-.3-1 .9.9 0 00-.7-.3H175v-.5h1.5a1.8 1.8 0 011.9 2 2.9 2.9 0 01-.2.9 4.1 4.1 0 01-.5.9l-.8 1-.9 1.1h2.3v.5h-3.4zM187.3 35.4h1.5l-2 3.9 2 4.1h-1.4l-1.5-3.2-1.6 3.2h-1.4l2-4.1-1.9-3.9h1.4l1.5 2.9zM196.1 32a2.1 2.1 0 011.7.7 2.4 2.4 0 01.7 1.9 2.1 2.1 0 01-.7 1.8 2.4 2.4 0 01-3.4 0 2.1 2.1 0 01-.7-1.8 2.4 2.4 0 01.7-1.9 2.1 2.1 0 011.7-.7zm0 4.2a1.2 1.2 0 00.8-.4 2.1 2.1 0 00.3-1.2 2.3 2.3 0 00-.3-1.3 1.2 1.2 0 00-1.6 0 2.3 2.3 0 00-.3 1.3 2.1 2.1 0 00.3 1.2 1.2 1.2 0 00.8.4zM203.5 43.5l-1.5-.2a2.1 2.1 0 01-1.1-1 3.8 3.8 0 01-.7-1.7 11.4 11.4 0 01-.3-2.8 10.4 10.4 0 01.3-2.8 3.8 3.8 0 01.6-1.8 3.1 3.1 0 011.1-.9 3.2 3.2 0 011.4-.3h1.4l1 .2v.8h-2.1l-.9.3a1.5 1.5 0 00-.7.7 10.9 10.9 0 00-.5 1.4 17 17 0 00-.1 2.4 7.9 7.9 0 00.2 2.3 3.9 3.9 0 00.4 1.4 3 3 0 00.8.8l1 .2h2.1v.7l-1.1.2zM209.2 38.9a8.6 8.6 0 01-.1 1.6 11.3 11.3 0 01-.3 1.8 15.9 15.9 0 01-.7 2 21.2 21.2 0 01-1.1 2.1l-.9-.5a11.1 11.1 0 00.7-1.6l.5-1.7a11 11 0 00.2-1.8 11.5 11.5 0 00.1-1.9 11.5 11.5 0 00-.1-1.9 9.9 9.9 0 00-.2-1.8l-.5-1.7-.7-1.7.9-.4a21.2 21.2 0 011.1 2.1 14.6 14.6 0 01.7 1.9 16.8 16.8 0 01.3 1.8 10.3 10.3 0 01.1 1.7zM216.3 32.2l-4.8 11.2H210l4.8-11.2zM221.9 37.4a1.8 1.8 0 011.3 1.1 3.4 3.4 0 01.4 1.8 3.4 3.4 0 01-.2 1.5 2.1 2.1 0 01-.6 1 2.8 2.8 0 01-1.1.5 4.7 4.7 0 01-1.7.2h-1.4l-1.2-.3V32.3l1.2-.2h1.4a3.8 3.8 0 012.4.7 3.2 3.2 0 01.8 2.3 3.1 3.1 0 01-.3 1.3 1.9 1.9 0 01-1 1zm-2.1-.4c1.3 0 1.9-.7 1.9-2s-.6-2-1.9-2h-1v4zm-1 1v4.5h1.2a2.6 2.6 0 001.7-.5 2.6 2.6 0 00.5-1.7 3 3 0 00-.5-1.8 2.6 2.6 0 00-1.7-.5zM229.9 35.4v1h-2.1v7h-1.4v-7h-2.1v-1z"/></g><rect x="415.6" y="60.1" width="32.6" height="466" rx="5.5" fill="#f7f7f7" opacity="0"/><g opacity=".4" fill="#54c65c"><path d="M427.2 382.1c1.9 0 2.9 1 2.9 3a2.4 2.4 0 01-.4 1.5 2.2 2.2 0 01-1 .9l.8.4a1.8 1.8 0 01.5.7 1.1 1.1 0 01.3.8 2.8 2.8 0 01.1.9 3 3 0 01-.8 2.5 3.4 3.4 0 01-2.5.7h-1.4a2.2 2.2 0 01-1-.2v-.7h2a3 3 0 001.8-.5 2.5 2.5 0 00.5-1.7 2.6 2.6 0 00-.5-1.7 3 3 0 00-1.8-.5h-1.1v-1.1h1a2.5 2.5 0 001.6-.5 2.1 2.1 0 00.5-1.5 2.3 2.3 0 00-.5-1.5 1.7 1.7 0 00-1.3-.4h-2.1v-.8l1-.2zM435.1 382.1a3.2 3.2 0 011.4.3 2.8 2.8 0 011 .9 7.5 7.5 0 01.7 1.8 20.3 20.3 0 01.2 2.8 21.6 21.6 0 01-.2 2.8 5.4 5.4 0 01-.7 1.7 2.4 2.4 0 01-1 1 3.2 3.2 0 01-1.4.2 2.7 2.7 0 01-1.3-.2 2.6 2.6 0 01-1.1-1 5.6 5.6 0 01-.6-1.7 11.9 11.9 0 01-.2-2.8 11.4 11.4 0 01.2-2.8 7.6 7.6 0 01.6-1.8 3.1 3.1 0 011.1-.9 2.8 2.8 0 011.3-.3zm0 10.6l.7-.2a2.8 2.8 0 00.6-.8 3.9 3.9 0 00.4-1.4 16.6 16.6 0 00.2-2.4 14.4 14.4 0 00-.2-2.4 5.4 5.4 0 00-.4-1.5 2.2 2.2 0 00-.6-.7l-.7-.2-.6.2a2.2 2.2 0 00-.6.7 5.4 5.4 0 00-.4 1.5 8.2 8.2 0 00-.2 2.4 9 9 0 00.2 2.4 3.9 3.9 0 00.4 1.4 2.8 2.8 0 00.6.8z"/></g><g opacity=".4" fill="#a7e8ae"><path d="M424.9 463.4l2-2.4 1.3-1.8a4.5 4.5 0 00.6-1.2 2.7 2.7 0 00.2-1.3 3 3 0 00-.4-1.8 1.9 1.9 0 00-1.3-.5H425v-.7l1.1-.2h1.3a3 3 0 012.3.7 3.8 3.8 0 01.8 2.6 4 4 0 01-.3 1.5 6.1 6.1 0 01-.7 1.4 15.5 15.5 0 01-1.3 1.7l-1.8 2.3h4.1v1.1h-5.6zM433.4 458.2h.7a2.7 2.7 0 013.3 3.3 8.1 8.1 0 01-.1 1.6l-.6 1a2.4 2.4 0 01-1.1.6l-1.5.2h-1.4l-1-.2v-.8h2.1a2.2 2.2 0 001.7-.5 2.6 2.6 0 00.5-1.8 3 3 0 00-.5-1.8 2.6 2.6 0 00-1.7-.5h-1.9v-5.7h5.2v1.1h-3.7z"/></g><g opacity=".4" fill="#cbe1fd"><path d="M429.5 503v11.2H428v-10.1h-1.7v-.8l1-.2h2.2zM433 507.6h.7a2.9 2.9 0 013.4 3.4 6.1 6.1 0 01-.2 1.5 2.4 2.4 0 01-.6 1.1l-1 .6h-3l-1-.2v-.7h2.1a2.5 2.5 0 001.7-.5 2.4 2.4 0 00.5-1.8c0-.9-.1-1.5-.5-1.8s-.9-.5-1.7-.5h-1.8V503h5.2v1H433z"/></g><path transform="rotate(90 38.7 400.7)" fill="#fff" opacity=".6" d="M38.2 397.2h1v7h-1z"/><path transform="rotate(90 38.7 525.6)" fill="#fff" opacity=".6" d="M38.2 522.1h1v7h-1z"/><path fill="#fff" d="M452.3 582v2.3l4.5 3.4-4.5 3.3v2.3l7.6-5.6-7.6-5.7z"/><g opacity=".6" fill="#fff"><path d="M419.2 39.4l.7.4c.3.2.4.6.6 1.1l.4 1.5c0 .2.1.3.3.4l.6.2v.6l-.2.1h-.6a1.8 1.8 0 01-1.1-.3 2.8 2.8 0 01-.5-1.1l-.4-1.5a1.1 1.1 0 00-1.1-.9h-.5v3.6h-1.5v-8h1.5v3.3h.5a.6.6 0 00.5-.2 2.1 2.1 0 00.4-.7l.4-1.2a4.4 4.4 0 01.6-1 1.5 1.5 0 011-.3h.9v.7h-.7l-.3.4-.4 1.2a2.3 2.3 0 01-.5 1l-.6.4zM427.7 35.6v1.1h-3.2v6.9H423v-8zM434.1 32.4l-4.8 11.2h-1.5l4.8-11.2zM439.2 40.7l1.8-5.1h1.7l.6 8h-1.4l-.4-5.6h-.1l-1.6 4.4h-1.3l-1.7-4.4h-.1l-.4 5.6H435l.5-8h1.7l1.9 5.1zM444.3 37.5l1.1-1.3a6.1 6.1 0 00.7-1 1.2 1.2 0 00.4-.8 1.9 1.9 0 00.2-.7 1.3 1.3 0 00-.3-1 .9.9 0 00-.7-.3h-1.3v-.5h1.5c1.3 0 1.9.6 1.9 2a3.1 3.1 0 01-.2.8 3.1 3.1 0 01-.5 1l-.8 1-.9 1.1h2.4v.7h-3.5z"/></g><path d="M423.6 14.4a3.7 3.7 0 011.7 1.3 3.8 3.8 0 01.6 2.2 3.6 3.6 0 01-1 2.8 5.5 5.5 0 01-3.7 1h-1.8a3.7 3.7 0 01-1.5-.3v-13l1.5-.3h1.8a4.4 4.4 0 013.2 1 3.4 3.4 0 01.5 4.2 3.7 3.7 0 01-1.3 1.2zm-2.6-.6a2.5 2.5 0 001.5-.5 2.6 2.6 0 00.5-1.7 2.5 2.5 0 00-.5-1.6 2 2 0 00-1.5-.6h-.8v4.4zm-.8 1.4v5.1h1a2.4 2.4 0 001.8-.6 2.5 2.5 0 00.6-1.9 2.8 2.8 0 00-.6-2 2.4 2.4 0 00-1.8-.6zM434.6 17.4h-4.9a3.4 3.4 0 00.5 2.3 2.1 2.1 0 001.8.7h2.1v.9l-1.1.3h-1.4a5.8 5.8 0 01-1.9-.3 2.6 2.6 0 01-1.3-.8 5.3 5.3 0 01-.8-1.5 15.2 15.2 0 01-.2-2.3 14 14 0 01.2-2.3 4.8 4.8 0 01.7-1.6 3.6 3.6 0 011.2-.8 3.9 3.9 0 013 0 3.1 3.1 0 011.1.8 3.4 3.4 0 01.7 1.6 7.5 7.5 0 01.3 2.3zm-2.3-1.3a6.6 6.6 0 00-.1-1.5l-.3-1a.8.8 0 00-.4-.4h-1a1 1 0 00-.5.4 3 3 0 00-.2 1 6.6 6.6 0 00-.1 1.5zM440.3 13.2h-.8l-.6.6a2.8 2.8 0 00-.4 1.1 9.7 9.7 0 00-.1 1.8 8.1 8.1 0 00.1 1.7 4.3 4.3 0 00.4 1.1 1.3 1.3 0 00.7.6l.9.2h2.1v.9l-1.1.3h-1.4a4.3 4.3 0 01-1.7-.3 2.2 2.2 0 01-1.3-.8 3.5 3.5 0 01-.7-1.5 8 8 0 01-.3-2.3 7.5 7.5 0 01.3-2.3 3.4 3.4 0 01.7-1.6 3.6 3.6 0 011.2-.8 3.8 3.8 0 011.6-.3h1.4l1.1.3v1z" fill="#fff"/><g id="k1" fill="#ffc200"><path d="M103.8 216.4v11.2h-1.5v-10h-1.7v-.8l1-.3h2.2zM107 226v1.7h-1.5V226zM108.1 224.8v-1.3l4-7.1h1.6v7.2h.9v1.2h-.9v2.8h-1.5v-2.8zm4.1-6l-2.8 4.8h2.8v-4.8zM119 216.3h1.4l1 .2v.7h-2l-.9.2-.6.7a3.4 3.4 0 00-.4 1.2 9.7 9.7 0 00-.1 1.8l.9-.2h1a2.6 2.6 0 011.9.8 4.9 4.9 0 01.6 2.7 3.7 3.7 0 01-.7 2.6 2.9 2.9 0 01-2.2.8 2.8 2.8 0 01-2.2-.8 3.7 3.7 0 01-.8-2.6v-3.5a12.5 12.5 0 01.2-2.1 11.6 11.6 0 01.6-1.5 3.9 3.9 0 011-.8zm-1.6 5.6v2.5a4.5 4.5 0 00.1 1.2l.3.7a1 1 0 00.5.4h1.2l.5-.4.3-.7a4.5 4.5 0 00.1-1.2 3.4 3.4 0 00-.5-2 2.1 2.1 0 00-1.5-.5zM104.3 264.1v11.2h-1.4v-10.1h-1.8v-.8l1-.2h2.2zM107.5 273.6v1.7h-1.4v-1.7zM108.3 274l2-2.5 1.3-1.7.7-1.3a5 5 0 00.2-1.2 2.6 2.6 0 00-.5-1.8 1.5 1.5 0 00-1.3-.6h-2.2v-.7l1-.2h1.4a3.2 3.2 0 012.3.8 3.7 3.7 0 01.7 2.6 5.9 5.9 0 01-.2 1.4 7.4 7.4 0 01-.8 1.5 12.9 12.9 0 01-1.3 1.7l-1.8 2.2h4.1v1.2h-5.6zM118.2 263.9c2 0 3 .9 3 2.8a3 3 0 01-.2 1 2 2 0 01-.4.8l-.5.5-.6.4.7.5a1.7 1.7 0 01.6.6 5.6 5.6 0 01.5.8 3.7 3.7 0 01.1 1.1 3.2 3.2 0 01-.7 2.3 3.4 3.4 0 01-2.5.7 3.3 3.3 0 01-2.4-.7 3.2 3.2 0 01-.8-2.3 3.6 3.6 0 01.2-1.1 2 2 0 01.4-.8 1.7 1.7 0 01.6-.6l.7-.5-.5-.4c-.3-.1-.4-.3-.6-.5a2 2 0 01-.4-.8 3.1 3.1 0 01-.1-1c0-1.9.9-2.8 2.9-2.8zm0 10.6a1.7 1.7 0 001.3-.5 2.5 2.5 0 00.5-1.6 2 2 0 00-.5-1.4 3 3 0 00-1.3-.9 2.7 2.7 0 00-1.2.9 1.6 1.6 0 00-.5 1.4 2.5 2.5 0 00.4 1.6 1.9 1.9 0 001.3.5zm0-5.7a2.3 2.3 0 001.1-.8 1.7 1.7 0 00.4-1.3 2 2 0 00-.4-1.4 1.4 1.4 0 00-1.1-.4 1.5 1.5 0 00-1.1.4 2 2 0 00-.4 1.4 1.7 1.7 0 00.4 1.3 2.8 2.8 0 001.1.8zM104.2 347.1a3.2 3.2 0 011.4.3 1.7 1.7 0 011 .9 5.4 5.4 0 01.7 1.7 21.6 21.6 0 01.2 2.8 19.1 19.1 0 01-.2 2.8 5.2 5.2 0 01-.7 1.8 2.8 2.8 0 01-1 .9 3.2 3.2 0 01-1.4.3 2.8 2.8 0 01-1.3-.3 3.1 3.1 0 01-1.1-.9 5.4 5.4 0 01-.6-1.8 11 11 0 01-.2-2.8 11.9 11.9 0 01.2-2.8 5.6 5.6 0 01.6-1.7 1.9 1.9 0 011.1-.9 2.8 2.8 0 011.3-.3zm0 10.5a.8.8 0 00.7-.2 2.2 2.2 0 00.6-.7 5.4 5.4 0 00.4-1.5 14.4 14.4 0 00.2-2.4 14 14 0 00-.2-2.3 5.4 5.4 0 00-.4-1.5 2.8 2.8 0 00-.6-.8l-.7-.2-.6.2a1.7 1.7 0 00-.6.8 5.4 5.4 0 00-.4 1.5 7.9 7.9 0 00-.2 2.3 8.2 8.2 0 00.2 2.4 5.4 5.4 0 00.4 1.5c.2.3.3.6.6.7a.7.7 0 00.6.2zM110.4 356.8v1.7H109v-1.7zM114.4 358.6H113l-1-.2v-.7h2.1l.8-.2.6-.7a3.4 3.4 0 00.4-1.2 9.2 9.2 0 00.2-1.9l-.9.3h-1a2.4 2.4 0 01-1.9-.8 4.3 4.3 0 01-.7-2.8 3.4 3.4 0 01.7-2.5 2.6 2.6 0 012.2-.8 2.7 2.7 0 012.3.8 3.4 3.4 0 01.7 2.5v3.6a12.5 12.5 0 01-.2 2.1 2.6 2.6 0 01-.6 1.4 1.9 1.9 0 01-1 .8 2.8 2.8 0 01-1.3.3zm1.7-5.6v-2.6l-.1-1.1a1.6 1.6 0 00-.4-.7l-.4-.4-.7-.2-.6.2-.4.4a1.6 1.6 0 00-.4.7l-.1 1.1a3 3 0 00.5 2 1.8 1.8 0 001.5.6zM121.7 347.2v11.2h-1.5v-10h-1.7v-.8l1-.3h2.2zM103.6 365.6a3.2 3.2 0 011.4.3 2.1 2.1 0 011 .9 5.2 5.2 0 01.7 1.8 18.7 18.7 0 01.2 2.7 19.1 19.1 0 01-.2 2.8 5.2 5.2 0 01-.7 1.8 2.1 2.1 0 01-1 .9 3.2 3.2 0 01-1.4.3 2.8 2.8 0 01-1.3-.3 2.3 2.3 0 01-1.1-.9 5.4 5.4 0 01-.6-1.8 11 11 0 01-.2-2.8 10.6 10.6 0 01.2-2.7 5.4 5.4 0 01.6-1.8 2.3 2.3 0 011.1-.9 2.8 2.8 0 011.3-.3zm0 10.5a.8.8 0 00.7-.2 1.4 1.4 0 00.6-.7 5.4 5.4 0 00.4-1.5 14.4 14.4 0 00.2-2.4 14 14 0 00-.2-2.3 5.4 5.4 0 00-.4-1.5 1.4 1.4 0 00-.6-.7.9.9 0 00-.7-.3.9.9 0 00-.6.3 1.4 1.4 0 00-.6.7 5.4 5.4 0 00-.4 1.5 7.9 7.9 0 00-.2 2.3 8.2 8.2 0 00.2 2.4 5.4 5.4 0 00.4 1.5 1.4 1.4 0 00.6.7.7.7 0 00.6.2zM109.8 375.3v1.7h-1.4v-1.7zM114.3 365.6c2 0 2.9.9 2.9 2.8a3.1 3.1 0 01-.1 1 2 2 0 01-.4.8c-.2.2-.3.4-.6.5l-.5.4.7.5a1.7 1.7 0 01.6.6 5.9 5.9 0 01.4.8 3.6 3.6 0 01.2 1.1 3.2 3.2 0 01-.8 2.3 3.3 3.3 0 01-2.4.7 3.4 3.4 0 01-2.5-.7 3.2 3.2 0 01-.7-2.3 3.7 3.7 0 01.1-1.1 5.6 5.6 0 01.5-.8 1.7 1.7 0 01.6-.6l.7-.5-.6-.4a1.2 1.2 0 01-.5-.5 2 2 0 01-.4-.8 3 3 0 01-.2-1c0-1.9 1-2.8 3-2.8zm0 10.5a1.8 1.8 0 001.3-.4 2.5 2.5 0 00.4-1.6 2 2 0 00-.5-1.5l-1.2-.9-1.3.9a2.5 2.5 0 00-.5 1.5 2.5 2.5 0 00.5 1.6 1.7 1.7 0 001.3.4zm0-5.6a2.8 2.8 0 001.1-.8 1.7 1.7 0 00.4-1.3 2 2 0 00-.4-1.4 1.6 1.6 0 00-1.1-.5 1.4 1.4 0 00-1.1.5 2 2 0 00-.4 1.4 1.7 1.7 0 00.4 1.3 2.3 2.3 0 001.1.8zM123.9 367l-1.8 5.2a28.9 28.9 0 00-1.1 4.7h-1.4a44.9 44.9 0 012.8-10h-4.3v-1.2h5.8zM104.2 157.9v11.2h-1.4V159H101v-.8l1-.3h2.2zM107.4 167.4v1.7h-1.5v-1.7zM114.1 159.1l-1.8 5.2a41.5 41.5 0 00-1.1 4.8h-1.4a46.2 46.2 0 012.9-10.1h-4.3v-1.1h5.7zM118.3 157.7a2.9 2.9 0 011.4.3 1.8 1.8 0 011 .9 5.2 5.2 0 01.7 1.8 11 11 0 01.2 2.8 10.6 10.6 0 01-.2 2.7 5.2 5.2 0 01-.7 1.8 1.8 1.8 0 01-1 .9 2.9 2.9 0 01-1.4.3 2.8 2.8 0 01-1.3-.3 1.8 1.8 0 01-1-.9 5.2 5.2 0 01-.7-1.8 10.6 10.6 0 01-.2-2.7 11 11 0 01.2-2.8 5.2 5.2 0 01.7-1.8 1.8 1.8 0 011-.9 2.8 2.8 0 011.3-.3zm0 10.6a.9.9 0 00.7-.3 1.4 1.4 0 00.6-.7 5.4 5.4 0 00.4-1.5 14 14 0 00.2-2.3 14.4 14.4 0 00-.2-2.4 5.4 5.4 0 00-.4-1.5 1.4 1.4 0 00-.6-.7.8.8 0 00-.7-.2.7.7 0 00-.6.2 1.4 1.4 0 00-.6.7 5.4 5.4 0 00-.4 1.5 14.4 14.4 0 00-.2 2.4 14 14 0 00.2 2.3 5.4 5.4 0 00.4 1.5 1.4 1.4 0 00.6.7zM364.1 206v11.2h-1.4v-10h-1.8v-.8l1-.3h2.2zM367.3 215.6v1.7h-1.4v-1.7zM370.3 210.7h.8a2.9 2.9 0 013.3 3.3 3.9 3.9 0 01-.2 1.6 2.3 2.3 0 01-.5 1 2.4 2.4 0 01-1.1.6l-1.5.2h-1.4l-1-.2v-.7h2a2.4 2.4 0 001.8-.6 2.6 2.6 0 00.5-1.8 1.9 1.9 0 00-2.3-2.3h-1.8V206h5.2v1.1h-3.8zM379.1 205.9a2.9 2.9 0 011.4.3 1.5 1.5 0 011 .9 5.2 5.2 0 01.7 1.8 10.6 10.6 0 01.2 2.7 11 11 0 01-.2 2.8 5.2 5.2 0 01-.7 1.8 2.2 2.2 0 01-1 .9 2.9 2.9 0 01-1.4.3 2.8 2.8 0 01-1.3-.3 2.2 2.2 0 01-1-.9 5.2 5.2 0 01-.7-1.8 11 11 0 01-.2-2.8 10.6 10.6 0 01.2-2.7 5.2 5.2 0 01.7-1.8 1.5 1.5 0 011-.9 2.8 2.8 0 011.3-.3zm0 10.5a.8.8 0 00.7-.2 2.2 2.2 0 00.6-.7 5.4 5.4 0 00.4-1.5 14.4 14.4 0 00.2-2.4 14 14 0 00-.2-2.3 5.4 5.4 0 00-.4-1.5 1.4 1.4 0 00-.6-.7.9.9 0 00-.7-.3.9.9 0 00-.6.3 1.4 1.4 0 00-.6.7 5.4 5.4 0 00-.4 1.5 14 14 0 00-.2 2.3 14.4 14.4 0 00.2 2.4 5.4 5.4 0 00.4 1.5 2.2 2.2 0 00.6.7.7.7 0 00.6.2zM365.3 251.6v11.2h-1.4v-10.1h-1.8v-.8l1-.2h2.2zM368.5 261.1v1.8h-1.4v-1.8zM372 251.5c1.9 0 2.8 1 2.8 2.9a3.3 3.3 0 01-.3 1.5 3.6 3.6 0 01-1.1 1l.8.5.6.6.3.9.1.9a3.3 3.3 0 01-.8 2.4 3.8 3.8 0 01-2.6.8h-1.4l-1-.2v-.8h2.1a1.8 1.8 0 002.2-2.1 2.5 2.5 0 00-.5-1.7 2.2 2.2 0 00-1.7-.5h-1.1v-1.2h.9a1.9 1.9 0 001.6-.5 2.1 2.1 0 00.5-1.5 2 2 0 00-.5-1.4 1.7 1.7 0 00-1.3-.5h-2v-.7l1-.2zM376 261.6a21.6 21.6 0 012-2.5l1.2-1.7a4.2 4.2 0 00.7-1.3 5.1 5.1 0 00.2-1.3 3 3 0 00-.4-1.8 1.9 1.9 0 00-1.3-.5h-2.3v-.7l1-.2h1.4a3 3 0 012.3.7 3.8 3.8 0 01.8 2.6 3.7 3.7 0 01-.3 1.5 6.1 6.1 0 01-.7 1.4l-1.3 1.7-1.8 2.3h4.1v1.1H376zM363.5 334.8a2.8 2.8 0 011.3.3 3.1 3.1 0 011.1.9 4.8 4.8 0 01.6 1.8 10.9 10.9 0 01.3 2.8 11.4 11.4 0 01-.3 2.8 3.8 3.8 0 01-.6 1.7 2.6 2.6 0 01-1.1 1 2.7 2.7 0 01-1.3.2 3.2 3.2 0 01-1.4-.2 2.4 2.4 0 01-1-1 5.4 5.4 0 01-.7-1.7 21.6 21.6 0 01-.2-2.8 20.3 20.3 0 01.2-2.8 7.5 7.5 0 01.7-1.8 2.8 2.8 0 011-.9 3.2 3.2 0 011.4-.3zm0 10.6l.6-.2a1.2 1.2 0 00.6-.8 3.8 3.8 0 00.5-1.4 17.7 17.7 0 00.1-2.4 16.3 16.3 0 00-.1-2.4 5.3 5.3 0 00-.5-1.5 1.1 1.1 0 00-.6-.7l-.6-.2-.7.2a2.2 2.2 0 00-.6.7 15.5 15.5 0 00-.4 1.5 14.4 14.4 0 00-.2 2.4 16.6 16.6 0 00.2 2.4 8.4 8.4 0 00.4 1.4 2.8 2.8 0 00.6.8zM369.6 344.5v1.8h-1.4v-1.8zM373.6 346.3h-1.3l-1.1-.3v-.7h2.1l.8-.2a1.3 1.3 0 00.7-.6l.4-1.3a9.7 9.7 0 00.1-1.8l-.9.2h-1a2.6 2.6 0 01-1.9-.8 4.4 4.4 0 01-.7-2.7 3.7 3.7 0 01.8-2.6 3.4 3.4 0 014.4 0 3.7 3.7 0 01.8 2.6v3.5a13.8 13.8 0 01-.2 2.2l-.6 1.4a2.5 2.5 0 01-1 .8 3.2 3.2 0 01-1.4.3zm1.7-5.6v-2.5a3.4 3.4 0 00-.1-1.1l-.3-.8a1 1 0 00-.5-.4h-1.2l-.5.4-.3.8a3.4 3.4 0 00-.1 1.1 2.8 2.8 0 00.5 2 1.7 1.7 0 001.5.5zM380 339.6h.7a3.8 3.8 0 012.6.8 3.7 3.7 0 01.7 2.6 6.6 6.6 0 01-.1 1.5l-.6 1.1-1.1.6h-2.9l-1-.3v-.7h2.1a2.6 2.6 0 001.7-.5 3 3 0 00.5-1.8 2.6 2.6 0 00-.5-1.8 2.2 2.2 0 00-1.7-.5h-1.9V335h5.2v1H380zM363.8 353.1a3.5 3.5 0 011.4.3 2.8 2.8 0 011 .9 3.8 3.8 0 01.6 1.8 10.4 10.4 0 01.3 2.8 11.4 11.4 0 01-.3 2.8 3.8 3.8 0 01-.6 1.7 1.7 1.7 0 01-1 .9 3.5 3.5 0 01-1.4.3 3.2 3.2 0 01-1.4-.3 1.7 1.7 0 01-1-.9 5.4 5.4 0 01-.7-1.7 21.6 21.6 0 01-.2-2.8 19.1 19.1 0 01.2-2.8 5.2 5.2 0 01.7-1.8 2.8 2.8 0 011-.9 3.2 3.2 0 011.4-.3zm0 10.6l.7-.2a1.6 1.6 0 00.5-.8 5.3 5.3 0 00.5-1.5 15.5 15.5 0 00.1-2.3 16.3 16.3 0 00-.1-2.4 5.3 5.3 0 00-.5-1.5 1.3 1.3 0 00-.5-.7 1.1 1.1 0 00-.7-.2 1 1 0 00-.7.2 2.2 2.2 0 00-.6.7 15.5 15.5 0 00-.4 1.5 16.3 16.3 0 00-.1 2.4 8.9 8.9 0 00.5 3.8 2.8 2.8 0 00.6.8zM370 362.8v1.7h-1.5v-1.7zM374 364.6h-1.4a2.2 2.2 0 01-1-.2v-.7h2l.9-.2.6-.7a3.4 3.4 0 00.4-1.2 9.7 9.7 0 00.1-1.8l-.9.2h-1a2.6 2.6 0 01-1.9-.8 4.9 4.9 0 01-.6-2.7 3.7 3.7 0 01.7-2.6 2.9 2.9 0 012.2-.8 2.8 2.8 0 012.2.8 3.7 3.7 0 01.8 2.6v3.5a12.5 12.5 0 01-.2 2.1l-.6 1.5a3.9 3.9 0 01-1 .8zm1.6-5.6v-2.5a4.5 4.5 0 00-.1-1.2l-.3-.7a1 1 0 00-.5-.4h-1.2l-.5.4-.3.7a4.5 4.5 0 00-.1 1.2 3.4 3.4 0 00.5 2 2.1 2.1 0 001.5.5zM381.2 353.3v11.2h-1.4v-10.1H378v-.8l1.1-.2h2.1zM365.1 146.3v11.2h-1.4v-10h-1.8v-.8l1.1-.3h2.1zM368.3 155.9v1.7h-1.4v-1.7zM375 147.6l-1.8 5.2a44 44 0 00-1 4.7h-1.5a51.8 51.8 0 012.9-10h-4.3v-1.2h5.7zM375.2 154.7v-1.3l4-7.1h1.6v7.2h1v1.2h-1v2.8h-1.4v-2.8zm4.1-6l-2.7 4.8h2.8v-4.8zM143.2 358.8a1.1 1.1 0 01-1-.9 1.1 1.1 0 011-1.1l198-9.7a1 1 0 011 1 .9.9 0 01-.9 1l-198 9.7zM143.7 268.9a1.5 1.5 0 01-1.5-1.4 1.6 1.6 0 011.5-1.6l197-9.6a1.4 1.4 0 011.5 1.4 1.5 1.5 0 01-1.4 1.6l-197 9.6zM144.2 224.9a2.1 2.1 0 01-2-1.9 2.1 2.1 0 011.9-2.1l196-9.7a2 2 0 012.1 1.9 1.9 1.9 0 01-1.9 2.1l-196 9.7zM144.7 165.3a2.5 2.5 0 01-2.5-2.3 2.6 2.6 0 012.4-2.7l195-9.6a2.3 2.3 0 012.6 2.3 2.4 2.4 0 01-2.3 2.6l-195.1 9.7zM142.7 369.5a.5.5 0 01-.5-.5.5.5 0 01.5-.5l199-9.7a.5.5 0 010 1l-198.9 9.7zM434.7 207.5a64.6 64.6 0 00-2.9 10h-1.4a46.2 46.2 0 012.9-10.1H429v-1.1h5.7zM430.8 256h.7a3.8 3.8 0 012.6.8 3.7 3.7 0 01.7 2.6 6.6 6.6 0 01-.1 1.5 5.4 5.4 0 01-.6 1.1 2.4 2.4 0 01-1.1.6l-1.5.2h-1.4l-1-.3v-.7h2.1a2.6 2.6 0 001.7-.5 3.5 3.5 0 000-3.6 2.6 2.6 0 00-1.7-.5h-1.9v-5.7h5.2v1h-3.7zM428.3 343.6v-1.3l4-7h1.6v7.2h1v1.1h-1v2.9h-1.4v-2.9zm4.1-6l-2.7 4.9h2.8v-4.9zM431.3 352.9c2 0 2.9 1 2.9 3a3.3 3.3 0 01-.3 1.5 2.4 2.4 0 01-1.1.9l.8.4a1.8 1.8 0 01.5.7 1.1 1.1 0 01.3.8 3.1 3.1 0 01.1 1 3.3 3.3 0 01-.7 2.4 3.8 3.8 0 01-2.6.8h-1.4l-1-.3v-.7h2.1a2.6 2.6 0 001.7-.5 2.3 2.3 0 00.5-1.6 3 3 0 00-.5-1.8 2.6 2.6 0 00-1.7-.5h-1.2v-1.1h1a2.5 2.5 0 001.6-.5 2.1 2.1 0 00.5-1.5 2 2 0 00-.5-1.4 1.4 1.4 0 00-1.3-.5h-2.1v-.7l1.1-.3zM431.6 157.5h-1.3l-1.1-.2v-.7h2.1l.8-.2a2.3 2.3 0 00.7-.7 8.3 8.3 0 00.4-1.2 9.7 9.7 0 00.1-1.8l-.9.2h-1a2.6 2.6 0 01-1.9-.8 4.8 4.8 0 01-.7-2.7 3.7 3.7 0 01.8-2.6 3.4 3.4 0 014.4 0 3.7 3.7 0 01.8 2.6v3.5a12.5 12.5 0 01-.2 2.1l-.6 1.5a3.9 3.9 0 01-1 .8zm1.7-5.6v-2.5a3.4 3.4 0 00-.1-1.1 3.4 3.4 0 00-.3-.8 1 1 0 00-.5-.4h-1.2l-.5.4a3.4 3.4 0 00-.3.8 3.4 3.4 0 00-.1 1.1 2.8 2.8 0 00.5 2 2.1 2.1 0 001.5.5z"/></g><g id="k2" opacity=".1" fill="#ffc200"><path d="M143.7 98.1a1.6 1.6 0 01-1.5-1.4 1.6 1.6 0 011.4-1.6l108.5-10 88-6.8a1.5 1.5 0 011.6 1.4 1.6 1.6 0 01-1.4 1.6l-87.9 6.8-108.5 10zM104.2 91.6v11.2h-1.4v-10H101V92l1.1-.3h2.1zM107.4 101.2v1.7H106v-1.7zM111.4 103h-1.3l-1.1-.2v-.8h2.1l.8-.2a2.3 2.3 0 00.7-.7 8.3 8.3 0 00.4-1.2 10.3 10.3 0 00.1-1.9l-.9.3h-1a2.6 2.6 0 01-1.9-.8 5 5 0 01-.7-2.8 3.4 3.4 0 01.8-2.5 3.4 3.4 0 014.4 0 3.4 3.4 0 01.8 2.5v3.6a6.6 6.6 0 01-.3 2.1 2.6 2.6 0 01-.6 1.4 1.4 1.4 0 01-.9.8 3.2 3.2 0 01-1.4.4zm1.7-5.6v-2.6a3.7 3.7 0 00-.1-1.1l-.3-.7-.5-.4-.6-.2-.6.2a1 1 0 00-.5.4l-.3.7a3.7 3.7 0 00-.1 1.1c0 1 .1 1.7.5 2a1.8 1.8 0 001.5.6zM117.8 96.3h.7a2.8 2.8 0 013.3 3.3 7.6 7.6 0 01-.1 1.6 4.4 4.4 0 01-.6 1 2.4 2.4 0 01-1.1.6l-1.5.2h-1.4l-1-.2v-.8h2.1a2.2 2.2 0 001.7-.6 2.6 2.6 0 00.5-1.8 2.5 2.5 0 00-.5-1.7 2.2 2.2 0 00-1.7-.6h-1.9v-5.7h5.2v1.1h-3.7zM428.7 73.9c2 0 3 .9 3 2.8a3 3 0 01-.2 1 2 2 0 01-.4.8l-.5.6-.6.3.7.4.6.6a2 2 0 01.4.8 2 2 0 01.2 1.1 3.2 3.2 0 01-.7 2.3 3.6 3.6 0 01-2.5.7 3.3 3.3 0 01-2.4-.7 3.2 3.2 0 01-.8-2.3 3.6 3.6 0 01.2-1.1 2 2 0 01.4-.8l.6-.6.7-.4-.6-.3-.5-.6a2 2 0 01-.4-.8 3.1 3.1 0 01-.1-1c0-1.9.9-2.8 2.9-2.8zm0 10.6a1.7 1.7 0 001.3-.5 2.5 2.5 0 00.5-1.6 2 2 0 00-.5-1.4 3 3 0 00-1.3-.9 3.8 3.8 0 00-1.3.9 2 2 0 00-.4 1.4 2.5 2.5 0 00.4 1.6 1.7 1.7 0 001.3.5zm0-5.7a2.3 2.3 0 001.1-.8 1.7 1.7 0 00.4-1.3 2 2 0 00-.4-1.4 1.4 1.4 0 00-1.1-.4 1.5 1.5 0 00-1.1.4 2 2 0 00-.4 1.4 1.7 1.7 0 00.4 1.3 2.8 2.8 0 001.1.8zM434.6 83.6v1.7h-1.4v-1.7zM438.6 74.1v11.2h-1.4V75.2h-1.8v-.8l1.1-.2h2.1zM361.9 83.7l2-2.5 1.3-1.7a3.8 3.8 0 00.6-1.3 2.3 2.3 0 00.2-1.2 3 3 0 00-.4-1.8 1.7 1.7 0 00-1.3-.5H362V74l1.1-.3h1.3a3.3 3.3 0 012.4.8 4.3 4.3 0 01.7 2.6 4 4 0 01-.3 1.5 6.1 6.1 0 01-.7 1.4 15.5 15.5 0 01-1.3 1.7l-1.8 2.3h4.1v1h-5.6zM370 83.3v1.8h-1.4v-1.8zM374.8 73.6a2.8 2.8 0 011.3.3 3.1 3.1 0 011.1.9 7.6 7.6 0 01.6 1.8 11.9 11.9 0 01.2 2.8 11.4 11.4 0 01-.2 2.8 7.6 7.6 0 01-.6 1.8 3.1 3.1 0 01-1.1.9 2.8 2.8 0 01-1.3.3 3.2 3.2 0 01-1.4-.3 2.8 2.8 0 01-1-.9 7.5 7.5 0 01-.7-1.8 20.3 20.3 0 01-.2-2.8 21.6 21.6 0 01.2-2.8 7.5 7.5 0 01.7-1.8 2.8 2.8 0 011-.9 3.2 3.2 0 011.4-.3zm0 10.6l.6-.2a1.8 1.8 0 00.6-.8 3.9 3.9 0 00.4-1.4 8.2 8.2 0 00.2-2.4 8.6 8.6 0 00-.2-2.4 3.9 3.9 0 00-.4-1.4 2.8 2.8 0 00-.6-.8l-.6-.2-.7.2a2.8 2.8 0 00-.6.8 3.9 3.9 0 00-.4 1.4 15.4 15.4 0 00-.2 2.4 14.4 14.4 0 00.2 2.4 3.9 3.9 0 00.4 1.4 1.8 1.8 0 00.6.8zM378.8 83.7l2-2.5a8.6 8.6 0 001.3-1.7 4.2 4.2 0 00.7-1.3 4.3 4.3 0 00.2-1.2 3 3 0 00-.4-1.8 2.2 2.2 0 00-1.4-.5H379V74l1-.3h1.4a3 3 0 012.3.8 3.7 3.7 0 01.7 2.6 3.9 3.9 0 01-.2 1.5l-.7 1.4-1.3 1.7-1.8 2.3h4v1h-5.6zM104.2 241.7v11.2h-1.4v-10.1H101v-.8l1.1-.2h2.1zM107.4 251.2v1.8H106v-1.8zM110.9 241.5c1.9 0 2.9 1 2.9 3a3.3 3.3 0 01-.4 1.5 2 2 0 01-1.1.9 2 2 0 01.8.4 2 2 0 01.6.7l.3.8.1 1a3.3 3.3 0 01-.8 2.4 3.7 3.7 0 01-2.6.8h-1.4l-1-.3v-.7h2.1a2.5 2.5 0 001.7-.5 1.9 1.9 0 00.5-1.6 2.4 2.4 0 00-.5-1.8 2.5 2.5 0 00-1.7-.5h-1.1v-1.1h.9a2.2 2.2 0 001.6-.5 1.7 1.7 0 00.5-1.5 2 2 0 00-.4-1.4 1.5 1.5 0 00-1.3-.5h-2.1v-.7l1-.3zM118.1 253.1h-1.4l-1-.3v-.8h2.1l.8-.2.6-.6a4 4 0 00.4-1.3 9 9 0 00.2-1.8l-.9.2h-1.1a2.2 2.2 0 01-1.8-.8 3.8 3.8 0 01-.7-2.7 3.7 3.7 0 01.7-2.6 2.9 2.9 0 012.2-.8 3.2 3.2 0 012.3.8 3.7 3.7 0 01.7 2.6v3.5a12.7 12.7 0 01-.2 2.2 5.9 5.9 0 01-.6 1.4 2.5 2.5 0 01-1 .8 2.8 2.8 0 01-1.3.4zm1.7-5.6v-2.6a3.6 3.6 0 00-.2-1.1 1.1 1.1 0 00-.3-.8 1 1 0 00-.5-.4h-1.2l-.5.4-.3.8-.1 1.1a3.2 3.2 0 00.5 2 1.8 1.8 0 001.5.6zM427.1 227.5h.8a3.2 3.2 0 012.5.8 3.4 3.4 0 01.8 2.5 7.8 7.8 0 01-.2 1.6 2.1 2.1 0 01-.6 1 1.7 1.7 0 01-1 .6l-1.5.2h-1.4l-1-.2v-.7h2a2.4 2.4 0 001.8-.6 2.6 2.6 0 00.5-1.8 1.9 1.9 0 00-2.3-2.3h-1.8v-5.7h5.2v1.1h-3.8zM433.9 232.4v1.7h-1.4v-1.7zM437.9 222.8V234h-1.4v-10h-1.8v-.8l1.1-.3h2.1zM365.1 223.2v11.2h-1.5v-10.1h-1.7v-.8l1-.2h2.2zM368.3 232.7v1.8h-1.5v-1.8zM369.4 231.5v-1.3l4-7h1.6v7.2h1v1.1h-1v2.9h-1.4v-2.9zm4.1-6l-2.7 4.9h2.8v-4.9zM380.4 223h1.3l1.1.2v.8h-2.1a1.1 1.1 0 00-.8.2 1.3 1.3 0 00-.7.6 8.3 8.3 0 00-.4 1.2 10.9 10.9 0 00-.1 1.9l.9-.2h1a2.2 2.2 0 011.9.8 4.4 4.4 0 01.7 2.7 3.7 3.7 0 01-.8 2.6 2.8 2.8 0 01-2.2.7 2.9 2.9 0 01-2.2-.7 3.7 3.7 0 01-.8-2.6v-3.5a6.9 6.9 0 01.3-2.2 3 3 0 01.6-1.4 1.8 1.8 0 01.9-.8 3.2 3.2 0 011.4-.3zm-1.7 5.6v2.6a3.7 3.7 0 00.1 1.1 2.4 2.4 0 00.3.7l.5.5h1.2l.5-.5a2.4 2.4 0 00.3-.7 3.7 3.7 0 00.1-1.1 2.7 2.7 0 00-.5-2 1.8 1.8 0 00-1.5-.6zM143.1 247.8a1 1 0 01-.1-2l39.2-3.9 46.9-4.6 44.5-3.9c22.1-1.7 44.8-3.2 67.4-4.4a1.1 1.1 0 011.1 1 1 1 0 01-1 1c-22.6 1.2-45.3 2.7-67.4 4.4l-44.5 3.9-46.8 4.6-39.2 3.9zM104.2 256.2v11.2h-1.4v-10.1H101v-.8l1.1-.2h2.1zM107.4 265.7v1.8H106v-1.8zM110.9 256.1c1.9 0 2.9.9 2.9 2.9a3.3 3.3 0 01-.4 1.5 2.7 2.7 0 01-1.1 1l.8.4a2 2 0 01.6.7l.3.8.1 1a3.3 3.3 0 01-.8 2.4 3.7 3.7 0 01-2.6.8h-1.4l-1-.2v-.8h2.1c.8 0 1.4-.1 1.7-.5a1.9 1.9 0 00.5-1.6c0-.8-.1-1.4-.5-1.7a2.1 2.1 0 00-1.7-.6h-1.1V261h.9c.8 0 1.3-.1 1.6-.5a1.7 1.7 0 00.5-1.5 2 2 0 00-.4-1.4 1.9 1.9 0 00-1.3-.5h-2.1v-.7l1-.2zM117.2 256.1c1.9 0 2.9.9 2.9 2.9a2.4 2.4 0 01-.4 1.5 2.7 2.7 0 01-1.1 1l.9.4a1.8 1.8 0 01.5.7l.3.8a3.4 3.4 0 01.1 1 3.3 3.3 0 01-.8 2.4 3.7 3.7 0 01-2.6.8h-1.3l-1.1-.2v-.8h2.1c.8 0 1.4-.1 1.7-.5a2 2 0 00.6-1.6 2.1 2.1 0 00-2.3-2.3h-1.1V261h1a1.8 1.8 0 002-2 2 2 0 00-.4-1.4 1.9 1.9 0 00-1.3-.5h-2.1v-.7l1-.2zM423.7 246.1v-1.2l4-7.1h1.6v7.2h1v1.1h-1v2.9h-1.4v-2.9zm4.1-6l-2.7 4.9h2.8v-4.9zM432.9 247.3v1.8h-1.5v-1.8zM435.9 242.5h.7a3.3 3.3 0 012.6.8 3.4 3.4 0 01.8 2.5 7.8 7.8 0 01-.2 1.6 2.4 2.4 0 01-1.6 1.6l-1.6.2h-1.4l-1-.2v-.8h2.1c.8 0 1.4-.1 1.7-.5s.5-.9.5-1.8a2.4 2.4 0 00-.5-1.8 2.5 2.5 0 00-1.7-.5h-1.8v-5.7h5.2v1.1h-3.8zM365.1 237.7v11.2h-1.5v-10.1h-1.7v-.8l1-.2h2.2zM368.3 247.2v1.7h-1.5v-1.7zM369.4 246v-1.3l4-7h1.6v7.2h1v1.1h-1v2.9h-1.4V246zm4.1-6l-2.7 4.9h2.8V240zM380.5 237.5a3.2 3.2 0 011.4.3 2.8 2.8 0 011 .9 5.2 5.2 0 01.7 1.8 19.1 19.1 0 01.2 2.8 21.6 21.6 0 01-.2 2.8 5.4 5.4 0 01-.7 1.7 2.4 2.4 0 01-1 1l-1.4.2-1.3-.2a2.6 2.6 0 01-1.1-1 5.6 5.6 0 01-.6-1.7 11.4 11.4 0 01-.3-2.8 10.4 10.4 0 01.3-2.8 5.4 5.4 0 01.6-1.8 3.1 3.1 0 011.1-.9 2.8 2.8 0 011.3-.3zm0 10.6l.7-.2a2.8 2.8 0 00.6-.8 4.6 4.6 0 00.4-1.5 14 14 0 00.2-2.3 14.4 14.4 0 00-.2-2.4 5.4 5.4 0 00-.4-1.5 2.2 2.2 0 00-.6-.7.8.8 0 00-.7-.2.7.7 0 00-.6.2 1.1 1.1 0 00-.6.7 13.1 13.1 0 00-.5 1.5 16.3 16.3 0 00-.1 2.4 15.5 15.5 0 00.1 2.3 8.6 8.6 0 00.5 1.5 1.2 1.2 0 00.6.8zM142.6 261.8a.5.5 0 01-.5-.5c-.1-.3.1-.5.4-.5a4866.8 4866.8 0 01199-16.9.6.6 0 01.6.5.5.5 0 01-.5.5c-47.4 3.1-95.4 6.8-142.7 11.2l-56.3 5.6z"/></g></svg>