<svg id="Layer_1" data-name="Layer 1" xmlns="http://www.w3.org/2000/svg" xmlns:xlink="http://www.w3.org/1999/xlink" width="505" height="648"><defs><linearGradient id="linear-gradient" x1="115.1" y1="457.5" x2="462.2" y2="457.5" gradientUnits="userSpaceOnUse"><stop offset="0" stop-color="#ffcca2"/><stop offset="1" stop-color="#ffb27d"/></linearGradient><linearGradient id="linear-gradient-2" x1="82.4" y1="384.2" x2="102.1" y2="384.2" xlink:href="#linear-gradient"/><linearGradient id="linear-gradient-3" x1="161.2" y1="482.5" x2="230.5" y2="482.5" xlink:href="#linear-gradient"/><linearGradient id="linear-gradient-4" x1="249.1" y1="580.9" x2="325.5" y2="580.9" gradientUnits="userSpaceOnUse"><stop offset="0" stop-color="#ffc99c"/><stop offset="1" stop-color="#ffad74"/></linearGradient><linearGradient id="linear-gradient-5" x1="217.3" y1="459.6" x2="421.8" y2="459.6" xlink:href="#linear-gradient"/></defs><path d="M411.6 493.5c-1.5-29.2.4-54.5-11.3-93-6.8-22.5-17.2-35.1-34.6-65.4s-25.2-45.7-38.6-63.5l.7 107.2h-.1l-183.5 63.1-25.3 11.5c-9.3 7.5.8 18.1 5 20.3a22.1 22.1 0 0010.9 3.7c33 1.6 35.8-6.5 68.2-4.4a24.8 24.8 0 0124.1 16.4c18.7 42.9 37.2 92.6 87.6 117.7l12.5 36.4 135-6.3c-38.6-59.6-48.9-108.7-50.6-143.7z" fill="url(#linear-gradient)"/><path d="M102.1 364.7c-26.2.9-26.2 37.9 0 39z" fill="url(#linear-gradient-2)"/><path d="M328.1 378.4l.1-106c5.6 19.3 6.6 29.3 6 57.1-.8 35.5-2.8 40.5 2.3 49.1 6.8 11.7 23.9 21.5 31.3 41a290.6 290.6 0 00-39.7-41.2zM99.1 364.7c-4 9-3.6 31 .2 39.2z" fill="#efa26f"/><path fill="#cbe1fd" d="M393.3 267.2l56.9 18.6-34.1-33.2-3.4 8.1-14.7.1-4.7 6.4z"/><path fill="#fff" d="M450.2 285.9l-44.1-33.6-47.2-10.7 91.3 44.3zM416.1 252.7l34.1 33.2-22.7-46.5-11.4 13.3z"/><path d="M141.2 446.8c48 1.6 84.5 5.6 130.4 4.4 2.8 0 10.8 0 18.2 4.6a30.6 30.6 0 0112.2 15.1c4 9.1 11 25.1 20.8 38l-28.6-62.2z" fill="#efa26f"/><path fill="#cbe1fd" d="M44.3 61.1L1 67.3l28.7-19.6 1.5 6.3 10.5 1.9 2.6 5.2z"/><path fill="#fff" d="M1 67.3l36-18.6 35.3-1.8L1 67.3zM28.7 47.7L0 67.3l22.2-30.6 6.5 11z"/><path fill="#e2d1c3" d="M107.1 23.7h212v413h-212z"/><path d="M304.5 15.7H122.6a23.5 23.5 0 00-23.5 23.5v384a23.5 23.5 0 0023.5 23.5h181.9a23.6 23.6 0 0023.6-23.5v-384a23.6 23.6 0 00-23.6-23.5zm12.6 402.7c0 9.5-8.5 17.3-19 17.3H130c-10.5 0-18.9-7.8-18.9-17.3V44c0-9.6 8.4-17.3 18.9-17.3h47.1c-3 7.2 4.6 15.8 10.7 15h51.5c6 .8 13.7-7.8 10.8-15h48c10.5 0 19 7.7 19 17.3z" fill="#333"/><path d="M239.1 29.7c0 5.2-8.1 5.2-8 0s8-5.2 8 0zM222.6 30.7h-37a1.5 1.5 0 010-3h37a1.5 1.5 0 010 3z" fill="#6c6c6c"/><path d="M120.4 453.3a31 31 0 0020.5-6.5c-7.7-1.1-13.8 3.1-20.5 6.5z" fill="#fff" opacity=".7"/><path d="M161.2 476.4c40.7-8.5 69-21 69.3 20.8l-8.2-15.4c-9.7-12.2-26.3-11-61.1-5.4z" fill="url(#linear-gradient-3)"/><path d="M249.1 538.3c11.5 30.2 49.3 56.4 76.4 59.3a39 39 0 00-5 25.9l-6.3-16.6c-21.6-9.2-55.9-44.4-65.1-68.6z" fill="url(#linear-gradient-4)"/><path d="M269.5 388.7H142.6a14.5 14.5 0 01-14.5-14.6v-21.9a14.5 14.5 0 0114.5-14.5h126.9c22.1 2.7 16.2 28.3 0 51z" fill="#fff"/><text transform="translate(146.8 368.2)" font-size="16" fill="#333" font-family="Cuprum-Regular, Cuprum">Понял o_O</text><path d="M297.3 143.8c-1.5-5.9-10.1-12-16.5-11.1H148.1a19.9 19.9 0 01-13.5-5.6 19.6 19.6 0 01-5.5-13.5V81.8a19.1 19.1 0 0119.1-19.1h130.1a19.1 19.1 0 0119.1 19.1z" fill="#fff"/><text transform="translate(151.2 93.3)" font-size="16" fill="#333" font-family="Cuprum-Regular, Cuprum"><tspan letter-spacing="-.1em">Г</tspan><tspan x="5.6" y="0">де с</tspan><tspan x="30.6" y="0" letter-spacing="0em">т</tspan><tspan x="36.3" y="0" letter-spacing="0em">оит с</tspan><tspan x="67.3" y="0" letter-spacing="0em">т</tspan><tspan x="73" y="0">авить </tspan><tspan x="0" y="19.2">п</tspan><tspan x="7.6" y="19.2" letter-spacing="0em">о</tspan><tspan x="14.8" y="19.2" letter-spacing="0em">лидвери?</tspan></text><path d="M294.1 151.7c-.3 17.1-25.8 17.1-26 0s25.7-17.1 26 0z" fill="#fff"/><path d="M286.5 144.7c-.6-1.4-2.8-2.2-5.4-1.7-6.8-.6-5 6.7-2.9 10.4-.6 3.9-3.7 5.1-4.5 8.7 2.3 2.2 10.4 3 13.4.7a11.8 11.8 0 00-4.6-4.3l.4-3.7c2.8.4 2.1-3.9 2-6.6 1.5-.1 2.2-2.5 1.6-3.5z" fill="#e2d1c3"/><path d="M368.2 420.5c-9.1-13.2-42.5-48.2-60-56.3-12.6-9.6-61.5-17.2-87.1-7.2-5.7 4.8-3.9 14.4-1.3 18.9 8.4 20.3 37.4 29.1 59.3 31a119.8 119.8 0 018.6 17.8 125.3 125.3 0 016.1 20.6c4.2 19.4 16.2 41 21.7 50.8 25.2 45.2 93.4 80.2 104.8 68.4 2.7-2.7 1.6-7.3-2-20-17.8-62-26.7-93-50.1-124z" fill="url(#linear-gradient-5)"/><path d="M279.6 382.9c-.6-11.4 10.2-20.5 17.9-21.3" fill="none" stroke="#efa26f" stroke-miterlimit="10"/><path d="M62.1 333.7c-.6 23.7-35.4 23.7-36 0s35.4-23.8 36 0z" fill="#fff"/><path fill="#ffc200" d="M44.1 322.8l-5-1.1v6.9l5 .4v-6.2zM45.1 332.7h4v-8.6l-4-.8v9.4zM44.1 330.3l-5-.3v7.2l5-.4v-6.5zM44.1 338.2l-5 .4v7l5-1.3v-6.1zM45.1 334.7v9l4-.9v-8.1h-4z"/><path d="M265.7 353s-14.2 9.7-13.3 17.5c-60-14.5-14.6-19.3 13.3-17.5z" fill="#fff" opacity=".7"/><g id="warmish" class="heh" style="display: none"><path d="M21.1 317.1a19.4 19.4 0 016.9-8.6 17.7 17.7 0 019.8-2.5h208.1a19.2 19.2 0 0013.5-5.7c4-3.9 5.3-9.3 5.7-13.5v-103a19.2 19.2 0 00-19.2-19.1H40.2a19.1 19.1 0 00-19.1 19.1z" fill="#fff"/><path class="bgShadow" d="M82.1 245.1a12.4 12.4 0 1012.4 12.3 12.3 12.3 0 00-12.4-12.3z" fill="#ffc200"/><path d="M82.1 245.1a12.4 12.4 0 1012.4 12.3 12.3 12.3 0 00-12.4-12.3zm0 23.5a11.2 11.2 0 1111.1-11.2 11 11 0 01-10.8 11.2zM82.3 243.6a.7.7 0 00.6-.7V240a.6.6 0 00-.6-.6.7.7 0 00-.7.6v2.9a.7.7 0 00.7.7z" fill="#333"/><path d="M73.4 243.7l.9 1.5.5.8a.5.5 0 00.5.3h.4a.5.5 0 00.1-.8l-1.1-2.1-.8-1.2-.3-.8a.8.8 0 00-.9-.3.7.7 0 00-.3.8zM68.5 258.7a.6.6 0 00.6-.6c0-.4-.2-.7-.6-.7h-4.7a.7.7 0 00-.6.7.6.6 0 00.6.6zM75.7 268.7c-.4-.1-.8-.1-.9.2l-.5.8-1 1.8-.9 1.5a.8.8 0 00.3.9h.2a1 1 0 00.7-.4l.3-.8.9-1.4 1-1.9a.5.5 0 00-.1-.7zM90.7 271l-.7-1.3-.5-.8c-.2-.3-.5-.3-.9-.2a.7.7 0 00-.2.9l1.2 2 .7 1.2.4.8a.7.7 0 00.7.4h.2a.8.8 0 00.3-.9zM100.4 257.4h-4.6a.7.7 0 00-.7.7.7.7 0 00.7.6h4.6a.7.7 0 00.7-.6.7.7 0 00-.7-.7zM88.6 246.2h.4c.2 0 .3-.1.5-.4l.5-.7.5-.9 1.4-2.4a.8.8 0 00-.3-.9.7.7 0 00-.9.2l-.4.7-.6.9-1.3 2.4a.7.7 0 000 .9zM66.7 249.2l2.6 1.6h.2c.3 0 .5 0 .6-.3a.7.7 0 00-.2-.9l-2.5-1.4a.6.6 0 00-.9.3.6.6 0 00.2.7zM69.3 264.1l-2.6 1.6a.6.6 0 00-.2.7.5.5 0 00.6.4h.3l2.5-1.4a.8.8 0 00.2-1 .8.8 0 00-.8-.3zM82.3 271.3a.7.7 0 00-.7.7v2.9a.7.7 0 00.7.6.6.6 0 00.6-.6V272a.7.7 0 00-.6-.7zM97.5 265.7l-2.5-1.6a1.1 1.1 0 00-.9.3.8.8 0 00.3.9l2.5 1.4h.3a.8.8 0 00.6-.4.6.6 0 00-.3-.6zM94.8 250.8h.2l2.5-1.6a.5.5 0 00.3-.7q-.5-.6-.9-.3l-2.5 1.4a.8.8 0 00-.3.9c.2.3.4.3.7.3zM47.1 188.7h7.4v1.3h-2.9v11.3H50V190h-2.9zM57.3 201.5h-1.1a1.6 1.6 0 01-.9-.5 2.2 2.2 0 01-.5-.8 3.4 3.4 0 01-.2-1.5 3.2 3.2 0 01.2-1.4 2.2 2.2 0 01.5-.8 2.6 2.6 0 01.9-.5h2.9v-.8a3 3 0 00-.2-1 .9.9 0 00-.3-.6l-.7-.3h-2.6v-.7l1-.2 1.2-.2 1.4.2 1 .4a2.4 2.4 0 01.6 1 6.1 6.1 0 01.2 1.5v6.1h-1.4v-.5h-.1a2.6 2.6 0 01-.9.5zm1.8-4.6h-1.3a1.5 1.5 0 00-1.1.4 1.4 1.4 0 00-.5 1.3 2.2 2.2 0 00.1.9l.4.6.5.2h1.3l.6-.2zM67.6 198l2.1-5.7h1.9l.6 9h-1.5l-.5-6.4h-.1l-1.8 5.1h-1.5l-1.9-5.1h-.1l-.4 6.4h-1.5l.6-9h1.9l2.1 5.7zM73.9 199.4h1.7l-.5 4h-1.2zM87.2 192.3v1.2h-3.6v7.8h-1.7v-9zM95.6 200.2v3.7h-1l-.3-1.2a6.8 6.8 0 01-.2-1.4h-5.2a6.8 6.8 0 00-.2 1.4 3.4 3.4 0 01-.4 1.2h-1v-3.7h.8a9.3 9.3 0 00.5-1 5.3 5.3 0 00.4-1.7l.2-5.2h5.3v7.9zm-4.8-6.7l-.2 4a5.3 5.3 0 01-.4 1.7 10.4 10.4 0 01-.4 1h3.1v-6.7zM103.2 197.4h-4.7a6.1 6.1 0 00.1 1.4 3.1 3.1 0 00.5 1 1.6 1.6 0 00.8.5h2.9v.7l-1 .3h-1.1l-1.8-.2a3.2 3.2 0 01-1.2-.8 2.6 2.6 0 01-.6-1.4 7.9 7.9 0 01-.2-2.3 7.2 7.2 0 01.2-2.2 3.4 3.4 0 01.6-1.5 1.8 1.8 0 011-.7 2.8 2.8 0 011.3-.3 3.2 3.2 0 011.4.3 2.3 2.3 0 011 .7l.6 1.5a12.7 12.7 0 01.2 2.2zm-1.6-1.1a6.1 6.1 0 00-.2-1.5 6.2 6.2 0 00-.3-1 1.2 1.2 0 00-.5-.5l-.6-.2-.6.2-.4.5a2.3 2.3 0 00-.4 1 6.6 6.6 0 00-.1 1.5zM111.3 201.3h-1.6v-9h1.6v3.9h2.9v-3.9h1.7v9h-1.7v-3.9h-2.9zM121.2 201.5a1.7 1.7 0 01-1.4-.6 3 3 0 01-.8-1.6l-1.6-7h1.6l1.6 7c.1.4.2.7.4.8l.4.2 1.5-8h1.6l-1.7 9.2a4.9 4.9 0 01-1.1 2.7 2.2 2.2 0 01-1.9.9h-.8l-.8-.3v-.8h1.9l.4-.4c.2-.1.3-.4.4-.7zM130 196v-3.7h1.6v3.7h.4l.5-.2a1.9 1.9 0 00.5-.9l.5-1.2a2.7 2.7 0 01.6-1.2 1.9 1.9 0 011.2-.4h.9v.7l-.7.2a.5.5 0 00-.3.5l-.5 1.2a3.3 3.3 0 01-.6 1.2l-.7.4.9.4a5.3 5.3 0 01.6 1.3l.4 1.7.3.4.8.2v.7h-1a1.2 1.2 0 01-1.1-.4 2.3 2.3 0 01-.7-1.1l-.4-1.7c-.2-.8-.6-1.1-1.2-1.1h-.4v4.1H130v-4.1h-.3a1.1 1.1 0 00-.8.3c-.2.1-.3.4-.4.8l-.5 2.2a1.7 1.7 0 01-.6 1.1 1.6 1.6 0 01-1.2.4h-1v-.7l.8-.2c.2-.1.3-.2.3-.4l.5-1.7a2.3 2.3 0 01.6-1.3l.8-.4-.7-.4a3.3 3.3 0 01-.6-1.2l-.4-1.2-.3-.5-.8-.2v-.7h1a1.6 1.6 0 011.1.4 2.7 2.7 0 01.7 1.2l.4 1.2a3.6 3.6 0 00.5.9l.6.2zM139.4 201.3h-1.6v-9h1.6v3.9h3v-3.9h1.6v9h-1.6v-3.9h-3zM152.6 196.8a12.7 12.7 0 01-.2 2.2 5.2 5.2 0 01-.6 1.5 2.8 2.8 0 01-1.1.8l-1.4.2-1.4-.2a2.3 2.3 0 01-1.1-.8 3.4 3.4 0 01-.6-1.5 12.2 12.2 0 010-4.4 2.6 2.6 0 01.6-1.4 1.8 1.8 0 011.1-.8 3.4 3.4 0 012.8 0 2.1 2.1 0 011.1.8 3.7 3.7 0 01.6 1.4 12.7 12.7 0 01.2 2.2zm-1.6 0a9.7 9.7 0 00-.1-1.8l-.4-1.1a1.7 1.7 0 00-.6-.6l-.6-.2-.7.2-.5.6a3.6 3.6 0 00-.4 1.1 16.3 16.3 0 000 3.6 2.3 2.3 0 00.4 1.1l.5.6a1 1 0 00.7.2.7.7 0 00.6-.2 1.7 1.7 0 00.6-.6 4.3 4.3 0 00.4-1.1 9.7 9.7 0 00.1-1.8zM162.4 193.2l-.9.2a1.7 1.7 0 00-.6.6 2.3 2.3 0 00-.4 1 16.3 16.3 0 000 3.6 2.8 2.8 0 00.4 1.1 1.3 1.3 0 00.7.6h2.8v.7l-1 .3h-1.1l-1.6-.2a2.3 2.3 0 01-1.1-.8 3.7 3.7 0 01-.7-1.4 14 14 0 01-.2-2.3 12.7 12.7 0 01.2-2.2 5.2 5.2 0 01.7-1.5 1.8 1.8 0 011-.7 3.3 3.3 0 011.5-.3l1.1.2 1 .2v.7zM172 196.8a12.7 12.7 0 01-.2 2.2 5.2 5.2 0 01-.7 1.5 2.5 2.5 0 01-1 .8l-1.5.2-1.4-.2a2 2 0 01-1-.8 5.2 5.2 0 01-.7-1.5 12.2 12.2 0 010-4.4 3.7 3.7 0 01.7-1.4 1.6 1.6 0 011-.8 3.2 3.2 0 011.4-.3 3.3 3.3 0 011.5.3 1.9 1.9 0 011 .8 3.7 3.7 0 01.7 1.4 12.7 12.7 0 01.2 2.2zm-1.6 0a9 9 0 00-.2-1.8 3.6 3.6 0 00-.4-1.1 1 1 0 00-.5-.6l-.7-.2-.6.2a1 1 0 00-.5.6 3.6 3.6 0 00-.4 1.1 8.2 8.2 0 000 3.6 2.3 2.3 0 00.4 1.1 1 1 0 00.5.6.7.7 0 00.6.2.8.8 0 00.7-.2 1 1 0 00.5-.6 2.3 2.3 0 00.4-1.1 9 9 0 00.2-1.8zM177.8 192.3h1.7l-2.2 4.4 2.2 4.6h-1.6l-1.7-3.5-1.7 3.5h-1.6l2.2-4.6-2.2-4.4h1.7l1.6 3.4zM182.5 192.9a2.4 2.4 0 01.8-.6l1.1-.2a2.9 2.9 0 012.2 1 11.6 11.6 0 01.6 1.5 12.7 12.7 0 01.2 2.2 14 14 0 01-.2 2.3 6.4 6.4 0 01-.6 1.4 3.2 3.2 0 01-.9.8l-1.3.2h-1l-.8-.3v3.8H181v-12.7h1.3v.6zm.1 7.2l.5.2h1.5a.9.9 0 00.6-.6 2.8 2.8 0 00.4-1.1 16.2 16.2 0 000-3.6 2.3 2.3 0 00-.4-1 .9.9 0 00-.6-.6l-.8-.2h-.7l-.5.3zM191.7 201.5h-1.1a1.6 1.6 0 01-.9-.5 2.2 2.2 0 01-.5-.8 3.4 3.4 0 01-.2-1.5 3.2 3.2 0 01.2-1.4 2.2 2.2 0 01.5-.8 2.6 2.6 0 01.9-.5h2.9v-.8a3 3 0 00-.2-1 .9.9 0 00-.3-.6l-.7-.3h-2.6v-.7l1-.2 1.2-.2 1.4.2 1 .4a1.7 1.7 0 01.6 1 6.1 6.1 0 01.2 1.5v6.1h-1.3v-.5h-.1a2.6 2.6 0 01-.9.5zm1.8-4.6h-1.3a1.5 1.5 0 00-1.1.4 1.4 1.4 0 00-.5 1.3 2.2 2.2 0 00.1.9l.4.6.5.2h1.3l.6-.2zM199.1 201.3h-1.7v-9h1.7v3.9h2.9v-3.9h1.7v9H202v-3.9h-2.9zM210.7 195h-.1l-2.9 6.3H206v-9h1.6v6.1h.1l2.7-6.1h1.9v9h-1.6zM219.9 192.3v1.2h-2.3v7.8H216v-7.8h-2.4v-1.2zM222.9 195.8h3l.8.4a1.5 1.5 0 01.6.9 5.7 5.7 0 010 3 2.4 2.4 0 01-.6.8 1.9 1.9 0 01-1.1.5h-2.9a3.2 3.2 0 01-1.4-.3v-8.8h1.6zm1.3 4.6a2.1 2.1 0 001.2-.3 2.1 2.1 0 00.5-1.5 1.7 1.7 0 00-.5-1.4 1.6 1.6 0 00-1.2-.4h-1.3v3.6zM53.8 213.9v1.4h-2.3v7.6h-2.1v-7.6h-2.3v-1.4zM61.3 219.1h-4.7a2.9 2.9 0 00.6 2.1 2.2 2.2 0 001.7.6h2v.9l-1.1.3h-1.3l-1.8-.2a3.8 3.8 0 01-2-2.3 12.7 12.7 0 01-.2-2.2 11.5 11.5 0 01.2-2.1 5.2 5.2 0 01.7-1.5 2.3 2.3 0 011.1-.8 3.2 3.2 0 011.4-.3l1.5.3a2.5 2.5 0 011 .8 5.2 5.2 0 01.7 1.5 11.5 11.5 0 01.2 2.1zm-2.1-1.3l-.1-1.4a4.6 4.6 0 00-.3-.9 1 1 0 00-.4-.5h-1a1 1 0 00-.4.5 4.6 4.6 0 00-.3.9l-.1 1.4zM65.4 222.9h-2.2v-9H70v9h-2.2v-7.6h-2.4zM79 213.9v9h-2.2v-7.6h-1.9l-.3 4.7a3.5 3.5 0 01-.7 2.3 1.8 1.8 0 01-1.6.8h-1.2V222a1.2 1.2 0 00.9-.4 2.7 2.7 0 00.5-1.6l.3-6.1zM84.5 213.7a3.7 3.7 0 011.5.3 2.8 2.8 0 011.1.8 3.5 3.5 0 01.7 1.5 6.2 6.2 0 01.3 2.1 6.9 6.9 0 01-.3 2.2 2.6 2.6 0 01-.7 1.4 3.1 3.1 0 01-1.1.9l-1.5.2-1.6-.2a3.1 3.1 0 01-1.1-.9 2.6 2.6 0 01-.7-1.4 7.2 7.2 0 01-.2-2.2 6.5 6.5 0 01.2-2.1 3.5 3.5 0 01.7-1.5 2.8 2.8 0 011.1-.8 4.1 4.1 0 011.6-.3zm0 1.2l-.6.2-.5.5a8.1 8.1 0 00-.3 1.1l-.1 1.7.1 1.7a5.3 5.3 0 00.3 1.1l.5.6H85l.5-.6a5.3 5.3 0 00.3-1.1 8.6 8.6 0 00-.3-4.5l-.5-.5zM99.2 217.3h-.1l-2.5 5.6h-2.2v-9h2.1v5.5h.1l2.3-5.5h2.4v9h-2.1zM111.3 213.7a3.3 3.3 0 011.5.3 2.3 2.3 0 011.1.8 2.6 2.6 0 01.7 1.5 6.2 6.2 0 01.3 2.1 6.9 6.9 0 01-.3 2.2 2.1 2.1 0 01-.7 1.4 2.4 2.4 0 01-1.1.9l-1.5.2-1.6-.2a3.1 3.1 0 01-1.1-.9 3.7 3.7 0 01-.7-1.4 12.7 12.7 0 01-.2-2.2 11.5 11.5 0 01.2-2.1 5.2 5.2 0 01.7-1.5 2.8 2.8 0 011.1-.8 4.1 4.1 0 011.6-.3zm0 1.2l-.6.2-.5.5a8.1 8.1 0 00-.3 1.1l-.1 1.7.1 1.7a5.3 5.3 0 00.3 1.1l.5.6h1.1a1 1 0 00.5-.6 5.3 5.3 0 00.3-1.1 8.6 8.6 0 00-.3-4.5 1.2 1.2 0 00-.5-.5zM120.3 215l-.8.2a.8.8 0 00-.5.5 3 3 0 00-.4 1 9.1 9.1 0 00-.1 1.7 8.1 8.1 0 00.1 1.7 2.3 2.3 0 00.4 1l.6.6h2.8v.9l-1 .3h-1.3l-1.7-.2a3.1 3.1 0 01-1.1-.9 2.7 2.7 0 01-.8-1.4 12.7 12.7 0 01-.2-2.2 11.5 11.5 0 01.2-2.1 5.2 5.2 0 01.7-1.5 2.5 2.5 0 011.2-.8 3.3 3.3 0 011.5-.3l1.3.2 1.1.2v.9zM123.9 214.1l1.4-.3h1.6l1.6.2a2.1 2.1 0 011.1.4 2.3 2.3 0 01.7.7 2.7 2.7 0 01.2 1.3 1.7 1.7 0 01-.1.7 1 1 0 01-.4.5l-.4.4-.5.2.6.2.6.5.4.6a2.9 2.9 0 01.2.9 4.4 4.4 0 01-.2 1.3 1.8 1.8 0 01-.8.9l-1.1.4h-3.5a3.2 3.2 0 01-1.4-.3zm2.1.9v2.6h1.4l.5-.2.3-.4a4.3 4.3 0 00.1-.5l-.1-.7-.4-.4-.4-.2H126zm1.1 6.8h.6l.5-.3.3-.5a1.5 1.5 0 00.1-.7 1.2 1.2 0 00-.4-1.1 2 2 0 00-1.1-.3H126v2.9zM139.1 219.1h-4.7a2.9 2.9 0 00.6 2.1 2.1 2.1 0 001.7.6h1.9v.9l-1 .3h-1.3l-1.8-.2a3.8 3.8 0 01-1.3-.9 2.6 2.6 0 01-.7-1.4 6.9 6.9 0 01-.3-2.2 6.2 6.2 0 01.3-2.1 5.2 5.2 0 01.6-1.5 2.8 2.8 0 011.1-.8 3.3 3.3 0 011.5-.3 3.2 3.2 0 011.4.3 2.8 2.8 0 011.1.8 5.2 5.2 0 01.7 1.5 11.5 11.5 0 01.2 2.1zm-2.2-1.3a5.3 5.3 0 00-.1-1.4 2 2 0 00-.2-.9l-.4-.5h-1a1 1 0 00-.4.5 4.6 4.6 0 00-.3.9 5.3 5.3 0 00-.1 1.4zM141 222.9v-9h2.1v7.7h2v-7.7h2.2v7.7h2v-7.7h2.1v7.7h1.1v3.9h-1.4l-.4-1.1-.3-1.5zM160.5 219.1h-4.7a2.9 2.9 0 00.6 2.1 2.1 2.1 0 001.7.6h2v.9l-1.1.3h-1.3l-1.8-.2a3.8 3.8 0 01-1.3-.9 3.7 3.7 0 01-.7-1.4 7.2 7.2 0 01-.2-2.2 6.5 6.5 0 01.2-2.1 5.2 5.2 0 01.7-1.5 2.5 2.5 0 011-.8 3.7 3.7 0 011.5-.3 3.2 3.2 0 011.4.3 2.3 2.3 0 011.1.8 5.2 5.2 0 01.7 1.5 11.5 11.5 0 01.2 2.1zm-2.2-1.3a5.3 5.3 0 00-.1-1.4 2 2 0 00-.2-.9l-.4-.5h-1a1 1 0 00-.4.5 4.6 4.6 0 00-.3.9l-.1 1.4zM164.6 222.9h-2.2v-9h2.2v3.8h2.4v-3.8h2.1v9H167v-3.8h-2.4zM173.6 222.9h-2.1v-9h2.1v3.8h2.5v-3.8h2.1v9h-2.1v-3.8h-2.5zM183.7 213.7a4.1 4.1 0 011.6.3 2.8 2.8 0 011.1.8 5.2 5.2 0 01.7 1.5 11.5 11.5 0 01.2 2.1 12.7 12.7 0 01-.2 2.2 3.7 3.7 0 01-.7 1.4 3.1 3.1 0 01-1.1.9l-1.6.2-1.5-.2a2.4 2.4 0 01-1.1-.9 2.1 2.1 0 01-.7-1.4 6.9 6.9 0 01-.3-2.2 6.2 6.2 0 01.3-2.1 2.6 2.6 0 01.7-1.5 2.3 2.3 0 011.1-.8 3.3 3.3 0 011.5-.3zm0 1.2l-.5.2-.5.5a11.3 11.3 0 00-.3 4.5 5.3 5.3 0 00.3 1.1 1 1 0 00.5.6h1.1l.5-.6a5.3 5.3 0 00.3-1.1l.1-1.7-.1-1.7a8.1 8.1 0 00-.3-1.1l-.5-.5zM192.7 215l-.7.2a1.3 1.3 0 00-.6.5 10.4 10.4 0 00-.4 1l-.1 1.7a7.2 7.2 0 00.2 1.7 2.4 2.4 0 00.3 1 1.3 1.3 0 00.7.6h2.8v.9l-1.1.3h-1.3l-1.6-.2a2.7 2.7 0 01-1.2-.9 3.7 3.7 0 01-.7-1.4 7.2 7.2 0 01-.2-2.2 6.5 6.5 0 01.2-2.1 5.2 5.2 0 01.7-1.5 2.8 2.8 0 011.1-.8 4.1 4.1 0 011.6-.3l1.3.2 1 .2v.9zM202 213.9v1.4h-2.3v7.6h-2.1v-7.6h-2.3v-1.4zM205.5 217.3h2.8a2.5 2.5 0 01.9.4l.7.9a5.7 5.7 0 010 3 2.2 2.2 0 01-.7.9 3.3 3.3 0 01-1.2.5h-3.3l-1.4-.3v-8.8h2.2zm1 4.5h.5l.5-.3.3-.5a2.5 2.5 0 00.1-.9 2.2 2.2 0 00-.1-.8l-.3-.5-.5-.2h-1.5v3.3z" fill="#333"/></g><g id="strongish" class="heh"><path d="M21.1 317.1a19.4 19.4 0 016.9-8.6 17.7 17.7 0 019.8-2.5h208.1a19.2 19.2 0 0013.5-5.7c4-3.9 5.3-9.3 5.7-13.5v-103a19.2 19.2 0 00-19.2-19.1H40.2a19.1 19.1 0 00-19.1 19.1z" fill="#fff"/><path class="bgShadow" d="M100.7 247.1a1.6 1.6 0 00-.5-1.1 2.3 2.3 0 00-1.1-.2c-4.8 1-12.7 3.2-17.3 3.2s-12.7-2.2-17.3-3.2a2 2 0 00-1.1.2 2.4 2.4 0 00-.6 1.1v24.1a1.1 1.1 0 00.6 1 1.1 1.1 0 001.1.3c5.2-1.1 12.9-3.3 17.5-3.2s12.8 2.3 17.1 3.2a1.2 1.2 0 001.1-.3c.2-.1.4-.6.5-1z" fill="#ffc200"/><path d="M100.7 247.1a1.6 1.6 0 00-.5-1.1 2.3 2.3 0 00-1.1-.2c-4.8 1-12.7 3.2-17.3 3.2s-12.7-2.2-17.3-3.2a2 2 0 00-1.1.2 2.4 2.4 0 00-.6 1.1v24.1a1.1 1.1 0 00.6 1 1.1 1.1 0 001.1.3c5.2-1.1 12.9-3.3 17.5-3.2s12.8 2.3 17.1 3.2a1.2 1.2 0 001.1-.3c.2-.1.4-.6.5-1zm-1.2 24.3h-.2a50.5 50.5 0 00-35.1 0h-.3v-24.3h.3a50.2 50.2 0 0017.6 3.1 49.7 49.7 0 0017.5-3.1h.3l-.1 24.3z" fill="#333"/><path d="M70 244.7c.8 1.3 1.3-.2.8-.9a24.5 24.5 0 0021.9-.2c-.5.9 0 2.4.9 1.1s1.1-2.3.2-2.6l-1.7-.8c-1.4-.1-.7 1.3.1 1.4a23.5 23.5 0 01-21 0c1-.1 1.8-1.5.3-1.4l-1.8.8c-.8.3.3 2.2.3 2.6zM93.6 273.4c-.9-1.1-1.4.4-.9 1.3a24.2 24.2 0 00-21.9-.2c.5-.8 0-2.2-.8-1.1s-1.1 2.5-.3 2.8l2 .8c1.3-.3.2-1.2-.5-1.4a22.9 22.9 0 0121 0c-.7.2-1.5 1.1-.4 1.4l2-.8c.9-.3-.2-2.2-.2-2.8zM75 262.5c-.4-.6-3.8-.6-1.9.6s1.5.6 2.6.7 1.4 1.3 1.1.2 2.8-1.3 4.4-.6c-.4 1.4 1.2 2.1 1.1.4 1.7.6 2.9-.4 4.4-.7-.4 2.1 1.4 2.2 1.1.2.5.5 4.7 1.2 2.6-.4s-1.5-.6-2.6-.7v-2.8c.5.4 4.7 1.3 2.6-.4s-1.5-.5-2.6-.7v-2.7c.5.4 4.7 1.1 2.6-.6s-1.5-.4-2.6-.6a.6.6 0 00-.5-.6.6.6 0 00-.6.6c-1.6.1-2.7 1.2-4.4.5.4-1.4-1.2-2.1-1.1-.4-1.6-.6-2.9.4-4.4.5s-1.4-2-1.1 0c-.5-.5-4.6-1.2-2.6.5s1.5.5 2.6.6v2.8c-.5-.6-4.6-1.3-2.6.4s1.5.5 2.6.7v2.7zm5-.5c-1.7 0-1.7.7-3.2.9v-2.8c1.7-.1 2.8-1.2 4.4-.5v2.6zm5.1.5a3.4 3.4 0 01-2.8.1V260c1.7.4 2.9-.4 4.4-.7v2.7zm-1.6-6.4c1.7.2 1.7-.5 3.2-.6v2.7c-1.6.1-2.7 1.2-4.4.5V256zm-5-.4a4.9 4.9 0 012.7-.1v2.7c-1.6-.5-2.9.4-4.4.6v-2.8a2.5 2.5 0 001.7-.4z" fill="#333"/><text transform="translate(47.5 200.8)" font-size="18" fill="#333" font-family="Cuprum-Regular, Cuprum"><tspan letter-spacing="-.1em">Т</tspan><tspan x="6.8" y="0">ам, </tspan><tspan x="33.8" y="0" letter-spacing="0em">г</tspan><tspan x="40.2" y="0">де преимущество - </tspan><tspan font-family="Cuprum-Bold, Cuprum" font-weight="700"><tspan x="0" y="21.6">лег</tspan><tspan x="24.3" y="21.6" letter-spacing="0em">к</tspan><tspan x="32.6" y="21.6">ость и </tspan><tspan x="82.1" y="21.6" letter-spacing="0em">у</tspan><tspan x="90.4" y="21.6">даропрочность</tspan></tspan></text></g><path d="M505 648c-19.7-18.9-49.5-49.3-68.9-67.8-21.7 19.7-44.9 47.3-66.8 67.8z" fill="#333"/><path d="M422 648l-7.4-28.2 23.5 28.2h35.4c5.5-5 10.9-11.4 16.4-16.2-14.9-14.2-38.8-37.4-53.8-51.6-4.2 4.3-93.3 52.6-118.5 42.8.6 6.8 1.1 17.8 1.6 25z" fill="#336774"/></svg>